<?xml version="1.0" standalone="no"?>
<!DOCTYPE svg PUBLIC "-//W3C//DTD SVG 20010904//EN"
 "http://www.w3.org/TR/2001/REC-SVG-20010904/DTD/svg10.dtd">
<svg version="1.0" xmlns="http://www.w3.org/2000/svg"
 width="300.000000pt" height="300.000000pt" viewBox="0 0 300.000000 300.000000"
 preserveAspectRatio="xMidYMid meet">
<metadata>
Created by potrace 1.10, written by Peter Selinger 2001-2011
</metadata>
<g transform="translate(0.000000,300.000000) scale(0.100000,-0.100000)"
fill="#000000" stroke="none">
<path d="M540 1801 c0 -27 4 -31 43 -41 92 -23 203 -62 227 -79 33 -24 90 -37
90 -21 0 19 148 76 273 104 22 5 27 12 27 37 0 31 -1 31 -37 24 -76 -14 -250
-75 -272 -96 l-22 -21 -23 21 c-21 20 -196 82 -268 95 -37 7 -38 6 -38 -23z"/>
<path d="M498 1759 c-16 -9 -18 -30 -18 -219 0 -168 3 -211 14 -223 8 -8 44
-22 80 -31 103 -25 232 -75 252 -97 19 -21 45 -24 75 -9 23 13 26 32 3 23 -14
-5 -15 12 -12 165 1 94 2 169 1 168 -13 -13 -63 -195 -63 -230 l0 -47 -27 15
c-16 7 -75 29 -133 47 -58 18 -111 37 -117 42 -10 7 -13 61 -13 208 0 208 -1
212 -42 188z"/>
<path d="M1196 1573 c-2 -109 -7 -218 -11 -242 -7 -42 -7 -43 16 -36 58 18 59
21 59 240 0 183 -2 203 -18 218 -38 35 -41 24 -46 -180z"/>
<path d="M582 1710 c4 -12 118 -53 126 -45 10 10 -11 23 -52 34 -24 6 -51 14
-61 17 -12 5 -16 3 -13 -6z"/>
<path d="M1078 1698 c-38 -12 -68 -26 -68 -33 0 -7 25 -3 75 13 41 13 75 28
75 33 0 12 -3 11 -82 -13z"/>
<path d="M580 1656 c0 -7 18 -18 41 -25 23 -7 48 -15 56 -18 10 -4 14 -1 11 7
-6 19 -108 53 -108 36z"/>
<path d="M758 1664 c-4 -3 -14 -7 -23 -8 -13 -2 -30 -37 -61 -127 -36 -104
-41 -125 -29 -132 8 -4 15 -15 15 -24 0 -10 5 -13 18 -8 41 17 51 16 62 -7 7
-12 14 -24 15 -26 1 -1 15 4 30 12 24 13 35 34 68 127 40 114 40 118 11 167
-1 2 -11 -1 -22 -7 -25 -14 -49 -5 -57 20 -6 19 -17 24 -27 13z m23 -45 c14
-14 29 -19 45 -16 29 5 52 -17 36 -35 -6 -7 -10 -17 -10 -23 -1 -5 -11 -40
-24 -77 -18 -56 -26 -67 -40 -62 -10 3 -18 1 -18 -5 0 -6 5 -10 11 -8 20 4 21
-20 1 -25 -12 -3 -23 2 -31 14 -9 15 -20 19 -42 16 -51 -8 -52 10 -13 123 30
88 46 118 62 119 1 0 11 -9 23 -21z"/>
<path d="M766 1531 c-4 -7 -16 -9 -28 -5 -17 5 -18 3 -9 -14 7 -13 7 -22 -1
-30 -9 -9 -7 -12 8 -12 11 0 25 -5 32 -12 9 -9 12 -8 12 5 0 9 8 21 18 26 10
6 12 11 4 11 -7 0 -16 10 -21 22 -5 15 -10 18 -15 9z"/>
<path d="M918 1640 c-1 -5 -2 -102 0 -215 l3 -205 27 0 c19 0 30 7 37 22 17
38 88 36 100 -2 5 -16 15 -20 47 -20 32 0 39 3 34 16 -3 9 -6 105 -6 215 l0
199 -31 0 c-21 0 -37 -8 -51 -25 -11 -14 -28 -25 -39 -25 -29 0 -59 18 -59 35
0 17 -56 21 -62 5z m220 -133 c-1 -26 -5 -50 -10 -53 -4 -3 -8 -1 -8 5 0 5
-25 24 -55 41 -63 36 -100 35 -115 -3 -7 -17 -9 -7 -9 40 -1 66 10 84 37 60
31 -27 57 -28 103 -4 l44 24 7 -31 c4 -17 7 -53 6 -79z m-89 -30 c30 -18 56
-37 58 -42 2 -9 -86 -66 -114 -73 -10 -3 -13 17 -13 72 0 42 3 76 8 76 4 0 31
-15 61 -33z m87 -171 c-4 -25 -10 -46 -14 -46 -4 0 -20 9 -37 20 -38 25 -62
25 -103 0 l-32 -20 -10 25 c-5 14 -7 39 -3 55 5 29 6 30 29 15 34 -22 53 -18
109 20 l50 35 9 -30 c5 -15 5 -49 2 -74z"/>
<path d="M1350 1563 l0 -73 35 0 c38 0 81 32 69 52 -4 6 -7 27 -8 47 -1 35 -2
36 -48 41 l-48 6 0 -73z m68 30 c-5 -26 -38 -29 -38 -4 0 15 6 21 21 21 14 0
19 -5 17 -17z m-7 -44 c23 -12 16 -29 -12 -29 -12 0 -19 7 -19 20 0 23 4 24
31 9z"/>
<path d="M1700 1565 c0 -60 3 -75 15 -75 8 0 15 9 15 20 0 11 4 20 10 20 5 0
14 -9 20 -20 6 -11 17 -20 25 -20 20 0 19 10 -5 40 -19 25 -19 25 2 47 21 23
21 23 1 23 -11 0 -28 -10 -36 -22 -16 -22 -16 -22 -16 20 -1 30 -5 42 -16 42
-12 0 -15 -15 -15 -75z"/>
<path d="M1850 1633 c-63 -22 -46 -143 20 -143 48 0 80 81 48 122 -15 19 -47
28 -68 21z m45 -68 c0 -36 -3 -40 -25 -40 -27 0 -36 20 -26 61 5 19 12 25 29
22 18 -3 22 -9 22 -43z"/>
<path d="M2054 1631 c-11 -11 -1 -21 21 -21 25 0 25 -1 20 -60 -6 -57 -5 -60
16 -60 20 0 21 4 17 60 -4 57 -3 60 19 60 13 0 23 4 23 9 0 9 -108 20 -116 12z"/>
<path d="M2180 1565 c0 -59 3 -75 14 -75 10 0 16 14 18 43 2 29 8 42 18 42 11
0 15 -11 15 -40 0 -29 4 -40 15 -40 11 0 14 10 11 45 -4 57 -8 63 -37 56 -21
-6 -24 -3 -24 19 0 16 -6 25 -15 25 -12 0 -15 -15 -15 -75z"/>
<path d="M2425 1615 c-28 -27 -31 -51 -13 -90 24 -53 108 -41 108 15 0 27 -3
30 -30 30 -16 0 -30 -4 -30 -10 0 -5 7 -10 15 -10 8 0 15 -7 15 -15 0 -9 -9
-15 -25 -15 -27 0 -42 33 -30 69 7 24 26 27 55 9 29 -18 39 1 11 23 -31 25
-47 24 -76 -6z"/>
<path d="M582 1600 c6 -19 88 -42 88 -25 0 7 -12 15 -27 18 -16 3 -36 9 -47
13 -13 5 -17 3 -14 -6z"/>
<path d="M1486 1584 c-21 -21 -20 -57 2 -77 23 -21 46 -22 66 -1 32 32 10 94
-34 94 -10 0 -26 -7 -34 -16z m52 -37 c3 -22 -1 -27 -17 -27 -15 0 -21 6 -21
23 0 46 33 49 38 4z"/>
<path d="M1600 1585 c-29 -35 -7 -95 34 -95 31 0 46 19 46 55 0 17 -5 36 -12
43 -17 17 -53 15 -68 -3z m49 -57 c-8 -15 -13 -17 -25 -7 -17 14 -18 31 -2 47
19 19 41 -14 27 -40z"/>
<path d="M1950 1544 c0 -40 4 -54 14 -54 10 0 16 14 18 43 4 55 22 54 26 -1 3
-34 7 -43 20 -40 13 3 16 12 13 48 -1 25 -5 48 -7 52 -2 4 -22 6 -44 6 l-40 0
0 -54z"/>
<path d="M2307 1582 c-36 -40 -3 -101 48 -88 28 7 35 28 8 25 -30 -3 -43 1
-43 11 0 6 16 10 35 10 39 0 42 6 19 38 -18 27 -45 28 -67 4z"/>
<path d="M2552 1588 c-17 -17 -15 -73 2 -88 23 -18 59 -8 75 21 13 24 13 29
-2 53 -19 28 -54 35 -75 14z m58 -43 c0 -7 -6 -18 -14 -24 -12 -10 -17 -8 -26
9 -15 28 5 57 26 39 8 -6 14 -17 14 -24z"/>
<path d="M580 1545 c0 -11 44 -29 65 -26 16 3 0 18 -30 28 -29 10 -35 10 -35
-2z"/>
<path d="M1340 1443 c0 -6 5 -15 10 -18 6 -3 10 -16 10 -28 1 -18 4 -15 15 12
17 39 19 54 4 28 -10 -18 -11 -18 -25 0 -7 10 -14 13 -14 6z"/>
<path d="M1550 1415 c0 -19 5 -35 10 -35 6 0 10 6 10 13 0 9 3 8 9 -2 6 -9 11
-10 15 -2 4 6 0 18 -8 27 -9 8 -16 20 -16 25 0 5 -4 9 -10 9 -5 0 -10 -16 -10
-35z"/>
<path d="M1827 1442 c6 -4 13 -21 16 -37 l4 -30 2 32 c0 17 7 34 14 36 6 3 -1
6 -18 6 -16 0 -25 -3 -18 -7z"/>
<path d="M1952 1415 c0 -22 2 -34 5 -27 3 8 9 10 16 3 9 -7 12 -2 12 15 0 15
-5 22 -12 20 -6 -3 -14 3 -16 12 -3 9 -5 -1 -5 -23z"/>
<path d="M2107 1444 c-3 -5 -3 -21 0 -36 4 -22 10 -26 36 -25 25 2 32 7 32 22
0 14 -7 20 -23 20 -13 0 -27 7 -31 14 -5 7 -11 9 -14 5z"/>
<path d="M2219 1423 c-5 -14 -8 -31 -5 -37 3 -7 5 -6 5 2 1 14 31 17 31 2 0
-5 7 -10 15 -10 8 0 15 9 15 20 0 27 18 25 23 -2 4 -20 4 -19 6 5 1 21 -4 27
-19 27 -14 0 -20 -7 -21 -22 -1 -20 -3 -18 -15 10 -17 39 -22 40 -35 5z"/>
<path d="M2442 1415 c0 -22 3 -30 5 -17 2 12 8 22 13 22 5 0 11 -10 13 -22 4
-20 4 -19 6 5 1 17 -4 27 -13 27 -8 0 -17 6 -19 13 -3 6 -5 -6 -5 -28z"/>
<path d="M1394 1415 c-4 -9 -2 -21 4 -27 15 -15 44 -1 40 19 -4 23 -36 29 -44
8z"/>
<path d="M1451 1408 c-1 -22 4 -28 19 -28 15 0 20 6 19 28 -2 23 -2 24 -6 5
-2 -13 -8 -23 -13 -23 -5 0 -11 10 -13 23 -4 19 -4 18 -6 -5z"/>
<path d="M1634 1416 c-3 -8 -3 -20 1 -26 11 -18 37 -11 43 12 5 21 5 21 14 -2
7 -20 11 -22 18 -10 5 8 9 22 9 30 0 10 -2 11 -6 2 -2 -6 -10 -9 -16 -5 -23
14 -57 14 -63 -1z"/>
<path d="M1754 1416 c-8 -20 3 -36 24 -36 15 0 15 2 2 10 -13 8 -12 10 3 10
11 0 17 6 15 13 -7 18 -37 21 -44 3z"/>
<path d="M1902 1408 c3 -22 38 -39 38 -19 0 6 -7 8 -15 5 -10 -4 -15 0 -15 11
0 11 5 15 15 11 8 -3 15 -1 15 4 0 6 -9 10 -21 10 -15 0 -20 -5 -17 -22z"/>
<path d="M1998 1418 c-8 -22 3 -38 25 -37 21 0 21 1 2 9 -18 8 -18 9 -2 9 10
1 17 7 15 14 -6 17 -34 21 -40 5z"/>
<path d="M2324 1395 c1 -44 11 -45 26 -2 12 32 12 32 21 8 11 -29 24 -21 14 8
-7 23 -30 28 -38 9 -4 -10 -7 -10 -15 0 -6 8 -8 1 -8 -23z"/>
<path d="M2492 1408 c2 -14 11 -24 23 -25 20 -3 20 -3 0 6 -17 8 -18 10 -2 10
25 1 21 31 -4 31 -15 0 -20 -5 -17 -22z"/>
<path d="M2572 1408 c5 -34 38 -37 38 -4 0 20 -5 26 -21 26 -15 0 -20 -5 -17
-22z"/>
</g>
</svg>
