 <svg  version="1.0" xmlns="http://www.w3.org/2000/svg"  width="300.000000pt" height="47.000000pt" viewBox="0 0 300.000000 47.000000"  preserveAspectRatio="xMidYMid meet">  <g transform="translate(0.000000,47.000000) scale(0.100000,-0.100000)" fill="#005100" stroke="none"> <path d="M40 210 l0 -210 45 0 45 0 0 140 c0 77 3 140 8 139 4 0 49 -50 100 -110 70 -81 100 -109 117 -109 18 0 47 27 117 109 51 60 96 110 101 110 4 1 7 -62 7 -139 l0 -140 190 0 190 0 0 35 0 35 -56 0 c-31 0 -54 4 -52 8 8 21 162 252 167 252 3 0 54 -74 113 -165 l107 -165 116 0 115 0 0 175 0 175 144 0 c103 0 146 -4 154 -13 19 -23 23 -61 8 -82 -13 -18 -24 -20 -110 -17 -123 4 -136 0 -136 -44 l0 -34 149 0 c143 0 151 1 178 24 24 21 28 32 31 95 4 71 4 71 33 71 l29 0 0 -175 0 -175 55 0 55 0 0 175 0 175 144 0 c159 0 176 -6 176 -59 0 -45 -19 -53 -137 -56 -59 -2 -111 -3 -115 -4 -5 -1 -8 -17 -8 -36 l0 -35 140 0 c77 0 140 -3 140 -6 0 -3 -20 -33 -43 -67 -24 -34 -47 -68 -51 -74 -6 -10 24 -13 133 -13 l141 0 0 35 0 34 -55 3 -55 3 83 127 c45 71 85 128 88 128 4 0 55 -74 114 -165 l107 -165 59 0 c32 0 59 2 59 5 0 2 -62 96 -138 207 l-139 203 -60 3 -59 3 -50 -73 -49 -73 -5 47 c-4 30 -14 56 -30 73 l-23 25 -604 0 -603 0 0 -35 0 -34 68 -3 67 -3 3 -138 3 -137 -23 0 c-16 0 -32 12 -48 38 -14 20 -67 99 -119 175 l-94 138 -60 -3 -60 -3 -116 -172 c-103 -152 -119 -172 -143 -173 l-28 0 0 175 0 175 -47 0 -48 -1 -105 -124 c-58 -68 -109 -124 -115 -124 -5 0 -35 30 -65 66 -30 36 -73 86 -95 110 -22 25 -44 52 -48 59 -5 9 -26 14 -57 14 l-50 0 0 -210z"/> </g> </svg> 