<svg version="1.1" id="Layer_1" xmlns="http://www.w3.org/2000/svg" xmlns:xlink="http://www.w3.org/1999/xlink" x="0px" y="0px"
	 width="100%" viewBox="0 0 1280 271" enable-background="new 0 0 1280 271" xml:space="preserve">
<path fill="#000000" opacity="1.000000" stroke="none" 
	d="
M851.000000,272.000000 
	C567.333313,272.000000 284.166656,272.000000 1.000000,272.000000 
	C1.000000,181.666672 1.000000,91.333336 1.000000,1.000000 
	C427.666656,1.000000 854.333313,1.000000 1281.000000,1.000000 
	C1281.000000,91.333336 1281.000000,181.666672 1281.000000,272.000000 
	C1137.833374,272.000000 994.666687,272.000000 851.000000,272.000000 
M168.143341,206.652832 
	C193.006088,169.936356 217.868835,133.219879 242.731583,96.503395 
	C243.153946,96.644218 243.576324,96.785049 243.998688,96.925873 
	C243.998688,98.675606 243.998672,100.425331 243.998688,102.175064 
	C243.998779,121.340775 243.998062,140.506485 243.999130,159.672195 
	C244.000671,187.337479 244.043060,215.002899 243.957581,242.667908 
	C243.946457,246.270340 244.682373,248.076538 248.890396,248.066681 
	C300.054199,247.946838 351.218414,247.965027 402.382416,248.035355 
	C405.826813,248.040115 407.094604,246.855499 407.038605,243.393005 
	C406.885071,233.896027 406.870514,224.392670 407.048706,214.896484 
	C407.117126,211.251083 405.892578,209.898224 402.172363,209.947845 
	C390.008514,210.110092 377.841064,210.002441 365.675018,209.998764 
	C363.739105,209.998169 361.803192,209.998657 358.303894,209.998657 
	C382.635071,162.739868 406.335449,116.706238 430.470642,69.828125 
	C431.723053,71.802589 432.299255,72.576599 432.737854,73.422005 
	C446.505737,99.959145 460.304840,126.480240 474.001312,153.054230 
	C483.364014,171.219818 492.566742,189.467789 501.867798,207.665222 
	C507.689301,219.054977 513.670471,230.364746 519.354858,241.822113 
	C521.588257,246.323730 524.437012,248.201767 529.776184,248.143066 
	C557.771423,247.835419 585.771851,248.003418 613.770447,247.996033 
	C620.981873,247.994141 620.996399,247.977371 620.997009,240.507919 
	C621.001587,184.177383 620.998230,127.846855 621.002747,71.516327 
	C621.003357,64.014389 621.017334,64.003105 628.704956,64.002258 
	C664.536499,63.998310 700.369629,64.186584 736.198486,63.877106 
	C745.699890,63.795036 751.762634,70.617508 752.772888,78.000328 
	C753.892151,86.179520 754.575745,94.652916 753.707031,102.812759 
	C752.502930,114.124184 747.868958,122.466240 732.824707,122.159874 
	C705.504089,121.603500 678.163391,122.098686 650.832642,121.913719 
	C646.216125,121.882477 644.789917,123.354408 644.915405,127.893112 
	C645.196167,138.051514 645.191345,148.228073 644.916809,158.386795 
	C644.798157,162.776596 646.226746,164.098129 650.608643,164.080444 
	C687.606201,163.931061 724.606873,164.194809 761.600159,163.769119 
	C766.929077,163.707794 772.942749,161.719086 777.401917,158.758301 
	C792.226868,148.914856 798.617798,134.146622 798.948730,116.695732 
	C799.204590,103.201248 799.000549,89.698044 799.000854,76.198715 
	C799.001221,63.999969 799.001160,63.999973 811.022034,63.999859 
	C824.000000,63.999737 823.999878,63.999733 824.000000,76.742867 
	C824.000244,131.406815 823.998291,186.070755 824.003662,240.734711 
	C824.004395,247.971100 824.021851,247.986084 830.955750,247.995193 
	C841.455200,248.008987 851.955139,248.059845 862.454041,247.983124 
	C873.252075,247.904236 871.968811,249.250320 871.977783,238.322128 
	C872.023926,182.324951 872.007385,126.327721 871.984253,70.330513 
	C871.982849,66.861244 871.638062,63.893135 876.890869,63.917583 
	C914.388184,64.092110 951.886719,63.982834 989.384521,64.096481 
	C991.396484,64.102577 993.648804,64.921455 995.370178,66.019188 
	C1001.131653,69.693520 1003.609924,75.461685 1003.911743,81.995522 
	C1004.249695,89.312889 1003.929993,96.658485 1004.006775,103.990639 
	C1004.090149,111.955696 996.692749,122.461533 985.581543,122.210693 
	C957.597290,121.578934 929.588623,122.089630 901.591064,121.919304 
	C897.178162,121.892471 895.799377,123.278030 895.919495,127.637016 
	C896.190125,137.462372 895.991211,147.300369 896.005066,157.133194 
	C896.014771,163.969360 896.030945,163.993408 902.853882,163.995193 
	C938.185425,164.004440 973.517029,163.994263 1008.848572,164.016663 
	C1010.878357,164.017944 1012.907959,164.246567 1015.654053,164.412720 
	C1000.523987,192.493195 985.863464,219.702194 970.912659,247.449890 
	C973.048523,247.696945 974.322266,247.972290 975.596191,247.973038 
	C1013.094299,247.995407 1050.592529,247.955246 1088.090454,248.046021 
	C1091.714111,248.054810 1093.129150,246.925079 1093.052246,243.186554 
	C1092.863281,234.024292 1092.813110,224.850235 1093.076538,215.691544 
	C1093.199463,211.415924 1091.968628,209.809326 1087.465576,209.911896 
	C1075.472412,210.185089 1063.468872,210.014816 1051.469482,209.984985 
	C1049.553467,209.980209 1047.637817,209.790176 1044.599731,209.624634 
	C1068.864624,162.564346 1092.670044,116.395210 1116.887451,69.427032 
	C1123.281616,81.603592 1129.120361,92.591606 1134.839600,103.641487 
	C1145.910645,125.031448 1156.927979,146.449219 1167.942383,167.868393 
	C1180.934326,193.132874 1193.957397,218.381836 1206.802002,243.721069 
	C1208.376221,246.826294 1210.165527,248.102509 1213.667358,248.063477 
	C1228.331421,247.900146 1242.998535,248.007965 1257.664429,247.976959 
	C1259.059326,247.974014 1260.453857,247.696198 1262.479614,247.478043 
	C1261.534180,245.394058 1260.950439,243.880264 1260.188232,242.462402 
	C1253.671997,230.341354 1247.124146,218.237350 1240.584839,206.128799 
	C1224.977539,177.229813 1209.341309,148.346344 1193.769409,119.428337 
	C1176.776855,87.871880 1159.812256,56.300274 1142.940186,24.679388 
	C1141.476074,21.935316 1139.683838,20.929138 1136.655518,20.955635 
	C1123.490601,21.070826 1110.320801,20.863844 1097.161377,21.156691 
	C1095.170044,21.201004 1092.333496,22.772417 1091.392090,24.471045 
	C1080.213013,44.642105 1069.330322,64.977188 1058.342896,85.254684 
	C1055.957153,89.657539 1053.464966,94.002785 1051.021851,98.374557 
	C1050.003174,96.034019 1050.054932,94.064240 1049.994507,92.097908 
	C1049.688477,82.141136 1049.883667,72.133530 1048.918579,62.239777 
	C1046.869507,41.231438 1031.783203,20.711729 1003.562683,20.787636 
	C843.571777,21.217976 683.579163,20.995888 523.587097,20.996096 
	C522.420471,20.996098 521.241882,21.108406 520.089417,20.981529 
	C515.623230,20.489845 513.805725,22.210886 513.927551,26.906239 
	C514.195496,37.232090 514.218201,47.575706 513.920166,57.899925 
	C513.776428,62.877296 515.794006,64.134010 520.401550,64.073227 
	C535.731445,63.870998 551.065674,63.988895 566.398254,64.006531 
	C572.961182,64.014076 572.991821,64.039223 572.993408,70.619698 
	C573.003662,113.284241 572.999634,155.948776 572.999939,198.613327 
	C573.000061,210.095245 572.996216,209.899826 561.668518,210.103729 
	C557.715637,210.174881 555.802673,208.710358 554.044495,205.355667 
	C544.494324,187.133347 534.758118,169.007690 524.981750,150.905029 
	C509.847351,122.881073 494.611298,94.912018 479.453369,66.900734 
	C471.954315,53.042801 464.485352,39.168007 457.113678,25.242146 
	C455.442017,22.084209 453.234772,20.868015 449.607391,20.926273 
	C437.111267,21.126972 424.604797,21.205263 412.113281,20.891853 
	C407.745331,20.782261 405.730225,22.474092 403.822083,26.176064 
	C396.068115,41.219406 387.994263,56.098839 379.962311,70.997726 
	C364.368439,99.923599 348.721558,128.820923 333.100067,157.731918 
	C324.262299,174.088120 315.485596,190.477966 306.503448,206.754440 
	C305.706940,208.197784 303.661957,209.674576 302.075043,209.821655 
	C297.614075,210.235046 293.064240,210.223892 288.605865,209.794373 
	C287.319031,209.670410 285.713623,207.755035 285.175354,206.316345 
	C284.572144,204.704102 285.002747,202.700882 285.002655,200.867798 
	C284.999817,143.037338 284.939941,85.206718 285.102173,27.376719 
	C285.116394,22.307055 283.638062,20.718176 278.592346,20.897947 
	C268.605469,21.253769 258.591522,20.831718 248.602112,21.149946 
	C246.537949,21.215702 243.749969,22.573132 242.613922,24.235922 
	C216.811890,62.001534 191.190613,99.890678 165.543228,137.761917 
	C160.561081,145.118622 155.611374,152.497284 150.281052,160.408539 
	C147.795898,157.019348 145.682709,154.319260 143.761734,151.488708 
	C129.049789,129.810959 114.378418,108.105690 99.688225,86.413177 
	C85.741562,65.818611 71.761253,45.246727 57.869633,24.615108 
	C56.135212,22.039179 54.201782,20.775782 50.940903,20.940277 
	C40.821857,21.450735 30.688007,21.905733 20.560331,21.896748 
	C16.148756,21.892836 14.828244,23.287579 14.889875,27.639984 
	C15.109302,43.136082 14.972020,58.637218 14.972056,74.136444 
	C14.972187,129.966995 15.034974,185.797729 14.869115,241.627792 
	C14.854144,246.667374 16.252890,248.314301 21.331821,248.104492 
	C30.482395,247.726471 39.659832,248.007309 48.826027,247.996078 
	C55.972542,247.987320 55.993690,247.975983 55.994766,240.950897 
	C56.001835,194.786530 55.999039,148.622162 55.999454,102.457787 
	C55.999470,100.581551 55.999458,98.705307 55.999458,95.565796 
	C57.663712,97.431160 58.395134,98.087891 58.932369,98.876862 
	C74.136757,121.205719 89.348595,143.529602 104.500595,165.893997 
	C115.655365,182.358475 126.658218,198.926666 137.939224,215.303665 
	C139.129608,217.031769 141.637161,218.582581 143.709030,218.848358 
	C153.194611,220.065186 162.340576,219.899536 166.634262,208.884140 
	C166.865265,208.291519 167.436203,207.831436 168.143341,206.652832 
z"/>
<path fill="#006837" opacity="1.000000" stroke="none" 
	d="
M167.996124,206.981232 
	C167.436203,207.831436 166.865265,208.291519 166.634262,208.884140 
	C162.340576,219.899536 153.194611,220.065186 143.709030,218.848358 
	C141.637161,218.582581 139.129608,217.031769 137.939224,215.303665 
	C126.658218,198.926666 115.655365,182.358475 104.500595,165.893997 
	C89.348595,143.529602 74.136757,121.205719 58.932369,98.876862 
	C58.395134,98.087891 57.663712,97.431160 55.999458,95.565796 
	C55.999458,98.705307 55.999470,100.581551 55.999454,102.457787 
	C55.999039,148.622162 56.001835,194.786530 55.994766,240.950897 
	C55.993690,247.975983 55.972542,247.987320 48.826027,247.996078 
	C39.659832,248.007309 30.482395,247.726471 21.331821,248.104492 
	C16.252890,248.314301 14.854144,246.667374 14.869115,241.627792 
	C15.034974,185.797729 14.972187,129.966995 14.972056,74.136444 
	C14.972020,58.637218 15.109302,43.136082 14.889875,27.639984 
	C14.828244,23.287579 16.148756,21.892836 20.560331,21.896748 
	C30.688007,21.905733 40.821857,21.450735 50.940903,20.940277 
	C54.201782,20.775782 56.135212,22.039179 57.869633,24.615108 
	C71.761253,45.246727 85.741562,65.818611 99.688225,86.413177 
	C114.378418,108.105690 129.049789,129.810959 143.761734,151.488708 
	C145.682709,154.319260 147.795898,157.019348 150.281052,160.408539 
	C155.611374,152.497284 160.561081,145.118622 165.543228,137.761917 
	C191.190613,99.890678 216.811890,62.001534 242.613922,24.235922 
	C243.749969,22.573132 246.537949,21.215702 248.602112,21.149946 
	C258.591522,20.831718 268.605469,21.253769 278.592346,20.897947 
	C283.638062,20.718176 285.116394,22.307055 285.102173,27.376719 
	C284.939941,85.206718 284.999817,143.037338 285.002655,200.867798 
	C285.002747,202.700882 284.572144,204.704102 285.175354,206.316345 
	C285.713623,207.755035 287.319031,209.670410 288.605865,209.794373 
	C293.064240,210.223892 297.614075,210.235046 302.075043,209.821655 
	C303.661957,209.674576 305.706940,208.197784 306.503448,206.754440 
	C315.485596,190.477966 324.262299,174.088120 333.100067,157.731918 
	C348.721558,128.820923 364.368439,99.923599 379.962311,70.997726 
	C387.994263,56.098839 396.068115,41.219406 403.822083,26.176064 
	C405.730225,22.474092 407.745331,20.782261 412.113281,20.891853 
	C424.604797,21.205263 437.111267,21.126972 449.607391,20.926273 
	C453.234772,20.868015 455.442017,22.084209 457.113678,25.242146 
	C464.485352,39.168007 471.954315,53.042801 479.453369,66.900734 
	C494.611298,94.912018 509.847351,122.881073 524.981750,150.905029 
	C534.758118,169.007690 544.494324,187.133347 554.044495,205.355667 
	C555.802673,208.710358 557.715637,210.174881 561.668518,210.103729 
	C572.996216,209.899826 573.000061,210.095245 572.999939,198.613327 
	C572.999634,155.948776 573.003662,113.284241 572.993408,70.619698 
	C572.991821,64.039223 572.961182,64.014076 566.398254,64.006531 
	C551.065674,63.988895 535.731445,63.870998 520.401550,64.073227 
	C515.794006,64.134010 513.776428,62.877296 513.920166,57.899925 
	C514.218201,47.575706 514.195496,37.232090 513.927551,26.906239 
	C513.805725,22.210886 515.623230,20.489845 520.089417,20.981529 
	C521.241882,21.108406 522.420471,20.996098 523.587097,20.996096 
	C683.579163,20.995888 843.571777,21.217976 1003.562683,20.787636 
	C1031.783203,20.711729 1046.869507,41.231438 1048.918579,62.239777 
	C1049.883667,72.133530 1049.688477,82.141136 1049.994507,92.097908 
	C1050.054932,94.064240 1050.003174,96.034019 1051.021851,98.374557 
	C1053.464966,94.002785 1055.957153,89.657539 1058.342896,85.254684 
	C1069.330322,64.977188 1080.213013,44.642105 1091.392090,24.471045 
	C1092.333496,22.772417 1095.170044,21.201004 1097.161377,21.156691 
	C1110.320801,20.863844 1123.490601,21.070826 1136.655518,20.955635 
	C1139.683838,20.929138 1141.476074,21.935316 1142.940186,24.679388 
	C1159.812256,56.300274 1176.776855,87.871880 1193.769409,119.428337 
	C1209.341309,148.346344 1224.977539,177.229813 1240.584839,206.128799 
	C1247.124146,218.237350 1253.671997,230.341354 1260.188232,242.462402 
	C1260.950439,243.880264 1261.534180,245.394058 1262.479614,247.478043 
	C1260.453857,247.696198 1259.059326,247.974014 1257.664429,247.976959 
	C1242.998535,248.007965 1228.331421,247.900146 1213.667358,248.063477 
	C1210.165527,248.102509 1208.376221,246.826294 1206.802002,243.721069 
	C1193.957397,218.381836 1180.934326,193.132874 1167.942383,167.868393 
	C1156.927979,146.449219 1145.910645,125.031448 1134.839600,103.641487 
	C1129.120361,92.591606 1123.281616,81.603592 1116.887451,69.427032 
	C1092.670044,116.395210 1068.864624,162.564346 1044.599731,209.624634 
	C1047.637817,209.790176 1049.553467,209.980209 1051.469482,209.984985 
	C1063.468872,210.014816 1075.472412,210.185089 1087.465576,209.911896 
	C1091.968628,209.809326 1093.199463,211.415924 1093.076538,215.691544 
	C1092.813110,224.850235 1092.863281,234.024292 1093.052246,243.186554 
	C1093.129150,246.925079 1091.714111,248.054810 1088.090454,248.046021 
	C1050.592529,247.955246 1013.094299,247.995407 975.596191,247.973038 
	C974.322266,247.972290 973.048523,247.696945 970.912659,247.449890 
	C985.863464,219.702194 1000.523987,192.493195 1015.654053,164.412720 
	C1012.907959,164.246567 1010.878357,164.017944 1008.848572,164.016663 
	C973.517029,163.994263 938.185425,164.004440 902.853882,163.995193 
	C896.030945,163.993408 896.014771,163.969360 896.005066,157.133194 
	C895.991211,147.300369 896.190125,137.462372 895.919495,127.637016 
	C895.799377,123.278030 897.178162,121.892471 901.591064,121.919304 
	C929.588623,122.089630 957.597290,121.578934 985.581543,122.210693 
	C996.692749,122.461533 1004.090149,111.955696 1004.006775,103.990639 
	C1003.929993,96.658485 1004.249695,89.312889 1003.911743,81.995522 
	C1003.609924,75.461685 1001.131653,69.693520 995.370178,66.019188 
	C993.648804,64.921455 991.396484,64.102577 989.384521,64.096481 
	C951.886719,63.982834 914.388184,64.092110 876.890869,63.917583 
	C871.638062,63.893135 871.982849,66.861244 871.984253,70.330513 
	C872.007385,126.327721 872.023926,182.324951 871.977783,238.322128 
	C871.968811,249.250320 873.252075,247.904236 862.454041,247.983124 
	C851.955139,248.059845 841.455200,248.008987 830.955750,247.995193 
	C824.021851,247.986084 824.004395,247.971100 824.003662,240.734711 
	C823.998291,186.070755 824.000244,131.406815 824.000000,76.742867 
	C823.999878,63.999733 824.000000,63.999737 811.022034,63.999859 
	C799.001160,63.999973 799.001221,63.999969 799.000854,76.198715 
	C799.000549,89.698044 799.204590,103.201248 798.948730,116.695732 
	C798.617798,134.146622 792.226868,148.914856 777.401917,158.758301 
	C772.942749,161.719086 766.929077,163.707794 761.600159,163.769119 
	C724.606873,164.194809 687.606201,163.931061 650.608643,164.080444 
	C646.226746,164.098129 644.798157,162.776596 644.916809,158.386795 
	C645.191345,148.228073 645.196167,138.051514 644.915405,127.893112 
	C644.789917,123.354408 646.216125,121.882477 650.832642,121.913719 
	C678.163391,122.098686 705.504089,121.603500 732.824707,122.159874 
	C747.868958,122.466240 752.502930,114.124184 753.707031,102.812759 
	C754.575745,94.652916 753.892151,86.179520 752.772888,78.000328 
	C751.762634,70.617508 745.699890,63.795036 736.198486,63.877106 
	C700.369629,64.186584 664.536499,63.998310 628.704956,64.002258 
	C621.017334,64.003105 621.003357,64.014389 621.002747,71.516327 
	C620.998230,127.846855 621.001587,184.177383 620.997009,240.507919 
	C620.996399,247.977371 620.981873,247.994141 613.770447,247.996033 
	C585.771851,248.003418 557.771423,247.835419 529.776184,248.143066 
	C524.437012,248.201767 521.588257,246.323730 519.354858,241.822113 
	C513.670471,230.364746 507.689301,219.054977 501.867798,207.665222 
	C492.566742,189.467789 483.364014,171.219818 474.001312,153.054230 
	C460.304840,126.480240 446.505737,99.959145 432.737854,73.422005 
	C432.299255,72.576599 431.723053,71.802589 430.470642,69.828125 
	C406.335449,116.706238 382.635071,162.739868 358.303894,209.998657 
	C361.803192,209.998657 363.739105,209.998169 365.675018,209.998764 
	C377.841064,210.002441 390.008514,210.110092 402.172363,209.947845 
	C405.892578,209.898224 407.117126,211.251083 407.048706,214.896484 
	C406.870514,224.392670 406.885071,233.896027 407.038605,243.393005 
	C407.094604,246.855499 405.826813,248.040115 402.382416,248.035355 
	C351.218414,247.965027 300.054199,247.946838 248.890396,248.066681 
	C244.682373,248.076538 243.946457,246.270340 243.957581,242.667908 
	C244.043060,215.002899 244.000671,187.337479 243.999130,159.672195 
	C243.998062,140.506485 243.998779,121.340775 243.998688,102.175064 
	C243.998672,100.425331 243.998688,98.675606 243.998688,96.925873 
	C243.576324,96.785049 243.153946,96.644218 242.731583,96.503395 
	C217.868835,133.219879 193.006088,169.936356 167.996124,206.981232 
z"/>
</svg>