<?xml version="1.0" encoding="UTF-8"?>
<svg version="1.1" xmlns="http://www.w3.org/2000/svg" width="1024" height="1024">
<path d="M0 0 C337.92 0 675.84 0 1024 0 C1024 337.92 1024 675.84 1024 1024 C686.08 1024 348.16 1024 0 1024 C0 686.08 0 348.16 0 0 Z " fill="#FDFDFD" transform="translate(0,0)"/>
<path d="M0 0 C0.24516357 0.57322998 0.49032715 1.14645996 0.74291992 1.73706055 C2.93179408 6.73215257 4.94669999 9.52289215 10 12 C13.73225344 12.79682803 13.73225344 12.79682803 17 13 C17.08912219 16.83225427 16.87867729 20.26562152 16 24 C16.99 24.66 17.98 25.32 19 26 C19 26.99 19 27.98 19 29 C18.34 29.33 17.68 29.66 17 30 C17 31.32 17 32.64 17 34 C17.99 34.33 18.98 34.66 20 35 C19.33333333 37.66666667 18.66666667 40.33333333 18 43 C18.99 43.66 19.98 44.32 21 45 C20.7834375 45.8353125 20.7834375 45.8353125 20.5625 46.6875 C19.97230872 49.11384195 19.476571 51.54906345 19 54 C20.32 54.33 21.64 54.66 23 55 C22.67 55.5775 22.34 56.155 22 56.75 C20.72924102 59.19883862 20.72924102 59.19883862 21 63 C21.99 63.33 22.98 63.66 24 64 C24 66.31 24 68.62 24 71 C22.948125 71.37125 21.89625 71.7425 20.8125 72.125 C16.68532638 73.92488302 14.45809963 76.16825647 12 80 C11.535786 82.07225472 11.535786 82.07225472 11.3671875 84.20703125 C11.24601563 85.45871094 11.12484375 86.71039062 11 88 C-9.27593914 91.59869714 -29.64785048 94.23017535 -50.07907104 96.74996948 C-53.44866075 97.16573202 -56.81810597 97.58265507 -60.1875 98 C-61.18076294 98.12275299 -61.18076294 98.12275299 -62.1940918 98.24798584 C-72.98051609 99.58394027 -83.74073394 101.07290308 -94.49707031 102.63183594 C-100.80558681 103.54566068 -107.11402854 104.44533076 -113.4375 105.25 C-114.61183594 105.39953125 -115.78617188 105.5490625 -116.99609375 105.703125 C-119.69099804 105.96946145 -122.29482149 106.0606769 -125 106 C-125.22042969 105.07767578 -125.22042969 105.07767578 -125.4453125 104.13671875 C-126.88858404 98.78985774 -126.88858404 98.78985774 -130.75 95 C-134.17493163 93.94617488 -137.43692823 93.35630718 -141 93 C-141.07654536 88.48382401 -141.10228696 84.40914783 -140 80 C-140.99 79.34 -141.98 78.68 -143 78 C-142.67 77.401875 -142.34 76.80375 -142 76.1875 C-140.79212012 73.94613529 -140.79212012 73.94613529 -141 71 C-141.99 70.34 -142.98 69.68 -144 69 C-143.835 68.4225 -143.67 67.845 -143.5 67.25 C-142.85537969 64.73335631 -142.85537969 64.73335631 -143 61 C-143.66 60.67 -144.32 60.34 -145 60 C-144.835 59.2575 -144.67 58.515 -144.5 57.75 C-143.88074304 54.80993422 -143.88074304 54.80993422 -144 51 C-144.99 50.34 -145.98 49.68 -147 49 C-147 48.01 -147 47.02 -147 46 C-146.01 45.505 -146.01 45.505 -145 45 C-145 43.68 -145 42.36 -145 41 C-145.99 40.67 -146.98 40.34 -148 40 C-148 38.02 -148 36.04 -148 34 C-147.46890625 33.79246094 -146.9378125 33.58492188 -146.390625 33.37109375 C-141.76265139 31.3526892 -139.10134848 29.53747498 -136.69140625 25.07421875 C-135.70094311 22.10282934 -135.38153131 19.10040492 -135 16 C-123.33611944 14.22012212 -111.67537163 12.70621928 -99.9375 11.5 C-91.18103485 10.59488743 -82.48180249 9.56026987 -73.78564453 8.1953125 C-61.22363988 6.23036277 -48.60880089 4.63180427 -36 3 C-34.80890625 2.84466797 -33.6178125 2.68933594 -32.390625 2.52929688 C-29.03225436 2.09444059 -25.67273397 1.6701886 -22.3125 1.25 C-21.32870361 1.12238281 -20.34490723 0.99476563 -19.33129883 0.86328125 C-12.85855508 0.07176669 -6.51841857 -0.14261764 0 0 Z " fill="#F16926" transform="translate(337,461)"/>
<path d="M0 0 C9.94915248 0.47947723 19.57156249 2.04759677 29.328125 4 C30.57368164 4.24814453 31.81923828 4.49628906 33.10253906 4.75195312 C41.57641898 6.50701758 49.84695129 8.72742974 58.140625 11.1875 C60.14056049 11.75022933 62.140551 12.31276319 64.140625 12.875 C74.64599782 16.11643474 85.56328399 20.13992758 95.26635742 25.32299805 C98.19077933 26.67188146 100.05782114 25.99507661 103.140625 25.1875 C105.94744092 24.07543427 108.66246162 22.79109879 111.390625 21.5 C132.80659235 11.73693458 155.98269398 5.7004061 179.140625 1.75 C180.08824707 1.58612793 181.03586914 1.42225586 182.01220703 1.25341797 C188.30289312 0.2549849 194.77992993 -0.53116319 201.140625 0.1875 C203.140625 2.1875 203.140625 2.1875 203.38672066 4.77620125 C203.38487707 5.88050924 203.38303349 6.98481724 203.38113403 8.12258911 C203.38525803 10.01989777 203.38525803 10.01989777 203.38946533 11.95553589 C203.38238656 13.36505221 203.37511694 14.77456758 203.36767578 16.18408203 C203.36711189 17.66219068 203.3674278 19.14029988 203.36856079 20.6184082 C203.36913617 24.63887146 203.35735208 28.65921612 203.34341288 32.67965174 C203.33093621 36.87837789 203.32973744 41.07710656 203.32736206 45.27584839 C203.32113826 53.23023435 203.3047153 61.18456553 203.28466308 69.13892734 C203.26233204 78.1932073 203.2513177 87.24748984 203.24127221 96.30179048 C203.22034983 114.93039141 203.18515641 133.5589413 203.140625 152.1875 C199.18309298 153.53259186 195.34034842 154.63996289 191.23828125 155.44921875 C160.93039307 161.58368109 130.87289119 170.46141784 104.09375 186.40625 C101.2526179 187.54270284 99.18197314 187.51201109 96.140625 187.1875 C93.1171875 185.7890625 93.1171875 185.7890625 89.765625 183.8125 C80.14932167 178.35652105 69.91868543 174.36221294 59.68286133 170.23071289 C57.64528346 169.39458783 55.62910514 168.50639338 53.62109375 167.6015625 C48.82769576 165.65407645 43.93366562 164.26233831 38.953125 162.875 C37.88118896 162.57376221 36.80925293 162.27252441 35.70483398 161.9621582 C25.88903381 159.26855287 15.98659205 157.1215715 6.00512695 155.14135742 C4.87550537 154.91295166 3.74588379 154.6845459 2.58203125 154.44921875 C1.57857666 154.25287842 0.57512207 154.05653809 -0.45874023 153.85424805 C-2.859375 153.1875 -2.859375 153.1875 -4.859375 151.1875 C-5.11105728 148.62000275 -5.11105728 148.62000275 -5.11334229 145.30383301 C-5.11898193 144.05026505 -5.12462158 142.79669708 -5.13043213 141.50514221 C-5.12654317 140.10824528 -5.12244681 138.71134891 -5.11816406 137.31445312 C-5.12087287 135.84943976 -5.12443318 134.38442775 -5.12878418 132.91941833 C-5.13792361 128.9339586 -5.13435757 124.94860209 -5.12802601 120.96314049 C-5.12297403 116.79870697 -5.12765522 112.63428248 -5.13079834 108.46984863 C-5.13444033 101.47548836 -5.12963279 94.48117028 -5.12011719 87.48681641 C-5.10923218 79.39224952 -5.11275759 71.29778338 -5.12377 63.20321894 C-5.13283625 56.26221938 -5.1341314 49.3212502 -5.12889266 42.38024664 C-5.1257693 38.23082165 -5.1253736 34.08144407 -5.13196564 29.93202209 C-5.13772888 26.03161448 -5.13376108 22.13133717 -5.12217712 18.23094368 C-5.11952504 16.79660827 -5.12030494 15.36226195 -5.12470245 13.92793083 C-5.13013752 11.97568011 -5.12212517 10.02340552 -5.11334229 8.07116699 C-5.11258823 6.97683098 -5.11183418 5.88249496 -5.11105728 4.75499725 C-4.74006443 0.97037195 -3.75615157 0.24630502 0 0 Z M4.140625 10.1875 C4.140625 54.7375 4.140625 99.2875 4.140625 145.1875 C19.980625 148.6525 19.980625 148.6525 36.140625 152.1875 C54.27900685 157.64962635 72.29326175 164.36475771 89.05786133 173.26513672 C91.21815619 174.38996244 91.21815619 174.38996244 94.140625 174.1875 C94.140625 162.3075 94.140625 150.4275 94.140625 138.1875 C99.090625 137.6925 99.090625 137.6925 104.140625 137.1875 C104.140625 149.7275 104.140625 162.2675 104.140625 175.1875 C108.471875 173.2075 108.471875 173.2075 112.890625 171.1875 C139.55893732 159.16297782 165.21401781 151.61563493 194.140625 145.1875 C194.140625 100.6375 194.140625 56.0875 194.140625 10.1875 C188.66396842 10.1875 184.82047114 10.25231501 179.68359375 11.32421875 C178.49838135 11.56897949 177.31316895 11.81374023 176.09204102 12.06591797 C174.84994873 12.33291504 173.60785645 12.59991211 172.328125 12.875 C171.68479218 13.01166077 171.04145935 13.14832153 170.37863159 13.28912354 C149.223256 17.78510406 128.32126409 23.06603228 108.828125 32.6875 C103.64950226 35.12923404 99.7993971 36.48874255 94.140625 35.1875 C92.35583134 34.33714141 90.59736737 33.43060852 88.859375 32.48828125 C81.55003954 28.74831108 73.98382699 26.16088291 66.203125 23.625 C65.11887741 23.26740601 65.11887741 23.26740601 64.01272583 22.90258789 C52.18802373 19.00976235 40.35055594 15.65754891 28.140625 13.1875 C27.38458984 13.02813965 26.62855469 12.8687793 25.84960938 12.70458984 C18.46278756 11.15207816 11.77144476 10.1875 4.140625 10.1875 Z " fill="#20436A" transform="translate(174.859375,426.8125)"/>
<path d="M0 0 C0.90105469 0.01804687 1.80210937 0.03609375 2.73046875 0.0546875 C3.41753906 0.07789063 4.10460937 0.10109375 4.8125 0.125 C4.8125 3.095 4.8125 6.065 4.8125 9.125 C3.4925 9.125 2.1725 9.125 0.8125 9.125 C0.8125 53.675 0.8125 98.225 0.8125 144.125 C4.4425 144.455 8.0725 144.785 11.8125 145.125 C14.23672423 145.49905957 16.6557726 145.90978374 19.06542969 146.3684082 C19.70618439 146.48892548 20.34693909 146.60944275 21.0071106 146.73361206 C23.0839085 147.12572374 25.15915181 147.5254262 27.234375 147.92578125 C28.70723768 148.20653746 30.18015968 148.48698259 31.65313721 148.76713562 C34.72646342 149.35293518 37.79902782 149.94254002 40.87109375 150.53491211 C44.76339735 151.28512338 48.65746107 152.02568795 52.55216599 152.76331806 C55.59198329 153.34020364 58.63076736 153.92239372 61.66928864 154.50606346 C63.1023626 154.78070406 64.53573783 155.05377849 65.96944427 155.32509804 C96.2675491 161.07105892 96.2675491 161.07105892 103.8125 170.125 C108.84376708 173.43094319 115.05895443 172.79945869 120.8125 172.125 C125.09346819 170.47532754 127.97301895 168.07280421 130.99780273 164.65771484 C134.23203779 161.74749241 136.42438484 161.02036386 140.62890625 160.01953125 C141.28363419 159.86007523 141.93836212 159.7006192 142.6129303 159.53633118 C144.67493943 159.04292431 146.7415936 158.57950252 148.8125 158.125 C150.08464355 157.84317871 151.35678711 157.56135742 152.66748047 157.27099609 C156.68850421 156.41490717 160.71598503 155.60444357 164.75 154.8125 C165.47842102 154.66803436 166.20684204 154.52356873 166.95733643 154.37472534 C179.83918346 151.82314539 192.75529272 149.46868267 205.6875 147.1875 C206.5621994 147.03211761 207.4368988 146.87673523 208.33810425 146.71664429 C210.82612159 146.27614622 213.31515036 145.84197259 215.8046875 145.41015625 C216.91178322 145.21382095 216.91178322 145.21382095 218.04124451 145.01351929 C221.74090415 144.38066747 225.02684886 144.125 228.8125 144.125 C228.8125 99.575 228.8125 55.025 228.8125 9.125 C227.4925 9.125 226.1725 9.125 224.8125 9.125 C224.8125 6.155 224.8125 3.185 224.8125 0.125 C226.41629341 0.07083812 228.02061406 0.03213362 229.625 0 C230.51832031 -0.02320313 231.41164063 -0.04640625 232.33203125 -0.0703125 C234.8125 0.125 234.8125 0.125 237.8125 2.125 C238.18723011 4.67687988 238.18723011 4.67687988 238.1867218 7.97070312 C238.19373611 9.21585693 238.20075043 10.46101074 238.20797729 11.74389648 C238.20054891 13.13134925 238.19281774 14.51880043 238.18481445 15.90625 C238.18724132 17.36141215 238.19095962 18.81657265 238.19587708 20.27172852 C238.20530421 24.23038437 238.19584551 28.18879377 238.18254495 32.14743042 C238.17125268 36.28383434 238.17533623 40.42022573 238.17729187 44.55664062 C238.17817555 51.50394736 238.16707899 58.45115665 238.14868164 65.3984375 C238.12751286 73.43847861 238.12400368 81.47837692 238.1302436 89.51844025 C238.135932 97.24237459 238.1302978 104.96625848 238.11907005 112.69018555 C238.1144171 115.98202443 238.11355321 119.27383254 238.1156559 122.56567383 C238.11753516 126.43982824 238.10946302 130.31383665 238.0935955 134.18795776 C238.08934141 135.61261389 238.08850962 137.0372848 238.09128571 138.46194458 C238.09449186 140.40106874 238.08422968 142.34020146 238.07319641 144.27929688 C238.07114354 145.36625854 238.06909067 146.45322021 238.06697559 147.57312012 C237.8125 150.125 237.8125 150.125 235.8125 152.125 C233.33071899 152.78070068 233.33071899 152.78070068 230.15478516 153.35839844 C228.96398346 153.57913025 227.77318176 153.79986206 226.54629517 154.02728271 C225.23138896 154.26300627 223.91647793 154.49870291 222.6015625 154.734375 C221.2364551 154.98538385 219.87149771 155.23720975 218.50668335 155.48980713 C214.88541124 156.15830641 211.26260869 156.81807888 207.63928223 157.4753418 C201.95296985 158.50749718 196.26831033 159.54865444 190.5847702 160.59596252 C189.17880742 160.85499463 187.77274533 161.11348835 186.36658478 161.3714447 C175.0515975 163.45114016 163.80561058 165.76515146 152.58486938 168.30950928 C151.51449432 168.54800598 150.44411926 168.78650269 149.34130859 169.03222656 C147.94989151 169.34960785 147.94989151 169.34960785 146.53036499 169.67340088 C143.58125612 170.16342337 140.79672223 170.20178331 137.8125 170.125 C137.54695312 170.72183594 137.28140625 171.31867188 137.0078125 171.93359375 C134.10672819 177.25224832 128.72281 180.81057625 123.04296875 182.65625 C114.59963495 184.43068092 106.27420425 183.36957678 98.83984375 178.953125 C96.29012181 177.19917615 94.14632393 175.51744572 92.13305664 173.15063477 C89.1757553 170.56917982 86.9151639 170.12747312 83.078125 169.3359375 C82.04880356 169.11874809 82.04880356 169.11874809 80.99868774 168.89717102 C78.68957702 168.41563466 76.37645915 167.95762514 74.0625 167.5 C72.42061016 167.16312743 70.77884925 166.82562599 69.13720703 166.48754883 C58.44783777 164.31501835 47.71952212 162.37561795 36.9765625 160.48828125 C35.71259644 160.26571655 34.44863037 160.04315186 33.1463623 159.81384277 C26.81849899 158.7026407 20.48834025 157.60823208 14.15332031 156.53857422 C11.8079122 156.13396588 9.46253323 155.72918856 7.1171875 155.32421875 C6.03337799 155.1463533 4.94956848 154.96848785 3.83291626 154.78523254 C2.83343964 154.6107811 1.83396301 154.43632965 0.80419922 154.2565918 C-0.06713654 154.10973434 -0.93847229 153.96287689 -1.83621216 153.81156921 C-4.63501852 152.99432589 -6.08989819 152.16203701 -8.1875 150.125 C-8.68807125 147.45007229 -8.68807125 147.45007229 -8.68870544 144.15904236 C-8.69853958 142.91251389 -8.70837372 141.66598541 -8.71850586 140.38168335 C-8.70913361 138.99786105 -8.69935429 137.61404146 -8.68920898 136.23022461 C-8.69299138 134.77491228 -8.69849078 133.31960355 -8.70558167 131.86430359 C-8.7195629 127.90977501 -8.70834867 123.9556802 -8.69187045 120.00117564 C-8.67804022 115.86744373 -8.68447761 111.73373752 -8.68800354 107.59999084 C-8.69070698 100.65863028 -8.67721766 93.7174425 -8.65405273 86.77612305 C-8.62743161 78.74339916 -8.62569867 70.71096404 -8.6374411 62.67821115 C-8.64820772 54.95906171 -8.6420413 47.24001704 -8.62788582 39.52087593 C-8.62211734 36.23181249 -8.6222154 32.9428255 -8.62695122 29.65376091 C-8.63171197 25.78363088 -8.62165727 21.91381843 -8.59999657 18.04374886 C-8.59441651 16.62070919 -8.59397453 15.19763908 -8.59894943 13.77459717 C-8.60487318 11.83771563 -8.59060455 9.90080318 -8.57518005 7.963974 C-8.57275016 6.87831115 -8.57032026 5.7926483 -8.56781673 4.67408657 C-8.44231221 3.832888 -8.31680769 2.99168943 -8.1875 2.125 C-4.87379 -0.08414 -3.8428979 -0.09981553 0 0 Z " fill="#1E4267" transform="translate(159.1875,445.875)"/>
<path d="M0 0 C0.24516357 0.57322998 0.49032715 1.14645996 0.74291992 1.73706055 C2.93179408 6.73215257 4.94669999 9.52289215 10 12 C13.73225344 12.79682803 13.73225344 12.79682803 17 13 C17.08912219 16.83225427 16.87867729 20.26562152 16 24 C16.99 24.66 17.98 25.32 19 26 C19 26.99 19 27.98 19 29 C18.34 29.33 17.68 29.66 17 30 C17 31.32 17 32.64 17 34 C17.99 34.33 18.98 34.66 20 35 C19.33333333 37.66666667 18.66666667 40.33333333 18 43 C18.99 43.66 19.98 44.32 21 45 C20.7834375 45.8353125 20.7834375 45.8353125 20.5625 46.6875 C19.97230872 49.11384195 19.476571 51.54906345 19 54 C20.32 54.33 21.64 54.66 23 55 C22.67 55.5775 22.34 56.155 22 56.75 C20.72924102 59.19883862 20.72924102 59.19883862 21 63 C21.99 63.33 22.98 63.66 24 64 C24 66.31 24 68.62 24 71 C22.948125 71.37125 21.89625 71.7425 20.8125 72.125 C16.68532638 73.92488302 14.45809963 76.16825647 12 80 C11.535786 82.07225472 11.535786 82.07225472 11.3671875 84.20703125 C11.24601563 85.45871094 11.12484375 86.71039062 11 88 C-9.27593914 91.59869714 -29.64785048 94.23017535 -50.07907104 96.74996948 C-53.44866075 97.16573202 -56.81810597 97.58265507 -60.1875 98 C-61.18076294 98.12275299 -61.18076294 98.12275299 -62.1940918 98.24798584 C-72.98051609 99.58394027 -83.74073394 101.07290308 -94.49707031 102.63183594 C-100.80558681 103.54566068 -107.11402854 104.44533076 -113.4375 105.25 C-114.61183594 105.39953125 -115.78617188 105.5490625 -116.99609375 105.703125 C-119.69099804 105.96946145 -122.29482149 106.0606769 -125 106 C-125.22042969 105.07767578 -125.22042969 105.07767578 -125.4453125 104.13671875 C-126.88858404 98.78985774 -126.88858404 98.78985774 -130.75 95 C-134.17493163 93.94617488 -137.43692823 93.35630718 -141 93 C-141.07654536 88.48382401 -141.10228696 84.40914783 -140 80 C-140.99 79.34 -141.98 78.68 -143 78 C-142.67 77.401875 -142.34 76.80375 -142 76.1875 C-140.79212012 73.94613529 -140.79212012 73.94613529 -141 71 C-141.99 70.34 -142.98 69.68 -144 69 C-143.835 68.4225 -143.67 67.845 -143.5 67.25 C-142.85537969 64.73335631 -142.85537969 64.73335631 -143 61 C-143.66 60.67 -144.32 60.34 -145 60 C-144.835 59.2575 -144.67 58.515 -144.5 57.75 C-143.88074304 54.80993422 -143.88074304 54.80993422 -144 51 C-144.99 50.34 -145.98 49.68 -147 49 C-147 48.01 -147 47.02 -147 46 C-146.01 45.505 -146.01 45.505 -145 45 C-145 43.68 -145 42.36 -145 41 C-145.99 40.67 -146.98 40.34 -148 40 C-148 38.02 -148 36.04 -148 34 C-147.46890625 33.79246094 -146.9378125 33.58492188 -146.390625 33.37109375 C-141.76265139 31.3526892 -139.10134848 29.53747498 -136.69140625 25.07421875 C-135.70094311 22.10282934 -135.38153131 19.10040492 -135 16 C-123.33611944 14.22012212 -111.67537163 12.70621928 -99.9375 11.5 C-91.18103485 10.59488743 -82.48180249 9.56026987 -73.78564453 8.1953125 C-61.22363988 6.23036277 -48.60880089 4.63180427 -36 3 C-34.80890625 2.84466797 -33.6178125 2.68933594 -32.390625 2.52929688 C-29.03225436 2.09444059 -25.67273397 1.6701886 -22.3125 1.25 C-21.32870361 1.12238281 -20.34490723 0.99476563 -19.33129883 0.86328125 C-12.85855508 0.07176669 -6.51841857 -0.14261764 0 0 Z M-15.50048828 7.75195312 C-16.60190155 7.91441528 -17.70331482 8.07687744 -18.83810425 8.2442627 C-20.02848297 8.42146851 -21.21886169 8.59867432 -22.4453125 8.78125 C-36.00435843 10.75870464 -49.58604311 12.46139145 -63.1940918 14.06561279 C-69.49236681 14.80887775 -75.78915137 15.56455303 -82.0859375 16.3203125 C-83.30283264 16.46626862 -84.51972778 16.61222473 -85.77349854 16.76260376 C-95.35596685 17.91517453 -104.93193038 19.10847728 -114.5 20.375 C-116.28446533 20.60799805 -116.28446533 20.60799805 -118.10498047 20.84570312 C-119.15314941 20.98685547 -120.20131836 21.12800781 -121.28125 21.2734375 C-122.15845703 21.39122559 -123.03566406 21.50901367 -123.93945312 21.63037109 C-126.05475163 21.90976651 -126.05475163 21.90976651 -128 23 C-129.02444941 25.74677701 -129.85931785 28.52996913 -130.70703125 31.3359375 C-132.26897544 34.55420317 -133.83160398 35.46031664 -137 37 C-136.68672466 40.66861907 -136.34648252 44.33437244 -136 48 C-135.93554688 48.68626465 -135.87109375 49.3725293 -135.8046875 50.07958984 C-135.34806281 54.87097804 -134.83567604 59.65335474 -134.28271484 64.43457031 C-134.0918494 66.16653412 -133.91809477 67.90045705 -133.76025391 69.63574219 C-133.350416 79.65721064 -133.350416 79.65721064 -128.91015625 88.08984375 C-126.57023757 89.37163325 -126.57023757 89.37163325 -124.15625 89.98828125 C-120.98653777 91.47551942 -120.4351687 93.91279609 -119 97 C-106.40602323 96.38885964 -93.95297365 95.05878522 -81.4375 93.5625 C-79.56579852 93.34272979 -77.69405383 93.12332725 -75.82226562 92.90429688 C-65.53527806 91.69486929 -55.26091516 90.41562803 -45 89 C-43.81396683 88.83686813 -43.81396683 88.83686813 -42.60397339 88.67044067 C-37.17076038 87.92207466 -31.73915551 87.1628698 -26.30859375 86.39550781 C-24.42215247 86.12985805 -22.53542759 85.86621513 -20.6484375 85.60449219 C-17.87951907 85.22023801 -15.11157481 84.8295446 -12.34375 84.4375 C-11.50823608 84.322854 -10.67272217 84.20820801 -9.81188965 84.09008789 C-5.06155107 83.40915528 -0.54163779 82.57637489 4 81 C5.25305387 79.00830397 5.25305387 79.00830397 5.5625 76.625 C6.45408408 73.12073601 7.10876886 71.42077564 10.1875 69.4375 C11.115625 68.963125 12.04375 68.48875 13 68 C12.25207565 60.27144836 11.40581276 52.55576177 10.5390625 44.83984375 C10.1692085 41.54141855 9.81104703 38.2419843 9.4609375 34.94140625 C9.37320068 34.12414062 9.28546387 33.306875 9.19506836 32.46484375 C9.02659686 30.89350772 8.8606408 29.32189944 8.69750977 27.75 C8.3656622 24.68014888 7.9798993 21.93969791 7 19 C5.21050372 17.76468833 5.21050372 17.76468833 3.0625 16.8125 C1.99708984 16.29623047 1.99708984 16.29623047 0.91015625 15.76953125 C-0.96596296 14.87544038 -0.96596296 14.87544038 -3 15 C-4.07525194 12.34771188 -5.09456151 9.71631546 -6 7 C-9.33077761 7 -12.22583667 7.26057318 -15.50048828 7.75195312 Z " fill="#F16D2D" transform="translate(337,461)"/>
<path d="M0 0 C3 5.75 3 5.75 3 8 C3.721875 8.28875 4.44375 8.5775 5.1875 8.875 C6.5796875 9.431875 6.5796875 9.431875 8 10 C8.9075 10.309375 9.815 10.61875 10.75 10.9375 C11.86375 11.4634375 11.86375 11.4634375 13 12 C14.18603997 15.55811991 14.49961765 19.04159216 14.875 22.75 C15.77340064 31.28657804 16.86621603 39.79028915 18.03466797 48.29394531 C18.15986816 49.22432617 18.28506836 50.15470703 18.4140625 51.11328125 C18.5270166 51.93610596 18.6399707 52.75893066 18.75634766 53.60668945 C19.01354768 56.13307407 19.2296738 58.46632682 19 61 C18.0925 61.556875 17.185 62.11375 16.25 62.6875 C12.5173199 65.34344545 12.68337792 65.78291398 11.7421875 69.9609375 C10.7109375 72.66772461 10.7109375 72.66772461 9 75 C4.11842202 77.01739495 -0.917481 77.42360579 -6.125 77.9375 C-7.62062453 78.11941134 -9.11574757 78.30549132 -10.61035156 78.49560547 C-14.36702753 78.96283711 -18.12728101 79.3771392 -21.89196777 79.77398682 C-25.00670188 80.10793378 -28.11636296 80.48191198 -31.2265625 80.85546875 C-35.51875852 81.36615854 -39.81258381 81.85385007 -44.109375 82.32421875 C-49.42513247 82.91705097 -54.71044448 83.64745708 -60 84.4375 C-68.8191804 85.74303176 -77.65815567 86.85501618 -86.51000977 87.91213989 C-88.02941019 88.09384849 -89.54862174 88.27714436 -91.06762695 88.46212769 C-93.21770198 88.72321926 -95.36845713 88.97775585 -97.51953125 89.23046875 C-99.39282104 89.45319458 -99.39282104 89.45319458 -101.30395508 89.68041992 C-105.23820472 90.02059647 -109.05363844 90.05373096 -113 90 C-113.78125 88.30729167 -114.5625 86.61458333 -115.34375 84.921875 C-117.23599804 82.72615322 -118.32917369 82.50790193 -121.0078125 81.5625 C-123.94190299 80.17884751 -124.81471483 79.48298033 -125.99316406 76.41113281 C-126.63129455 73.02494122 -127.04175725 69.67966201 -127.375 66.25 C-127.52163086 65.03675049 -127.66826172 63.82350098 -127.81933594 62.57348633 C-128.10864582 60.15639571 -128.38306475 57.73747008 -128.64160156 55.31689453 C-128.94665871 52.49366133 -129.29300136 49.68403462 -129.6796875 46.87109375 C-130.17434648 43.25112609 -130.65566036 39.6382201 -131 36 C-131.11859375 34.93394531 -131.2371875 33.86789062 -131.359375 32.76953125 C-131.24078125 31.85558594 -131.1221875 30.94164062 -131 30 C-129.36209288 28.95355934 -127.69268319 27.95530174 -126 27 C-124.88224482 24.19309986 -124.25023608 21.43853353 -123.578125 18.49609375 C-122 16 -122 16 -118.453125 14.80078125 C-116.64079291 14.49950718 -114.82164249 14.23860491 -113 14 C-111.78086914 13.82976318 -110.56173828 13.65952637 -109.30566406 13.48413086 C-104.70919397 12.86091028 -100.10494059 12.30644424 -95.5 11.75 C-93.7561336 11.53573613 -92.01231968 11.32104469 -90.26855469 11.10595703 C-81.32246372 10.00494139 -72.37394027 8.92389564 -63.42578125 7.83984375 C-59.09304027 7.31450541 -54.76051326 6.78741208 -50.42797852 6.26037598 C-47.33705218 5.88555634 -44.24570595 5.51436859 -41.15429688 5.14355469 C-30.83483841 3.8966696 -20.54560916 2.551038 -10.27886963 0.92037964 C-6.79173697 0.37395412 -3.5395877 0 0 0 Z M-34.1875 6.875 C-35.17121582 7.01035156 -35.17121582 7.01035156 -36.17480469 7.1484375 C-40.04800708 7.69072349 -43.89940928 8.31761683 -47.75 9 C-53.8074095 10.04776813 -59.88889904 10.6391718 -66.00195312 11.25 C-71.37911473 11.79842764 -76.67781816 12.53963791 -82 13.4921875 C-87.97376929 14.50337241 -93.99138001 15.22840126 -100 16 C-100 17.32 -100 18.64 -100 20 C-100.99 20.495 -100.99 20.495 -102 21 C-101.67 21.66 -101.34 22.32 -101 23 C-100.34 23 -99.68 23 -99 23 C-99 25.31 -99 27.62 -99 30 C-99.66 30 -100.32 30 -101 30 C-101.144375 28.96875 -101.28875 27.9375 -101.4375 26.875 C-101.91660457 23.57450187 -102.43875083 20.28731659 -103 17 C-105.46551321 16.956147 -107.92473735 16.94131022 -110.390625 16.97265625 C-112.38557272 16.99356139 -114.3813097 16.94884038 -116.375 16.875 C-119.15594563 17.73204103 -119.15594563 17.73204103 -120.07421875 20.15234375 C-120.72351596 21.9000568 -121.31700563 23.66971547 -121.84765625 25.45703125 C-123 28 -123 28 -125.68359375 29.60546875 C-128.23000418 31.72626572 -128.23000418 31.72626572 -128.17211914 34.33129883 C-127.91560796 37.41984292 -127.49240648 40.44009438 -127 43.5 C-126.83846436 44.60827148 -126.67692871 45.71654297 -126.51049805 46.85839844 C-126.17715229 49.13552689 -125.83424434 51.41127545 -125.48193359 53.68554688 C-125.03454725 56.76240452 -124.69167111 59.8274132 -124.39453125 62.921875 C-124.20057318 64.69792238 -124.00656569 66.47396437 -123.8125 68.25 C-123.74869141 69.06404297 -123.68488281 69.87808594 -123.61914062 70.71679688 C-123.06234837 75.17595284 -123.06234837 75.17595284 -120.20849609 78.47460938 C-118.11494519 79.75406388 -118.11494519 79.75406388 -115.97924805 80.72558594 C-114 82 -114 82 -111 87 C-102.585 86.505 -102.585 86.505 -94 86 C-94 84.02 -94 82.04 -94 80 C-93.01 80 -92.02 80 -91 80 C-91 81.65 -91 83.3 -91 85 C-90.39865234 84.92483154 -89.79730469 84.84966309 -89.17773438 84.7722168 C-82.90234375 83.98779297 -76.62695312 83.20336914 -70.3515625 82.41894531 C-69.24554688 82.28069336 -68.13953125 82.14244141 -67 82 C-65.0625 81.7578125 -63.125 81.515625 -61.1875 81.2734375 C-60.25035156 81.15629395 -59.31320312 81.03915039 -58.34765625 80.91845703 C-52.55664062 80.19458008 -46.765625 79.47070312 -40.97460938 78.74682617 C-40.26626953 78.65828369 -39.55792969 78.56974121 -38.828125 78.47851562 C-35.11971029 78.01496379 -31.41129557 77.55141195 -27.70288086 77.08786011 C-26.97593018 76.99699127 -26.24897949 76.90612244 -25.5 76.8125 C-23.32910156 76.5411377 -23.32910156 76.5411377 -21.15820312 76.26977539 C-20.1447583 76.14309479 -20.1447583 76.14309479 -19.11083984 76.01385498 C-17.2594401 75.78243001 -15.40804036 75.55100505 -13.55664062 75.31958008 C-12.71294922 75.21411865 -11.86925781 75.10865723 -11 75 C-11 73.35 -11 71.7 -11 70 C-10.34 70 -9.68 70 -9 70 C-8.67 71.32 -8.34 72.64 -8 74 C-6.24967156 73.85816304 -4.49974466 73.71136571 -2.75 73.5625 C-1.77546875 73.48128906 -0.8009375 73.40007812 0.203125 73.31640625 C1.12609375 73.21199219 2.0490625 73.10757813 3 73 C4.11375 72.89171875 4.11375 72.89171875 5.25 72.78125 C7.24950186 72.11961469 7.24950186 72.11961469 8.046875 69.71484375 C8.27890625 68.79832031 8.5109375 67.88179687 8.75 66.9375 C9.11351562 65.55884766 9.11351562 65.55884766 9.484375 64.15234375 C9.65453125 63.44207031 9.8246875 62.73179687 10 62 C7.20865148 61.80574127 4.41716313 61.61930483 1.625 61.4375 C0.8309375 61.38142578 0.036875 61.32535156 -0.78125 61.26757812 C-5.01590885 60.84647196 -5.01590885 60.84647196 -9 62 C-9 63.32 -9 64.64 -9 66 C-9.99 66 -10.98 66 -12 66 C-11.67 62.37 -11.34 58.74 -11 55 C-11.66 54.67 -12.32 54.34 -13 54 C-13.4140625 51.93359375 -13.4140625 51.93359375 -13.625 49.4375 C-13.69976562 48.61121094 -13.77453125 47.78492188 -13.8515625 46.93359375 C-13.90054688 46.29550781 -13.94953125 45.65742187 -14 45 C-13.34 44.67 -12.68 44.34 -12 44 C-12.99 44 -13.98 44 -15 44 C-14.67 40.37 -14.34 36.74 -14 33 C-14.66 32.67 -15.32 32.34 -16 32 C-16.40729228 29.67843403 -16.74438677 27.3431213 -17 25 C-16.01 24.505 -16.01 24.505 -15 24 C-15.66 23.67 -16.32 23.34 -17 23 C-17.6328125 20.93359375 -17.6328125 20.93359375 -18.125 18.4375 C-18.29257812 17.61121094 -18.46015625 16.78492188 -18.6328125 15.93359375 C-18.75398438 15.29550781 -18.87515625 14.65742188 -19 14 C-18.01 13.67 -17.02 13.34 -16 13 C-16 12.01 -16 11.02 -16 10 C-16.99 9.67 -17.98 9.34 -19 9 C-19.495 7.515 -19.495 7.515 -20 6 C-24.8256832 5.91349608 -29.40884057 6.20916321 -34.1875 6.875 Z " fill="#F16F31" transform="translate(331,468)"/>
<path d="M0 0 C5.97368551 3.07373273 10.01086229 7.73745928 12.625 13.875 C14.22480199 24.18483506 12.73689318 32.32142668 7.5 41.4375 C1.20939618 47.04803854 -5.43978336 48.17276138 -13.72265625 47.8828125 C-19.58130731 47.15696193 -23.70286116 45.02149781 -27.625 40.625 C-31.53170241 35.04399656 -33.37801812 30.59500536 -33.3125 23.75 C-33.30605469 23.04697754 -33.29960938 22.34395508 -33.29296875 21.61962891 C-33.04045461 14.38144409 -31.16663818 8.67794804 -25.8046875 3.59765625 C-18.24585406 -2.32947329 -9.08498124 -3.54955377 0 0 Z " fill="#20456D" transform="translate(612.8125,478.5)"/>
<path d="M0 0 C1.54172526 0.01591752 3.0834364 0.03508088 4.625 0.0625 C4.96372513 1.47788717 5.29574624 2.89487963 5.625 4.3125 C5.810625 5.10140625 5.99625 5.8903125 6.1875 6.703125 C6.625 9.0625 6.625 9.0625 6.625 13.0625 C7.285 13.0625 7.945 13.0625 8.625 13.0625 C8.955 12.0725 9.285 11.0825 9.625 10.0625 C9.295 12.0425 8.965 14.0225 8.625 16.0625 C9.285 16.3925 9.945 16.7225 10.625 17.0625 C10.65212066 18.49989513 10.67145067 19.93743863 10.6875 21.375 C10.69910156 22.17550781 10.71070313 22.97601563 10.72265625 23.80078125 C10.625 26.0625 10.625 26.0625 9.625 29.0625 C10.285 29.0625 10.945 29.0625 11.625 29.0625 C12.75 36.6875 12.75 36.6875 11.625 40.0625 C12.285 40.0625 12.945 40.0625 13.625 40.0625 C13.75 47.6875 13.75 47.6875 12.625 51.0625 C13.285 51.0625 13.945 51.0625 14.625 51.0625 C14.79373478 52.49975871 14.95990737 53.93731838 15.125 55.375 C15.2178125 56.17550781 15.310625 56.97601562 15.40625 57.80078125 C15.625 60.0625 15.625 60.0625 15.625 63.0625 C14.965 63.0625 14.305 63.0625 13.625 63.0625 C13.625 65.0425 13.625 67.0225 13.625 69.0625 C-1.86321851 71.09458159 -1.86321851 71.09458159 -5.40625 68.67578125 C-6.5625 66.8125 -6.5625 66.8125 -7.29296875 64.921875 C-8.31311711 62.72867741 -8.31311711 62.72867741 -11.3828125 61.8671875 C-14.375 60.0625 -14.375 60.0625 -15.51171875 56.2734375 C-15.72445476 54.66504486 -15.90590328 53.05232537 -16.0625 51.4375 C-16.16498047 50.57318359 -16.26746094 49.70886719 -16.37304688 48.81835938 C-16.59616333 46.92788164 -16.80906472 45.03617787 -17.01318359 43.14355469 C-17.39936562 39.85501411 -17.88842944 36.59244996 -18.39453125 33.3203125 C-18.72233534 31.06785091 -19.04917301 28.81524844 -19.375 26.5625 C-19.63543091 24.94287354 -19.63543091 24.94287354 -19.90112305 23.29052734 C-20.27841899 20.47323506 -20.58432176 17.89769649 -20.375 15.0625 C-18.05859375 12.66796875 -18.05859375 12.66796875 -15.375 11.0625 C-14.16532325 8.5468193 -14.16532325 8.5468193 -13.4375 5.875 C-12.44921875 3.21484375 -12.44921875 3.21484375 -11.375 1.0625 C-7.71118664 -0.50770573 -3.95790367 0.05031233 0 0 Z " fill="#F06C2C" transform="translate(223.375,484.9375)"/>
<path d="M0 0 C6.435 -0.1546875 6.435 -0.1546875 13 -0.3125 C14.33675781 -0.35802002 15.67351562 -0.40354004 17.05078125 -0.45043945 C24.23016398 -0.53373319 29.62032655 -0.09315522 35 5 C37.46783882 8.70175823 37.80696761 11.70661895 37 16 C35.56910941 18.65238257 33.94597892 20.6648253 32 23 C32.61875 23.268125 33.2375 23.53625 33.875 23.8125 C36 25 36 25 38 28 C38.56584376 32.74720866 38.51946993 37.37232756 37.0625 41.9375 C32.14029385 46.85970615 26.25287365 48.25279736 19.43359375 48.390625 C17.10120046 48.36807398 14.76905217 48.31656949 12.4375 48.25 C8.333125 48.1675 4.22875 48.085 0 48 C0 32.16 0 16.32 0 0 Z " fill="#20446B" transform="translate(417,478)"/>
<path d="M0 0 C3 5.75 3 5.75 3 8 C3.721875 8.28875 4.44375 8.5775 5.1875 8.875 C6.5796875 9.431875 6.5796875 9.431875 8 10 C8.9075 10.309375 9.815 10.61875 10.75 10.9375 C11.86375 11.4634375 11.86375 11.4634375 13 12 C14.18603997 15.55811991 14.49961765 19.04159216 14.875 22.75 C15.77340064 31.28657804 16.86621603 39.79028915 18.03466797 48.29394531 C18.15986816 49.22432617 18.28506836 50.15470703 18.4140625 51.11328125 C18.5270166 51.93610596 18.6399707 52.75893066 18.75634766 53.60668945 C19.01354768 56.13307407 19.2296738 58.46632682 19 61 C18.0925 61.556875 17.185 62.11375 16.25 62.6875 C12.5173199 65.34344545 12.68337792 65.78291398 11.7421875 69.9609375 C10.7109375 72.66772461 10.7109375 72.66772461 9 75 C4.11842202 77.01739495 -0.917481 77.42360579 -6.125 77.9375 C-7.62062453 78.11941134 -9.11574757 78.30549132 -10.61035156 78.49560547 C-14.36702753 78.96283711 -18.12728101 79.3771392 -21.89196777 79.77398682 C-25.00670188 80.10793378 -28.11636296 80.48191198 -31.2265625 80.85546875 C-35.51875852 81.36615854 -39.81258381 81.85385007 -44.109375 82.32421875 C-49.42513247 82.91705097 -54.71044448 83.64745708 -60 84.4375 C-68.8191804 85.74303176 -77.65815567 86.85501618 -86.51000977 87.91213989 C-88.02941019 88.09384849 -89.54862174 88.27714436 -91.06762695 88.46212769 C-93.21770198 88.72321926 -95.36845713 88.97775585 -97.51953125 89.23046875 C-99.39282104 89.45319458 -99.39282104 89.45319458 -101.30395508 89.68041992 C-105.23820472 90.02059647 -109.05363844 90.05373096 -113 90 C-113.78125 88.30729167 -114.5625 86.61458333 -115.34375 84.921875 C-117.23599804 82.72615322 -118.32917369 82.50790193 -121.0078125 81.5625 C-123.94190299 80.17884751 -124.81471483 79.48298033 -125.99316406 76.41113281 C-126.63129455 73.02494122 -127.04175725 69.67966201 -127.375 66.25 C-127.52163086 65.03675049 -127.66826172 63.82350098 -127.81933594 62.57348633 C-128.10864582 60.15639571 -128.38306475 57.73747008 -128.64160156 55.31689453 C-128.94665871 52.49366133 -129.29300136 49.68403462 -129.6796875 46.87109375 C-130.17434648 43.25112609 -130.65566036 39.6382201 -131 36 C-131.11859375 34.93394531 -131.2371875 33.86789062 -131.359375 32.76953125 C-131.24078125 31.85558594 -131.1221875 30.94164062 -131 30 C-129.36209288 28.95355934 -127.69268319 27.95530174 -126 27 C-124.88224482 24.19309986 -124.25023608 21.43853353 -123.578125 18.49609375 C-122 16 -122 16 -118.453125 14.80078125 C-116.64079291 14.49950718 -114.82164249 14.23860491 -113 14 C-111.78086914 13.82976318 -110.56173828 13.65952637 -109.30566406 13.48413086 C-104.70919397 12.86091028 -100.10494059 12.30644424 -95.5 11.75 C-93.7561336 11.53573613 -92.01231968 11.32104469 -90.26855469 11.10595703 C-81.32246372 10.00494139 -72.37394027 8.92389564 -63.42578125 7.83984375 C-59.09304027 7.31450541 -54.76051326 6.78741208 -50.42797852 6.26037598 C-47.33705218 5.88555634 -44.24570595 5.51436859 -41.15429688 5.14355469 C-30.83483841 3.8966696 -20.54560916 2.551038 -10.27886963 0.92037964 C-6.79173697 0.37395412 -3.5395877 0 0 0 Z M-11.23046875 4.24609375 C-13.15728622 4.46776302 -15.07929864 4.73042788 -17 5 C-17 6.65 -17 8.3 -17 10 C-19 9 -19 9 -20 6 C-24.8256832 5.91349608 -29.40884057 6.20916321 -34.1875 6.875 C-35.17121582 7.01035156 -35.17121582 7.01035156 -36.17480469 7.1484375 C-40.04800708 7.69072349 -43.89940928 8.31761683 -47.75 9 C-53.8074095 10.04776813 -59.88889904 10.6391718 -66.00195312 11.25 C-71.37911473 11.79842764 -76.67781816 12.53963791 -82 13.4921875 C-87.97376929 14.50337241 -93.99138001 15.22840126 -100 16 C-100 17.32 -100 18.64 -100 20 C-100.66 20.33 -101.32 20.66 -102 21 C-101.67 21.66 -101.34 22.32 -101 23 C-100.34 23 -99.68 23 -99 23 C-99 25.31 -99 27.62 -99 30 C-99.66 30 -100.32 30 -101 30 C-101.144375 28.96875 -101.28875 27.9375 -101.4375 26.875 C-101.91660457 23.57450187 -102.43875083 20.28731659 -103 17 C-105.46551321 16.956147 -107.92473735 16.94131022 -110.390625 16.97265625 C-112.38557272 16.99356139 -114.3813097 16.94884038 -116.375 16.875 C-119.15594563 17.73204103 -119.15594563 17.73204103 -120.07421875 20.15234375 C-120.72351596 21.9000568 -121.31700563 23.66971547 -121.84765625 25.45703125 C-123 28 -123 28 -125.68359375 29.60546875 C-128.23000418 31.72626572 -128.23000418 31.72626572 -128.17211914 34.33129883 C-127.91560796 37.41984292 -127.49240648 40.44009438 -127 43.5 C-126.83846436 44.60827148 -126.67692871 45.71654297 -126.51049805 46.85839844 C-126.17715229 49.13552689 -125.83424434 51.41127545 -125.48193359 53.68554688 C-125.03454725 56.76240452 -124.69167111 59.8274132 -124.39453125 62.921875 C-124.20057318 64.69792238 -124.00656569 66.47396437 -123.8125 68.25 C-123.74869141 69.06404297 -123.68488281 69.87808594 -123.61914062 70.71679688 C-123.06234837 75.17595284 -123.06234837 75.17595284 -120.20849609 78.47460938 C-118.11494519 79.75406388 -118.11494519 79.75406388 -115.97924805 80.72558594 C-114 82 -114 82 -111 87 C-102.585 86.505 -102.585 86.505 -94 86 C-94 84.02 -94 82.04 -94 80 C-93.01 80 -92.02 80 -91 80 C-91 81.65 -91 83.3 -91 85 C-90.39865234 84.92483154 -89.79730469 84.84966309 -89.17773438 84.7722168 C-82.90234375 83.98779297 -76.62695312 83.20336914 -70.3515625 82.41894531 C-69.24554688 82.28069336 -68.13953125 82.14244141 -67 82 C-65.0625 81.7578125 -63.125 81.515625 -61.1875 81.2734375 C-60.25035156 81.15629395 -59.31320312 81.03915039 -58.34765625 80.91845703 C-52.55664062 80.19458008 -46.765625 79.47070312 -40.97460938 78.74682617 C-40.26626953 78.65828369 -39.55792969 78.56974121 -38.828125 78.47851562 C-35.11971029 78.01496379 -31.41129557 77.55141195 -27.70288086 77.08786011 C-26.97593018 76.99699127 -26.24897949 76.90612244 -25.5 76.8125 C-23.32910156 76.5411377 -23.32910156 76.5411377 -21.15820312 76.26977539 C-20.1447583 76.14309479 -20.1447583 76.14309479 -19.11083984 76.01385498 C-17.2594401 75.78243001 -15.40804036 75.55100505 -13.55664062 75.31958008 C-12.71294922 75.21411865 -11.86925781 75.10865723 -11 75 C-11 73.35 -11 71.7 -11 70 C-10.34 70 -9.68 70 -9 70 C-8.67 71.32 -8.34 72.64 -8 74 C-6.24967156 73.85816304 -4.49974466 73.71136571 -2.75 73.5625 C-1.77546875 73.48128906 -0.8009375 73.40007812 0.203125 73.31640625 C3.6836373 72.97764107 3.6836373 72.97764107 7 72 C8.33129405 68.56433465 8.33129405 68.56433465 8.8984375 66.203125 C10 64 10 64 13.12890625 61.69140625 C16.36074596 59.26957431 16.36074596 59.26957431 16.25390625 55.63671875 C16.05575101 54.3150623 15.82266943 52.99835969 15.5625 51.6875 C15.32402769 50.18773666 15.08714719 48.68771964 14.8515625 47.1875 C14.71266602 46.36894531 14.57376953 45.55039062 14.43066406 44.70703125 C13.61099611 39.55483271 13.0523401 34.36738149 12.4375 29.1875 C12.18974431 27.13889091 11.93865642 25.09068092 11.68359375 23.04296875 C11.57587646 22.16664795 11.46815918 21.29032715 11.35717773 20.38745117 C11.02835915 18.18955851 10.68157598 16.11583609 10 14 C8.28419611 12.86877029 8.28419611 12.86877029 6.1875 12.125 C2.74557379 10.59932349 2.07238955 10.11406838 -0.0625 6.75 C-0.701875 5.8425 -1.34125 4.935 -2 4 C-5.24637846 3.56298752 -7.99741988 3.88938258 -11.23046875 4.24609375 Z " fill="#F4E3D8" transform="translate(331,468)"/>
<path d="M0 0 C1.7421875 1.0703125 1.7421875 1.0703125 3.7421875 3.0703125 C3.50787013 5.49159199 2.87200707 6.88207413 1.4921875 8.8828125 C-0.2578125 10.0703125 -0.2578125 10.0703125 -2.7578125 9.8203125 C-4.60057391 9.26748408 -6.43264128 8.67870291 -8.2578125 8.0703125 C-12.90577469 7.53936551 -16.22125534 7.42246427 -20.2578125 9.9453125 C-24.22093892 14.15613432 -23.52570729 18.29372768 -23.4765625 23.859375 C-23.15713808 28.54806909 -21.96618487 31.50303338 -18.5078125 34.67578125 C-15.74248476 36.38970834 -13.73825249 36.56552441 -10.5078125 36.7578125 C-9.03054688 36.85642578 -9.03054688 36.85642578 -7.5234375 36.95703125 C-6.77578125 36.99441406 -6.028125 37.03179688 -5.2578125 37.0703125 C-5.2578125 34.1003125 -5.2578125 31.1303125 -5.2578125 28.0703125 C-6.3921875 28.0909375 -7.5265625 28.1115625 -8.6953125 28.1328125 C-12.2578125 28.0703125 -12.2578125 28.0703125 -13.2578125 27.0703125 C-13.2578125 24.1003125 -13.2578125 21.1303125 -13.2578125 18.0703125 C-6.9878125 18.0703125 -0.7178125 18.0703125 5.7421875 18.0703125 C5.87676487 22.00894365 5.97611596 25.94301077 6.0546875 29.8828125 C6.09658203 31.00236328 6.13847656 32.12191406 6.18164062 33.27539062 C6.19775391 34.34853516 6.21386719 35.42167969 6.23046875 36.52734375 C6.25665283 37.51710205 6.28283691 38.50686035 6.30981445 39.52661133 C5.7421875 42.0703125 5.7421875 42.0703125 3.32641602 43.87524414 C-4.23473896 47.37187651 -14.36009017 47.4476039 -22.35546875 45.19921875 C-29.03230764 42.12767145 -32.70090209 38.04292733 -35.35546875 31.26953125 C-37.44543772 23.85964125 -37.44140582 15.6734904 -34.3203125 8.5703125 C-27.18125607 -3.8463272 -12.14864685 -6.00757262 0 0 Z " fill="#F27636" transform="translate(824.2578125,479.9296875)"/>
<path d="M0 0 C4.58904992 2.74151034 7.27629583 6.49038557 8.70703125 11.6171875 C9.18672898 17.46949985 8.7455035 22.482487 5.70703125 27.6171875 C1.99534792 31.6623081 -1.3836374 34.36109917 -7 34.85546875 C-13.28002994 35.00555752 -17.45603595 35.09135034 -22.29296875 30.6171875 C-27.04857953 25.46527583 -28.79813947 20.90660517 -28.6015625 13.95703125 C-27.8941123 8.59294681 -25.42830646 4.23156782 -21.41796875 0.6171875 C-15.37177413 -3.26496783 -6.38647542 -2.68186512 0 0 Z " fill="#F17331" transform="translate(863.29296875,491.3828125)"/>
<path d="M0 0 C1.18464844 -0.00773437 2.36929688 -0.01546875 3.58984375 -0.0234375 C8.06009491 0.48945971 11.36418997 1.82594763 14.70703125 4.875 C19.39363856 10.89392043 19.78457937 15.9304634 19.0625 23.375 C17.70026523 28.07665601 15.8336246 30.76124777 12 33.8125 C6.381287 36.80117713 1.31995715 36.98847619 -4.9375 36.375 C-9.61366504 34.93216841 -13.40075706 31.7676893 -16.05078125 27.69140625 C-18.3080122 21.79476329 -18.16786211 14.68944488 -15.98046875 8.796875 C-12.1233932 2.18474548 -7.67315453 -0.04998798 0 0 Z " fill="#1D446D" transform="translate(517.9375,489.625)"/>
<path d="M0 0 C3.61400234 2.71050175 6.45740163 5.78980327 8.5 9.875 C9.48319328 23.56407563 9.48319328 23.56407563 5.5 28.875 C0.71669013 33.64524071 -3.10938133 35.04060351 -9.8125 35.1875 C-15.23408059 35.12726022 -18.51730473 34.85769527 -22.5 30.875 C-27.06070591 24.22643847 -28.45082791 18.88140317 -27.5 10.875 C-25.84063477 6.54777601 -23.24695522 3.62195522 -20 0.375 C-13.61364225 -2.36201046 -6.57075944 -2.11202982 0 0 Z " fill="#1E446C" transform="translate(487.5,491.125)"/>
<path d="M0 0 C3.63 0 7.26 0 11 0 C11 5.61 11 11.22 11 17 C12.65 16.01 14.3 15.02 16 14 C20.59318463 13.2679612 24.73149681 13.44502985 29 15.3125 C31 17 31 17 33 20 C33.22705078 23.09448242 33.22705078 23.09448242 33.1953125 26.85546875 C33.1924826 27.51710526 33.18965271 28.17874176 33.18673706 28.86042786 C33.17555918 30.96963737 33.15045981 33.07841925 33.125 35.1875 C33.11496707 36.61913448 33.10584176 38.05077564 33.09765625 39.48242188 C33.07562795 42.98841977 33.04111485 46.49416813 33 50 C29.37 50 25.74 50 22 50 C21.93941406 48.20691406 21.87882813 46.41382813 21.81640625 44.56640625 C21.73202151 42.23176176 21.64737249 39.89712681 21.5625 37.5625 C21.52318359 36.37849609 21.48386719 35.19449219 21.44335938 33.97460938 C21.40146484 32.84990234 21.35957031 31.72519531 21.31640625 30.56640625 C21.27974854 29.52427979 21.24309082 28.48215332 21.20532227 27.40844727 C21.26484659 25.0500174 21.26484659 25.0500174 20 24 C17.04182893 23.74994614 17.04182893 23.74994614 14 24 C11.39911378 26.60088622 11.70037775 27.82137113 11.5859375 31.4453125 C11.52792969 33.05986328 11.52792969 33.05986328 11.46875 34.70703125 C11.4378125 35.83496094 11.406875 36.96289062 11.375 38.125 C11.31699219 39.82849609 11.31699219 39.82849609 11.2578125 41.56640625 C11.16332767 44.37732987 11.08056679 47.18864304 11 50 C7.37 50 3.74 50 0 50 C0 33.5 0 17 0 0 Z " fill="#F17433" transform="translate(710,476)"/>
<path d="M0 0 C3.63 0 7.26 0 11 0 C11.33 9.24 11.66 18.48 12 28 C13.44375 26.22625 14.8875 24.4525 16.375 22.625 C20.75 17.25 20.75 17.25 23 15 C25.8203125 14.8046875 25.8203125 14.8046875 29.125 14.875 C30.22070312 14.89304687 31.31640625 14.91109375 32.4453125 14.9296875 C33.70988281 14.96449219 33.70988281 14.96449219 35 15 C33.08155581 19.67422038 29.49668206 22.37855026 25.80078125 25.68359375 C23.78230487 27.81480158 23.78230487 27.81480158 23.9140625 30.3046875 C25.45749012 34.13549705 27.69002816 37.32296291 30.0625 40.6875 C35 47.75358117 35 47.75358117 35 50 C30.85098993 50.60422477 27.11996531 50.88172506 23 50 C20.12033679 47.03989927 18.5712759 43.78845177 17 40 C16.67 39.34 16.34 38.68 16 38 C13.94511644 38.5882524 13.94511644 38.5882524 12 40 C11.29626983 42.64787088 11.29626983 42.64787088 11.25 45.625 C11.1675 47.39875 11.085 49.1725 11 51 C7.37 51 3.74 51 0 51 C0 34.17 0 17.34 0 0 Z " fill="#21466E" transform="translate(543,475)"/>
<path d="M0 0 C4.10143979 2.26425262 6.65048181 5.11346361 8.75 9.3125 C8.75 12.9425 8.75 16.5725 8.75 20.3125 C1.16 20.3125 -6.43 20.3125 -14.25 20.3125 C-11.92748574 25.19745525 -11.92748574 25.19745525 -9.25 26.3125 C-5.04115206 26.58748892 -5.04115206 26.58748892 -1.125 25.25 C0.75 24.3125 0.75 24.3125 2.8125 24.5 C5.00755282 25.42050602 6.19866281 26.52846223 7.75 28.3125 C6.77058159 31.46840375 5.73640915 32.32077269 2.875 34.0625 C-2.98271385 36.26372859 -9.74224469 36.54049862 -15.66015625 34.46875 C-19.92941339 32.10669371 -22.71291347 29.18993127 -24.625 24.69140625 C-26.24073781 18.54150422 -26.33525872 12.56340698 -23.5625 6.8125 C-16.78277072 -0.51693706 -9.68482396 -4.46296925 0 0 Z " fill="#F27432" transform="translate(774.25,490.6875)"/>
<path d="M0 0 C3.3 0 6.6 0 10 0 C10 1.32 10 2.64 10 4 C10.763125 3.34 11.52625 2.68 12.3125 2 C16.82331028 -1.01794688 21.78363397 -0.65999753 27 0 C29.99675397 1.22316488 31.35338745 2.01541779 33.10888672 4.68847656 C34.30531489 7.79197847 34.22445765 10.41182843 34.1953125 13.734375 C34.18886719 15.02988281 34.18242188 16.32539063 34.17578125 17.66015625 C34.15907193 19.02344019 34.14214206 20.38672144 34.125 21.75 C34.1149634 23.12889985 34.10583873 24.50780665 34.09765625 25.88671875 C34.07408093 29.25798882 34.0411727 32.62890636 34 36 C30.37 36 26.74 36 23 36 C22.93941406 34.20691406 22.87882813 32.41382813 22.81640625 30.56640625 C22.73202151 28.23176176 22.64737249 25.89712681 22.5625 23.5625 C22.52318359 22.37849609 22.48386719 21.19449219 22.44335938 19.97460938 C22.40146484 18.84990234 22.35957031 17.72519531 22.31640625 16.56640625 C22.27974854 15.52427979 22.24309082 14.48215332 22.20532227 13.40844727 C22.26484659 11.0500174 22.26484659 11.0500174 21 10 C16.85723125 9.75266863 16.85723125 9.75266863 13 11 C12.67 19.25 12.34 27.5 12 36 C8.37 36 4.74 36 1 36 C0 35 0 35 -0.11352539 31.67358398 C-0.11336629 30.19774444 -0.10767314 28.72189931 -0.09765625 27.24609375 C-0.09553383 26.08292381 -0.09553383 26.08292381 -0.09336853 24.89625549 C-0.08775345 22.40996506 -0.07519846 19.9237634 -0.0625 17.4375 C-0.05748694 15.75586067 -0.0529237 14.07421994 -0.04882812 12.39257812 C-0.03777913 8.26168434 -0.02050445 4.13085724 0 0 Z " fill="#294C71" transform="translate(632,490)"/>
<path d="M0 0 C4.19801172 0.53307325 7.86722729 2.04700326 11.76171875 3.65234375 C12.39358597 3.91253799 13.02545319 4.17273224 13.6764679 4.44081116 C15.00440332 4.98912614 16.33139127 5.5397408 17.6574707 6.0925293 C19.68868665 6.93799393 21.72394158 7.77312406 23.75976562 8.60742188 C25.05233826 9.14261389 26.34466484 9.67840063 27.63671875 10.21484375 C28.80936279 10.70073975 29.98200684 11.18663574 31.19018555 11.68725586 C34 13 34 13 36 15 C35.76919943 17.39912695 35.32295161 18.64936683 33.68408203 20.42871094 C32.85432861 21.07501465 32.85432861 21.07501465 32.0078125 21.734375 C31.39019043 22.22260742 30.77256836 22.71083984 30.13623047 23.21386719 C29.47252441 23.72079102 28.80881836 24.22771484 28.125 24.75 C27.44969238 25.2749707 26.77438477 25.79994141 26.07861328 26.34082031 C24.70804132 27.40159435 23.33353772 28.4573087 21.95507812 29.5078125 C20.20300201 30.8450614 18.46722034 32.20051392 16.734375 33.5625 C15.79078125 34.284375 14.8471875 35.00625 13.875 35.75 C13.04742187 36.38421875 12.21984375 37.0184375 11.3671875 37.671875 C8.6737253 39.18305841 7.03993266 39.28127491 4 39 C2.05452779 33.94502828 1.43576907 29.15481099 0.9375 23.8125 C0.78294221 22.2145513 0.62550784 20.61687755 0.46484375 19.01953125 C0.399021 18.31932861 0.33319824 17.61912598 0.26538086 16.89770508 C0.0279976 14.78100608 0.0279976 14.78100608 -1 12 C-1.09338218 10.12686336 -1.12994843 8.25045638 -1.125 6.375 C-1.12757813 5.39273437 -1.13015625 4.41046875 -1.1328125 3.3984375 C-1 1 -1 1 0 0 Z " fill="#FCFBFA" transform="translate(260,495)"/>
<path d="M0 0 C12.54 0 25.08 0 38 0 C38 2.97 38 5.94 38 9 C33.71 9 29.42 9 25 9 C25 21.54 25 34.08 25 47 C21.37 47 17.74 47 14 47 C14 34.46 14 21.92 14 9 C9.38 9 4.76 9 0 9 C0 6.03 0 3.06 0 0 Z " fill="#F1722E" transform="translate(667,478)"/>
<path d="M0 0 C2.82424288 2.19022918 4.41508603 3.83017207 6 7 C6.14977039 9.24655587 6.22150174 11.49863768 6.25 13.75 C6.27578125 14.96171875 6.3015625 16.1734375 6.328125 17.421875 C5.88082331 22.29959346 4.543526 25.71372833 0.75 28.875 C-2.79190675 30.32396185 -5.20244451 30.47469444 -9 30 C-12.22618733 27.9209015 -13.8669302 26.19960471 -16 23 C-16.24858293 20.16152982 -16.37020574 17.46320238 -16.375 14.625 C-16.39949219 13.86960937 -16.42398438 13.11421875 -16.44921875 12.3359375 C-16.4700125 8.3712631 -16.28794347 6.45146692 -14.1015625 3.0234375 C-10.01354972 -0.91260454 -5.4462175 -0.78781763 0 0 Z " fill="#F8FAFA" transform="translate(608,487)"/>
<path d="M0 0 C0.99 0 1.98 0 3 0 C3.125 7.625 3.125 7.625 2 11 C2.66 11 3.32 11 4 11 C4.16873478 12.43725871 4.33490737 13.87481838 4.5 15.3125 C4.5928125 16.11300781 4.685625 16.91351562 4.78125 17.73828125 C5 20 5 20 5 23 C4.34 23 3.68 23 3 23 C3 24.98 3 26.96 3 29 C-12.49817985 31.03338854 -12.49817985 31.03338854 -16.06640625 28.578125 C-17.25 26.6875 -17.25 26.6875 -18.15234375 24.7265625 C-18.94655205 22.67334492 -18.94655205 22.67334492 -21.8125 21.5625 C-22.534375 21.376875 -23.25625 21.19125 -24 21 C-24 20.01 -24 19.02 -24 18 C-23.01 18 -22.02 18 -21 18 C-20.01 16.02 -19.02 14.04 -18 12 C-18.99 11.67 -19.98 11.34 -21 11 C-20.67 9.68 -20.34 8.36 -20 7 C-13.73 6.34 -7.46 5.68 -1 5 C-0.67 3.35 -0.34 1.7 0 0 Z " fill="#F06F32" transform="translate(234,525)"/>
<path d="M0 0 C6.91402579 1.99217692 12.68887676 4.91908117 18.88671875 8.57421875 C22.42117701 10.19288533 24.1619063 10.56682735 28 10 C30.86507398 8.84841276 33.54487 7.42135794 36.25 5.9375 C38.81241004 4.54837986 41.36315361 3.25043276 44 2 C46 3 46 3 47 5 C46.278125 5.20625 45.55625 5.4125 44.8125 5.625 C41.76164962 6.87788454 41.76164962 6.87788454 39.5625 9.9375 C36.01599258 14.17600887 33.4851209 15.74324644 27.9375 16.31640625 C22.8572884 16.49536825 19.07505229 16.50923529 14.4375 14.3125 C12 12 12 12 10.1875 9.4375 C7.05817071 5.95053308 3.44066126 5.16709687 -1 4 C-0.67 2.68 -0.34 1.36 0 0 Z " fill="#EDF0F2" transform="translate(249,603)"/>
<path d="M0 0 C2.99753338 0.23510066 4.68411316 0.64783242 7.1875 2.25 C7.1875 3.24 7.1875 4.23 7.1875 5.25 C7.8475 5.58 8.5075 5.91 9.1875 6.25 C10.3452506 9.72325181 10.25616652 12.61067448 10.1875 16.25 C9.5275 16.25 8.8675 16.25 8.1875 16.25 C6.62310486 11.36126518 6.1875 8.64277414 6.1875 3.25 C-1.7325 3.745 -1.7325 3.745 -9.8125 4.25 C-10.1425 6.23 -10.4725 8.21 -10.8125 10.25 C-12.89902024 13.86663508 -14.32544304 15.92529536 -17.8125 18.25 C-17.72685791 18.94448242 -17.64121582 19.63896484 -17.55297852 20.35449219 C-17.1579207 23.56937183 -16.76644625 26.78467869 -16.375 30 C-16.24029297 31.09183594 -16.10558594 32.18367187 -15.96679688 33.30859375 C-15.56504006 36.62063776 -15.18762565 39.93484536 -14.8125 43.25 C-14.67183105 44.36052734 -14.53116211 45.47105469 -14.38623047 46.61523438 C-14.26779785 47.67548828 -14.14936523 48.73574219 -14.02734375 49.828125 C-13.91382568 50.7759082 -13.80030762 51.72369141 -13.68334961 52.70019531 C-13.83973256 55.78765001 -14.76233302 56.99974414 -16.8125 59.25 C-18.26396885 49.27878711 -19.71468481 39.3067265 -21 29.3125 C-21.23783203 27.47365234 -21.23783203 27.47365234 -21.48046875 25.59765625 C-21.64482422 23.94056641 -21.64482422 23.94056641 -21.8125 22.25 C-21.93238281 21.17621094 -22.05226562 20.10242188 -22.17578125 18.99609375 C-22.05589844 18.08988281 -21.93601563 17.18367188 -21.8125 16.25 C-20.17459288 15.20355934 -18.50518319 14.20530174 -16.8125 13.25 C-15.68953868 10.61261186 -15.68953868 10.61261186 -15.0625 7.6875 C-13.40229101 2.59260765 -13.40229101 2.59260765 -10.80859375 1.0859375 C-7.21618049 0.27141402 -3.66975277 0.24063953 0 0 Z " fill="#F8ECE6" transform="translate(221.8125,481.75)"/>
<path d="M0 0 C1.9375 1.5 1.9375 1.5 3 4 C3.54584044 8.78930966 3.60002708 12.81055708 1 17 C-2.0832635 18.54163175 -4.60878099 18.29747535 -8 18 C-10.20172046 15.82364498 -10.93321887 14.40910961 -11.43359375 11.34375 C-11.44398158 3.78140759 -11.44398158 3.78140759 -9.4375 0.25 C-5.89097406 -1.56873125 -3.77175426 -1.0972376 0 0 Z " fill="#F2F5F7" transform="translate(523,499)"/>
<path d="M0 0 C3 0.5625 3 0.5625 5.375 1.875 C7.94266885 6.12152925 7.78933604 10.72692783 7 15.5625 C5.69140625 17.87890625 5.69140625 17.87890625 4 19.5625 C-1.93939394 20.30492424 -1.93939394 20.30492424 -4.875 18.25 C-7.45299096 14.38301356 -7.62028863 10.05304019 -7 5.5625 C-5.02820539 1.92226379 -4.09693142 0.76817464 0 0 Z " fill="#F1F5F6" transform="translate(478,497.4375)"/>
<path d="M0 0 C2.29783606 3.44675409 2.29754883 4.93328112 2.3125 9 C2.32925781 10.051875 2.34601562 11.10375 2.36328125 12.1875 C2 15 2 15 0.69921875 16.84765625 C-2.18858504 18.80605192 -4.6410979 18.41986276 -8 18 C-10.19286797 15.81726075 -10.93330384 14.40858908 -11.43359375 11.34375 C-11.44398158 3.78140759 -11.44398158 3.78140759 -9.4375 0.25 C-5.92821869 -1.54963144 -3.73588519 -1.03774589 0 0 Z " fill="#FBFAF8" transform="translate(858,499)"/>
<path d="M0 0 C1.32 0 2.64 0 4 0 C6.31 4.62 8.62 9.24 11 14 C13.31 9.38 15.62 4.76 18 0 C19.32 0 20.64 0 22 0 C22 7.26 22 14.52 22 22 C21.01 22 20.02 22 19 22 C18.67 17.05 18.34 12.1 18 7 C16.02 10.96 14.04 14.92 12 19 C9 18 9 18 7.61328125 15.71484375 C6.40885417 13.14322917 5.20442708 10.57161458 4 8 C3.67 12.62 3.34 17.24 3 22 C2.01 22 1.02 22 0 22 C0 14.74 0 7.48 0 0 Z " fill="#476681" transform="translate(492,543)"/>
<path d="M0 0 C1.94140625 0.37890625 1.94140625 0.37890625 4.44140625 1.94140625 C6.55147464 5.37026739 6.56632148 7.42110976 5.94140625 11.37890625 C3.49945196 14.75454894 2.01834975 16.1321067 -2.05859375 17.06640625 C-5.05859375 16.37890625 -5.05859375 16.37890625 -7.99609375 13.75390625 C-10.05859375 10.37890625 -10.05859375 10.37890625 -10.05859375 7.25390625 C-8.04429489 1.46279701 -6.56839155 -0.37499105 0 0 Z " fill="#2D5373" transform="translate(443.05859375,548.62109375)"/>
<path d="M0 0 C2.17075738 1.57873264 2.89318724 2.47748353 3.43359375 5.12109375 C3.43994339 8.88642847 3.4311636 11.29289169 1.4375 14.5625 C-1.98306617 16.57975697 -4.09873948 16.6269883 -8 16 C-11.22456813 13.27151928 -11.91290117 11.62057913 -12.5 7.4375 C-12 4 -12 4 -10.5 1.5625 C-6.75107996 -0.78057502 -4.38964238 -0.48773804 0 0 Z " fill="#365673" transform="translate(530,549)"/>
<path d="M0 0 C2.4375 1.5 2.4375 1.5 4 4 C4.80414661 8.04560357 4.63828902 10.97873756 2.4375 14.5 C-0.97532932 16.60020266 -3.06688873 16.63210717 -7 16 C-10.22456813 13.27151928 -10.91290117 11.62057913 -11.5 7.4375 C-11 4 -11 4 -9.4375 1.5625 C-6.05782196 -0.60396028 -3.94016013 -0.56288002 0 0 Z " fill="#355471" transform="translate(705,549)"/>
<path d="M0 0 C1.86621094 0.25439453 1.86621094 0.25439453 4 1 C5.18847656 2.71826172 5.18847656 2.71826172 6.140625 4.9296875 C6.48867188 5.72503906 6.83671875 6.52039063 7.1953125 7.33984375 C7.71738281 8.59474609 7.71738281 8.59474609 8.25 9.875 C8.61351562 10.70386719 8.97703125 11.53273438 9.3515625 12.38671875 C12 18.54981203 12 18.54981203 12 22 C11.01 21.67 10.02 21.34 9 21 C8.505 18.525 8.505 18.525 8 16 C4.04 16 0.08 16 -4 16 C-4.33 17.98 -4.66 19.96 -5 22 C-5.99 22 -6.98 22 -8 22 C-7.40644629 16.69981613 -5.62627368 12.41863107 -3.4375 7.625 C-3.10814453 6.88894531 -2.77878906 6.15289063 -2.43945312 5.39453125 C-1.63252195 3.59355443 -0.8171174 1.79637819 0 0 Z " fill="#325774" transform="translate(728,543)"/>
<path d="M0 0 C1.8975 -0.061875 3.795 -0.12375 5.75 -0.1875 C7.35101563 -0.23970703 7.35101563 -0.23970703 8.984375 -0.29296875 C12.3368133 0.0327215 13.66471658 0.60898189 16 3 C16.44926608 6.08068173 16.64297386 8.02874724 14.890625 10.67578125 C12.06196988 12.6570087 9.7145535 12.28855109 6.3125 12.1875 C4.54326172 12.14689453 4.54326172 12.14689453 2.73828125 12.10546875 C1.83464844 12.07066406 0.93101562 12.03585937 0 12 C0 8.04 0 4.08 0 0 Z " fill="#F4F7F8" transform="translate(428,505)"/>
<path d="M0 0 C1.90625 0.4921875 1.90625 0.4921875 4.40625 2.7421875 C5.90625 5.4921875 5.90625 5.4921875 5.90625 9.4921875 C1.61625 9.4921875 -2.67375 9.4921875 -7.09375 9.4921875 C-5.77375 10.8121875 -4.45375 12.1321875 -3.09375 13.4921875 C0.60057511 13.34605855 0.60057511 13.34605855 3.90625 12.4921875 C3.24625 13.8121875 2.58625 15.1321875 1.90625 16.4921875 C-4.36096763 16.97428116 -4.36096763 16.97428116 -7.46875 14.9296875 C-9.64601285 11.66379322 -10.09375 9.41234884 -10.09375 5.4921875 C-7.72731948 0.65643819 -5.11720346 -0.32459873 0 0 Z " fill="#4B6B86" transform="translate(860.09375,548.5078125)"/>
<path d="M0 0 C1.90625 0.4921875 1.90625 0.4921875 4.40625 2.7421875 C5.90625 5.4921875 5.90625 5.4921875 5.90625 9.4921875 C1.61625 9.4921875 -2.67375 9.4921875 -7.09375 9.4921875 C-6.10375 10.8121875 -5.11375 12.1321875 -4.09375 13.4921875 C-0.9528615 13.88479856 0.88548697 13.49910851 3.90625 12.4921875 C3.24625 13.8121875 2.58625 15.1321875 1.90625 16.4921875 C-1.53082561 16.69048032 -4.26442842 16.84137554 -7.46875 15.4921875 C-9.9625006 12.422956 -10.38999457 9.39653899 -10.09375 5.4921875 C-7.76568327 0.63361345 -5.11626655 -0.3245393 0 0 Z " fill="#5A778F" transform="translate(570.09375,548.5078125)"/>
<path d="M0 0 C1.90625 0.4921875 1.90625 0.4921875 4.40625 2.7421875 C5.90625 5.4921875 5.90625 5.4921875 5.90625 9.4921875 C1.61625 9.4921875 -2.67375 9.4921875 -7.09375 9.4921875 C-6.10375 10.8121875 -5.11375 12.1321875 -4.09375 13.4921875 C-0.9528615 13.88479856 0.88548697 13.49910851 3.90625 12.4921875 C2.90625 15.4921875 2.90625 15.4921875 0.90625 16.4921875 C-2.61294011 16.87470816 -4.43511037 16.93721428 -7.40625 14.9296875 C-9.66206266 11.67129144 -10.09375 9.44742971 -10.09375 5.4921875 C-7.72731948 0.65643819 -5.11720346 -0.32459873 0 0 Z " fill="#3E5C77" transform="translate(654.09375,548.5078125)"/>
<path d="M0 0 C2 1.6875 2 1.6875 3 4 C3 5.65 3 7.3 3 9 C-0.96 9 -4.92 9 -9 9 C-8.67 9.99 -8.34 10.98 -8 12 C-4.33694766 12.74926071 -1.57644848 13.2380014 2 12 C1 15 1 15 -1 16 C-5.0130324 16.53507099 -6.53928033 16.33051628 -9.875 13.9375 C-12 11 -12 11 -12.5625 7.4375 C-12 4 -12 4 -10.5 1.5625 C-6.72171101 -0.79893062 -4.42209561 -0.56153595 0 0 Z " fill="#2D4D6E" transform="translate(833,549)"/>
<path d="M0 0 C10.20785597 -0.48608838 10.20785597 -0.48608838 13.75 1.6875 C15 4 15 4 14.875 6.625 C14 9 14 9 12 11 C9.1796875 11.1953125 9.1796875 11.1953125 5.875 11.125 C4.77929688 11.10695313 3.68359375 11.08890625 2.5546875 11.0703125 C1.71164062 11.04710937 0.86859375 11.02390625 0 11 C0 7.37 0 3.74 0 0 Z " fill="#EBF0F2" transform="translate(428,486)"/>
<path d="M0 0 C0.66 0 1.32 0 2 0 C3.32 3.3 4.64 6.6 6 10 C7.32 6.7 8.64 3.4 10 0 C10.99 0 11.98 0 13 0 C13.99 2.97 14.98 5.94 16 9 C17.99097846 6.01353231 18.94124926 3.40312738 20 0 C20.99 0 21.98 0 23 0 C21.71291613 5.54436129 20.08135307 10.70201036 18 16 C17.01 16 16.02 16 15 16 C13.68 12.37 12.36 8.74 11 5 C9.68 8.63 8.36 12.26 7 16 C6.01 16 5.02 16 4 16 C3.32586789 14.08594633 2.6609668 12.16863974 2 10.25 C1.62875 9.18265625 1.2575 8.1153125 0.875 7.015625 C0 4 0 4 0 0 Z " fill="#3C5E7A" transform="translate(777,549)"/>
<path d="M0 0 C0.99 0 1.98 0 3 0 C3.33 2.64 3.66 5.28 4 8 C4.33 7.67 4.66 7.34 5 7 C8.4375 6.75 8.4375 6.75 12 7 C14.42130331 10.63195496 14.21022785 12.38349348 14.125 16.6875 C14.10695313 17.86699219 14.08890625 19.04648437 14.0703125 20.26171875 C14.03550781 21.61716797 14.03550781 21.61716797 14 23 C13.01 23 12.02 23 11 23 C10.67 18.71 10.34 14.42 10 10 C8.35 10 6.7 10 5 10 C3.18884044 11.81115956 3.61800552 14.61278227 3.4375 17.0625 C3.35371094 18.16722656 3.26992188 19.27195312 3.18359375 20.41015625 C3.12300781 21.26480469 3.06242188 22.11945312 3 23 C2.01 23 1.02 23 0 23 C0 15.41 0 7.82 0 0 Z " fill="#45647E" transform="translate(803,542)"/>
<path d="M0 0 C0.99 0 1.98 0 3 0 C3.33 4.29 3.66 8.58 4 13 C5.98 11.02 7.96 9.04 10 7 C10.99 7.33 11.98 7.66 13 8 C11.68 9.32 10.36 10.64 9 12 C10.25756667 15.48249231 11.7731892 18.06465849 14 21 C14 21.66 14 22.32 14 23 C12.1875 22.8125 12.1875 22.8125 10 22 C8.25 19.4375 8.25 19.4375 7 17 C6.01 17.33 5.02 17.66 4 18 C3.67 19.65 3.34 21.3 3 23 C2.01 23 1.02 23 0 23 C0 15.41 0 7.82 0 0 Z " fill="#48687F" transform="translate(629,542)"/>
<path d="M0 0 C0.66 0.99 1.32 1.98 2 3 C-2.14348047 3.57568542 -6.28776015 4.14511636 -10.43286133 4.70898438 C-11.84031863 4.90131375 -13.24755132 5.0952948 -14.65454102 5.29101562 C-16.68708148 5.57345301 -18.7203789 5.84976911 -20.75390625 6.125 C-21.97408447 6.29257812 -23.1942627 6.46015625 -24.45141602 6.6328125 C-27.99540596 6.99952464 -31.43989875 7.06389413 -35 7 C-35 6.34 -35 5.68 -35 5 C-36.65 5 -38.3 5 -40 5 C-40 4.67 -40 4.34 -40 4 C-35.91181947 3.42157822 -31.8224891 2.85233339 -27.73193359 2.29101562 C-26.34487755 2.09943152 -24.95814574 1.90548273 -23.57177734 1.70898438 C-4.78962216 -0.94899571 -4.78962216 -0.94899571 0 0 Z " fill="#F5E1D6" transform="translate(320,543)"/>
<path d="M0 0 C7.26 0 14.52 0 22 0 C20.68 0.33 19.36 0.66 18 1 C18.99 2.32 19.98 3.64 21 5 C20.67 5.66 20.34 6.32 20 7 C19.34 6.34 18.68 5.68 18 5 C15.38419521 5.3269756 13.35921863 5.82039068 11 7 C7.14809417 7.42798954 5.44580746 7.28105253 2.125 5.1875 C0 3 0 3 0 0 Z " fill="#F8F5F1" transform="translate(760,511)"/>
<path d="M0 0 C10.38229695 -0.36643401 10.38229695 -0.36643401 12.84375 1.09375 C14.58186141 3.95928502 14.2858636 6.37592531 14.1875 9.6875 C14.16042969 10.86699219 14.13335938 12.04648437 14.10546875 13.26171875 C14.07066406 14.16535156 14.03585937 15.06898438 14 16 C13.01 16 12.02 16 11 16 C10.67 11.71 10.34 7.42 10 3 C8.35 3 6.7 3 5 3 C3.18884044 4.81115956 3.61800552 7.61278227 3.4375 10.0625 C3.31181641 11.71958984 3.31181641 11.71958984 3.18359375 13.41015625 C3.12300781 14.26480469 3.06242188 15.11945312 3 16 C2.01 16 1.02 16 0 16 C0 10.72 0 5.44 0 0 Z " fill="#4F6D86" transform="translate(743,549)"/>
<path d="M0 0 C3 1 3 1 4.16796875 3.06640625 C5.11197917 5.37760417 6.05598958 7.68880208 7 10 C8.65 6.7 10.3 3.4 12 0 C12.99 0 13.98 0 15 0 C13.60112261 4.26109657 12.12924096 8.48512004 10.5625 12.6875 C10.15128906 13.80511719 9.74007812 14.92273438 9.31640625 16.07421875 C8.11484057 18.74476088 7.32916576 20.27424506 5 22 C2.3125 22.1875 2.3125 22.1875 0 22 C0 21.01 0 20.02 0 19 C1.65 18.67 3.3 18.34 5 18 C4.50313314 13.15554813 2.93937681 9.37686538 0.83984375 5.05078125 C0 3 0 3 0 0 Z " fill="#4A6C8A" transform="translate(760,549)"/>
<path d="M0 0 C5.28 0 10.56 0 16 0 C16 0.99 16 1.98 16 3 C13.69 3 11.38 3 9 3 C9 9.27 9 15.54 9 22 C8.01 22 7.02 22 6 22 C6 15.73 6 9.46 6 3 C4.02 3 2.04 3 0 3 C0 2.01 0 1.02 0 0 Z " fill="#4B6C84" transform="translate(586,543)"/>
<path d="M0 0 C0.66 0 1.32 0 2 0 C2.33 4.29 2.66 8.58 3 13 C5.31 12.34 7.62 11.68 10 11 C10.33 7.37 10.66 3.74 11 0 C11.99 0 12.98 0 14 0 C14 5.28 14 10.56 14 16 C12.68 15.67 11.36 15.34 10 15 C9.67 15.33 9.34 15.66 9 16 C3.70607509 16.4603413 3.70607509 16.4603413 1.31640625 14.90234375 C-0.64837283 12.06303392 -0.28858169 9.71558352 -0.1875 6.3125 C-0.16042969 5.13300781 -0.13335937 3.95351563 -0.10546875 2.73828125 C-0.07066406 1.83464844 -0.03585937 0.93101562 0 0 Z " fill="#345676" transform="translate(453,549)"/>
<path d="M0 0 C0.99 0.495 0.99 0.495 2 1 C2.2475 2.27875 2.495 3.5575 2.75 4.875 C3.17997974 7.06129623 3.17997974 7.06129623 4 9 C6.84992165 10.75830563 6.84992165 10.75830563 10 12 C14 16.31578947 14 16.31578947 14 19 C17.63 19 21.26 19 25 19 C25 19.66 25 20.32 25 21 C20.59085217 22.10228696 16.51617599 22.07654536 12 22 C11.505 20.9275 11.01 19.855 10.5 18.75 C7.96124582 14.21519634 4.70012003 12.95838334 0 11 C0 7.37 0 3.74 0 0 Z " fill="#F8F1EB" transform="translate(206,536)"/>
<path d="M0 0 C1.8125 1.1875 1.8125 1.1875 3 3 C3.4375 5.4375 3.4375 5.4375 3 8 C1.3125 10.375 1.3125 10.375 -1 12 C-3.625 11.9375 -3.625 11.9375 -6 11 C-8.15502531 7.76746204 -8.46856135 6.74849077 -8 3 C-5.85607122 -0.27231235 -3.76836426 -0.56525464 0 0 Z " fill="#EEF1F3" transform="translate(444,551)"/>
<path d="M0 0 C0.99 0 1.98 0 3 0 C4.60546875 1.96875 4.60546875 1.96875 6.1875 4.5 C6.71730469 5.3353125 7.24710937 6.170625 7.79296875 7.03125 C8.19128906 7.6809375 8.58960938 8.330625 9 9 C11.38672669 6.03716687 13.7353371 3.05729491 16 0 C16.99 0.33 17.98 0.66 19 1 C18.50628906 1.67804687 18.01257813 2.35609375 17.50390625 3.0546875 C13.12569818 9.41498171 10.88196452 14.22652073 11 22 C10.01 22 9.02 22 8 22 C8.00902344 21.39414062 8.01804687 20.78828125 8.02734375 20.1640625 C7.78373504 13.27946846 5.72773609 9.41233242 1.49609375 4.03125 C0 2 0 2 0 0 Z " fill="#395F7D" transform="translate(416,543)"/>
<path d="M0 0 C2.5625 0.3125 2.5625 0.3125 4.4375 1.375 C6.26098531 4.51544693 5.4283284 6.9110313 4.5625 10.3125 C1.5625 12.3125 1.5625 12.3125 -0.4375 12.125 C-2.84939593 11.14516728 -3.99993803 10.50667354 -5.4375 8.3125 C-5.16974369 3.93914697 -4.8993826 0.62812597 0 0 Z " fill="#F1F3F5" transform="translate(525.4375,550.6875)"/>
<path d="M0 0 C2.5625 0.3125 2.5625 0.3125 4.4375 1.375 C6.22560335 4.45451133 5.30842606 6.95583273 4.5625 10.3125 C3.5625 11.3125 3.5625 11.3125 0.125 11.5625 C-1.050625 11.48 -2.22625 11.3975 -3.4375 11.3125 C-5.4375 8.3125 -5.4375 8.3125 -5.1875 5.25 C-4.28429516 1.7124477 -3.71125776 0.47580228 0 0 Z " fill="#F1F3F4" transform="translate(701.4375,550.6875)"/>
<path d="M0 0 C0.99 0 1.98 0 3 0 C3 2.31 3 4.62 3 7 C1.8553125 7.1546875 1.8553125 7.1546875 0.6875 7.3125 C-2.03120909 7.71028863 -2.03120909 7.71028863 -3.15625 9.53125 C-6.13912974 11.90744234 -9.54853505 11.31144728 -13.1875 11.1875 C-14.31188477 11.16719727 -14.31188477 11.16719727 -15.45898438 11.14648438 C-17.30629767 11.11118539 -19.15324066 11.05737917 -21 11 C-20.67 9.68 -20.34 8.36 -20 7 C-13.73 6.34 -7.46 5.68 -1 5 C-0.67 3.35 -0.34 1.7 0 0 Z " fill="#FBF7F3" transform="translate(234,525)"/>
<path d="M0 0 C0 0.99 0 1.98 0 3 C0.66 3.33 1.32 3.66 2 4 C3.1577506 7.47325181 3.06866652 10.36067448 3 14 C2.34 14 1.68 14 1 14 C-0.56439514 9.11126518 -1 6.39277414 -1 1 C-8.92 1.495 -8.92 1.495 -17 2 C-17.33 3.98 -17.66 5.96 -18 8 C-18.99 7.67 -19.98 7.34 -21 7 C-20.67 4.69 -20.34 2.38 -20 0 C-5.68181818 -3.63636364 -5.68181818 -3.63636364 0 0 Z " fill="#F8EAE3" transform="translate(229,484)"/>
<path d="M0 0 C-0.33 1.32 -0.66 2.64 -1 4 C-8.92 4.495 -8.92 4.495 -17 5 C-17 6.65 -17 8.3 -17 10 C-17.99 9.67 -18.98 9.34 -20 9 C-20 8.01 -20 7.02 -20 6 C-20.66 6 -21.32 6 -22 6 C-22 5.34 -22 4.68 -22 4 C-22.66 3.67 -23.32 3.34 -24 3 C-20.75073335 2.49515526 -17.50047901 1.99697406 -14.25 1.5 C-13.32960938 1.35691406 -12.40921875 1.21382813 -11.4609375 1.06640625 C-10.12675781 0.86337891 -10.12675781 0.86337891 -8.765625 0.65625 C-7.94868164 0.53056641 -7.13173828 0.40488281 -6.29003906 0.27539062 C-4 0 -4 0 0 0 Z " fill="#EFD8CC" transform="translate(331,468)"/>
<path d="M0 0 C0.99 0 1.98 0 3 0 C3 1.65 3 3.3 3 5 C4.32 5 5.64 5 7 5 C7 5.66 7 6.32 7 7 C5.68 7 4.36 7 3 7 C3 10.63 3 14.26 3 18 C4.65 18 6.3 18 8 18 C7.67 18.99 7.34 19.98 7 21 C4.625 21.1875 4.625 21.1875 2 21 C-0.28062828 17.57905758 -0.21925007 16.31812778 -0.125 12.3125 C-0.10695313 11.31863281 -0.08890625 10.32476563 -0.0703125 9.30078125 C-0.04710937 8.54152344 -0.02390625 7.78226563 0 7 C-0.99 7 -1.98 7 -3 7 C-3 6.34 -3 5.68 -3 5 C-2.01 5 -1.02 5 0 5 C0 3.35 0 1.7 0 0 Z " fill="#3F637B" transform="translate(684,544)"/>
<path d="M0 0 C0.66 1.32 1.32 2.64 2 4 C-0.01822917 3.67447917 -2.03645833 3.34895833 -4.0546875 3.0234375 C-4.69664062 3.01570312 -5.33859375 3.00796875 -6 3 C-8.31563087 4.88500271 -8.31563087 4.88500271 -8.25 8 C-8.31563087 11.11499729 -8.31563087 11.11499729 -6 13 C-4.0068433 13.02375926 -4.0068433 13.02375926 -1.875 12.625 C-0.59625 12.41875 0.6825 12.2125 2 12 C1 15 1 15 -1 16 C-4.51919011 16.38252066 -6.34136037 16.44502678 -9.3125 14.4375 C-11.56831266 11.17910394 -12 8.95524221 -12 5 C-9.12715806 -0.87059004 -5.90546714 -0.49212226 0 0 Z " fill="#3A5B79" transform="translate(623,549)"/>
<path d="M0 0 C0.66 0 1.32 0 2 0 C2.66 0.99 3.32 1.98 4 3 C6.05003955 4.19232613 6.05003955 4.19232613 8 5 C7.34 7.31 6.68 9.62 6 12 C5.236875 11.979375 4.47375 11.95875 3.6875 11.9375 C0.89814214 11.87057159 0.89814214 11.87057159 -2 13 C-2.12375 12.195625 -2.2475 11.39125 -2.375 10.5625 C-2.684375 9.2940625 -2.684375 9.2940625 -3 8 C-3.66 7.67 -4.32 7.34 -5 7 C-5 6.34 -5 5.68 -5 5 C-3.68 5 -2.36 5 -1 5 C-0.67 3.35 -0.34 1.7 0 0 Z " fill="#F7EAE0" transform="translate(218,514)"/>
<path d="M0 0 C0.99 0 1.98 0 3 0 C3 1.65 3 3.3 3 5 C4.32 5 5.64 5 7 5 C7 5.66 7 6.32 7 7 C5.68 7 4.36 7 3 7 C3 10.96 3 14.92 3 19 C4.32 19 5.64 19 7 19 C7 19.66 7 20.32 7 21 C4.625 21.125 4.625 21.125 2 21 C0 19 0 19 -0.1953125 16.1796875 C-0.16050781 14.54386719 -0.16050781 14.54386719 -0.125 12.875 C-0.10695313 11.77929688 -0.08890625 10.68359375 -0.0703125 9.5546875 C-0.04710937 8.71164062 -0.02390625 7.86859375 0 7 C-0.99 7 -1.98 7 -3 7 C-3 6.34 -3 5.68 -3 5 C-2.01 5 -1.02 5 0 5 C0 3.35 0 1.7 0 0 Z " fill="#40627D" transform="translate(664,544)"/>
<path d="M0 0 C0.99 0 1.98 0 3 0 C3.67119549 1.4562545 4.33681807 2.91507867 5 4.375 C5.556875 5.59316406 5.556875 5.59316406 6.125 6.8359375 C7 9 7 9 7 11 C7.66 11 8.32 11 9 11 C9.1546875 9.948125 9.1546875 9.948125 9.3125 8.875 C10.09359003 5.60862353 11.42058743 2.9528148 13 0 C13.66 0 14.32 0 15 0 C13.43551329 5.6143991 11.83604813 10.86810338 9 16 C8.01 16 7.02 16 6 16 C4.02 10.72 2.04 5.44 0 0 Z " fill="#3A5C78" transform="translate(535,549)"/>
<path d="M0 0 C0.391875 0.474375 0.78375 0.94875 1.1875 1.4375 C3.40808374 3.35179633 5.13375709 3.61266988 8 4 C7.67 4.763125 7.34 5.52625 7 6.3125 C5.82563314 8.99069135 5.82563314 8.99069135 6 12 C5.236875 11.979375 4.47375 11.95875 3.6875 11.9375 C0.89814214 11.87057159 0.89814214 11.87057159 -2 13 C-2.103125 12.236875 -2.20625 11.47375 -2.3125 10.6875 C-3.04364039 7.82940576 -3.76951913 6.84257115 -6 5 C-4.35 4.67 -2.7 4.34 -1 4 C-0.67 2.68 -0.34 1.36 0 0 Z " fill="#F9F2ED" transform="translate(216,497)"/>
<path d="M0 0 C0.33 0 0.66 0 1 0 C1.53311805 3.74836061 2.04935091 7.49885774 2.5625 11.25 C2.71396484 12.31347656 2.86542969 13.37695312 3.02148438 14.47265625 C3.16005859 15.49746094 3.29863281 16.52226563 3.44140625 17.578125 C3.57232666 18.52075195 3.70324707 19.46337891 3.83813477 20.43457031 C4.09922742 24.57267229 2.93514033 27.38773805 1 31 C0.46649143 27.58518736 -0.04958186 24.16796104 -0.5625 20.75 C-0.71396484 19.78191406 -0.86542969 18.81382812 -1.02148438 17.81640625 C-1.16005859 16.88183594 -1.29863281 15.94726562 -1.44140625 14.984375 C-1.57232666 14.12553711 -1.70324707 13.26669922 -1.83813477 12.38183594 C-2.00302925 9.95542474 -1.69636526 8.31068009 -1 6 C-0.65421232 4.00211562 -0.31856451 2.00240549 0 0 Z " fill="#F9E9DE" transform="translate(204,510)"/>
<path d="M0 0 C0 0.66 0 1.32 0 2 C-5.83579076 3.68442142 -10.94460204 4.26143011 -17 4.125 C-18.16208984 4.11146484 -18.16208984 4.11146484 -19.34765625 4.09765625 C-21.23190843 4.07439388 -23.11599832 4.0385364 -25 4 C-24 2 -24 2 -21 1 C-14.01341309 0.05838013 -7.04001758 -0.13744069 0 0 Z " fill="#F9F0EB" transform="translate(285,548)"/>
<path d="M0 0 C-0.33 0.99 -0.66 1.98 -1 3 C-5.95 3.33 -10.9 3.66 -16 4 C-16 4.99 -16 5.98 -16 7 C-16.66 7 -17.32 7 -18 7 C-18 6.01 -18 5.02 -18 4 C-19.65 4 -21.3 4 -23 4 C-22.67 3.34 -22.34 2.68 -22 2 C-14.82366132 -0.14495732 -7.42495142 -0.25850895 0 0 Z " fill="#FAF5F2" transform="translate(247,480)"/>
<path d="M0 0 C3.625 0.1875 3.625 0.1875 6.625 2.1875 C6.625 3.5075 6.625 4.8275 6.625 6.1875 C2.335 6.1875 -1.955 6.1875 -6.375 6.1875 C-3.98863636 0.22159091 -3.98863636 0.22159091 0 0 Z " fill="#F9F8F6" transform="translate(766.375,497.8125)"/>
<path d="M0 0 C0.99 0 1.98 0 3 0 C3 0.99 3 1.98 3 3 C1.02 3.66 -0.96 4.32 -3 5 C-3 8.96 -3 12.92 -3 17 C-3.99 17 -4.98 17 -6 17 C-6 11.72 -6 6.44 -6 1 C-4.68 1.33 -3.36 1.66 -2 2 C-1.34 1.34 -0.68 0.68 0 0 Z " fill="#46637F" transform="translate(846,548)"/>
<path d="M0 0 C0 0.99 0 1.98 0 3 C-5.28 3.66 -10.56 4.32 -16 5 C-16.33 3.68 -16.66 2.36 -17 1 C-14.91835982 0.63601378 -12.83459438 0.28416713 -10.75 -0.0625 C-9.00976562 -0.35833984 -9.00976562 -0.35833984 -7.234375 -0.66015625 C-4.37477376 -0.9606216 -2.66674071 -0.9439206 0 0 Z " fill="#FAF1EB" transform="translate(231,539)"/>
<path d="M0 0 C-0.33 1.32 -0.66 2.64 -1 4 C-6.05002222 5.03590199 -10.87416389 5.10251672 -16 5 C-15.67 3.68 -15.34 2.36 -15 1 C-9.91913204 0.15318867 -5.15171623 -0.09038099 0 0 Z " fill="#F3D8CA" transform="translate(336,484)"/>
<path d="M0 0 C0.66 0 1.32 0 2 0 C2.33 0.99 2.66 1.98 3 3 C6.96 3.33 10.92 3.66 15 4 C15 4.33 15 4.66 15 5 C11.04 5 7.08 5 3 5 C3.33 5.99 3.66 6.98 4 8 C7.66305234 8.74926071 10.42355152 9.2380014 14 8 C13 11 13 11 11 12 C6.9869676 12.53507099 5.46071967 12.33051628 2.125 9.9375 C-0.47048413 6.34962488 -0.4247346 4.3322929 0 0 Z " fill="#3E5C7A" transform="translate(821,553)"/>
<path d="M0 0 C2.97 0 5.94 0 9 0 C9 0.66 9 1.32 9 2 C7.35 2.66 5.7 3.32 4 4 C3.67 7.96 3.34 11.92 3 16 C2.01 16 1.02 16 0 16 C0 10.72 0 5.44 0 0 Z " fill="#5F7C93" transform="translate(472,549)"/>
<path d="M0 0 C2.25832694 2.06857496 3.60066123 3.88592622 4.82421875 6.6875 C5.28344727 7.73550781 5.28344727 7.73550781 5.75195312 8.8046875 C6.06068359 9.52914062 6.36941406 10.25359375 6.6875 11 C7.00783203 11.72445312 7.32816406 12.44890625 7.65820312 13.1953125 C8.98887733 16.27090064 10 18.61403593 10 22 C9.01 21.67 8.02 21.34 7 21 C6.67 19.35 6.34 17.7 6 16 C4.68 15.67 3.36 15.34 2 15 C2.66 14.67 3.32 14.34 4 14 C2.35 9.71 0.7 5.42 -1 1 C-0.67 0.67 -0.34 0.34 0 0 Z " fill="#345A7A" transform="translate(730,543)"/>
<path d="M0 0 C0.66 0 1.32 0 2 0 C2.33 1.32 2.66 2.64 3 4 C3.61875 3.835 4.2375 3.67 4.875 3.5 C9.25470729 2.79924683 13.57428989 2.92265749 18 3 C18 3.66 18 4.32 18 5 C11.56971459 6.32388229 5.5705166 7.24794402 -1 7 C-0.67 4.69 -0.34 2.38 0 0 Z " fill="#F8F5F3" transform="translate(320,538)"/>
<path d="M0 0 C-0.33 1.32 -0.66 2.64 -1 4 C-5.95 4.33 -10.9 4.66 -16 5 C-15.67 3.68 -15.34 2.36 -15 1 C-9.9752761 0.37470103 -5.07471573 -0.13012092 0 0 Z " fill="#F1D4C6" transform="translate(337,495)"/>
<path d="M0 0 C-0.33 0.99 -0.66 1.98 -1 3 C-5.95 3.33 -10.9 3.66 -16 4 C-15.67 2.68 -15.34 1.36 -15 0 C-4.44191344 -1.33257403 -4.44191344 -1.33257403 0 0 Z " fill="#F9E8DE" transform="translate(340,518)"/>
<path d="M0 0 C2.33936818 2.12669835 3.80653848 4.06224856 5 7 C5 7.99 5 8.98 5 10 C2.36 10 -0.28 10 -3 10 C-2.49287967 6.28111761 -1.88391785 3.26545761 0 0 Z " fill="#E8EAEC" transform="translate(729,547)"/>
<path d="M0 0 C0.99 0 1.98 0 3 0 C1.71291613 5.54436129 0.08135307 10.70201036 -2 16 C-2.99 16 -3.98 16 -5 16 C-5.625 14.1875 -5.625 14.1875 -6 12 C-4.66666667 10 -3.33333333 8 -2 6 C-1.29835358 4.01200182 -0.62627128 2.01301483 0 0 Z " fill="#365978" transform="translate(797,549)"/>
<path d="M0 0 C2.59341352 0.07530783 3.80569388 0.16002137 6.0625 1.5 C7.0625 3.3125 7.0625 3.3125 7.0625 8.3125 C3.1025 8.3125 -0.8575 8.3125 -4.9375 8.3125 C-4.9375 7.9825 -4.9375 7.6525 -4.9375 7.3125 C-1.6375 7.3125 1.6625 7.3125 5.0625 7.3125 C4.7325 5.9925 4.4025 4.6725 4.0625 3.3125 C1.4225 3.3125 -1.2175 3.3125 -3.9375 3.3125 C-4.2675 3.9725 -4.5975 4.6325 -4.9375 5.3125 C-5.2675 4.3225 -5.5975 3.3325 -5.9375 2.3125 C-3.9375 0.3125 -3.9375 0.3125 0 0 Z " fill="#325474" transform="translate(567.9375,548.6875)"/>
<path d="M0 0 C0.90105469 0.00902344 1.80210937 0.01804687 2.73046875 0.02734375 C3.41753906 0.03894531 4.10460937 0.05054688 4.8125 0.0625 C4.4825 1.3825 4.1525 2.7025 3.8125 4.0625 C-0.4775 4.0625 -4.7675 4.0625 -9.1875 4.0625 C-8.8575 3.0725 -8.5275 2.0825 -8.1875 1.0625 C-5.17259443 0.05753148 -3.14568308 -0.04085303 0 0 Z " fill="#F8E8DE" transform="translate(334.1875,525.9375)"/>
<path d="M0 0 C0.99 0.33 1.98 0.66 3 1 C1.68 2.32 0.36 3.64 -1 5 C0.25756667 8.48249231 1.7731892 11.06465849 4 14 C4 14.66 4 15.32 4 16 C2.1875 15.8125 2.1875 15.8125 0 15 C-3 10.82142857 -3 10.82142857 -3 8 C-3.66 8 -4.32 8 -5 8 C-4.45773019 4.20411134 -2.79872437 2.52788007 0 0 Z " fill="#315371" transform="translate(639,549)"/>
<path d="M0 0 C0.99 0 1.98 0 3 0 C3 5.28 3 10.56 3 16 C2.34 16 1.68 16 1 16 C1 15.01 1 14.02 1 13 C0.34 13 -0.32 13 -1 13 C-0.67 8.71 -0.34 4.42 0 0 Z " fill="#406180" transform="translate(464,549)"/>
<path d="M0 0 C0.66 0 1.32 0 2 0 C2.226875 0.78375 2.45375 1.5675 2.6875 2.375 C3.76236228 5.18995984 3.76236228 5.18995984 6.4375 6.1875 C7.7059375 6.5896875 7.7059375 6.5896875 9 7 C9.99 7.66 10.98 8.32 12 9 C12 9.66 12 10.32 12 11 C7.13954021 10.54786421 4.46858739 9.46858739 1 6 C-0.3125 3.25 -0.3125 3.25 -1 1 C-0.67 0.67 -0.34 0.34 0 0 Z " fill="#EEEBE6" transform="translate(330,471)"/>
<path d="M0 0 C3.96 0 7.92 0 12 0 C11 3 11 3 8 5 C5.01875347 5.37265582 3.61255402 5.46469615 1.1875 3.625 C0 2 0 2 0 0 Z " fill="#ECF0F3" transform="translate(563,558)"/>
<path d="M0 0 C3.0625 0.1875 3.0625 0.1875 5.0625 2.1875 C5.0625 3.1775 5.0625 4.1675 5.0625 5.1875 C1.7625 5.1875 -1.5375 5.1875 -4.9375 5.1875 C-3.69966216 0.23614865 -3.69966216 0.23614865 0 0 Z " fill="#DADFE4" transform="translate(857.9375,550.8125)"/>
<path d="M0 0 C3.0625 0.1875 3.0625 0.1875 5.0625 2.1875 C5.0625 3.1775 5.0625 4.1675 5.0625 5.1875 C1.7625 5.1875 -1.5375 5.1875 -4.9375 5.1875 C-3.69966216 0.23614865 -3.69966216 0.23614865 0 0 Z " fill="#E1E5E8" transform="translate(651.9375,550.8125)"/>
<path d="M0 0 C0.99 0.99 1.98 1.98 3 3 C-1.62 3.33 -6.24 3.66 -11 4 C-11 3.34 -11 2.68 -11 2 C-12.65 2 -14.3 2 -16 2 C-16 1.67 -16 1.34 -16 1 C-10.60677167 0.22953881 -5.44771574 -0.36933666 0 0 Z " fill="#F4DBCD" transform="translate(296,546)"/>
<path d="M0 0 C0.98484375 0.00902344 1.9696875 0.01804687 2.984375 0.02734375 C4.10585938 0.04474609 4.10585938 0.04474609 5.25 0.0625 C5.25 0.7225 5.25 1.3825 5.25 2.0625 C0.17523206 3.32555335 -4.47796354 4.33286084 -9.75 4.0625 C-9.75 3.0725 -9.75 2.0825 -9.75 1.0625 C-6.43929162 0.06140485 -3.44915231 -0.04106134 0 0 Z " fill="#F9F5F0" transform="translate(332.75,506.9375)"/>
<path d="M0 0 C7.38804781 -0.36334661 7.38804781 -0.36334661 10 1.1875 C11 3 11 3 11 8 C7.04 8 3.08 8 -1 8 C-1 7.67 -1 7.34 -1 7 C2.3 7 5.6 7 9 7 C8.34 5.68 7.68 4.36 7 3 C4.69 3 2.38 3 0 3 C0 2.01 0 1.02 0 0 Z " fill="#274C70" transform="translate(854,549)"/>
<path d="M0 0 C2.33944736 0.28730055 4.6739143 0.61936779 7 1 C7.33 2.32 7.66 3.64 8 5 C4.7 5 1.4 5 -2 5 C-1 1 -1 1 0 0 Z " fill="#D8DDE2" transform="translate(826,551)"/>
<path d="M0 0 C7.42857143 -0.28571429 7.42857143 -0.28571429 11 2 C11 2.99 11 3.98 11 5 C11.66 5.33 12.32 5.66 13 6 C14.1577506 9.47325181 14.06866652 12.36067448 14 16 C13.34 16 12.68 16 12 16 C10.54815522 11.46298506 9.76490804 7.81938524 10 3 C8.35 3 6.7 3 5 3 C5 2.34 5 1.68 5 1 C3.35 1 1.7 1 0 1 C0 0.67 0 0.34 0 0 Z " fill="#F6C2A9" transform="translate(218,482)"/>
<path d="M0 0 C0.99 1.485 0.99 1.485 2 3 C2.99387334 4.33790641 3.9926892 5.67218122 5 7 C7.64 6.67 10.28 6.34 13 6 C12 9 12 9 10 10 C6.4182378 10.38932198 4.63718279 10.43596718 1.625 8.375 C-0.4131192 5.3962104 -0.32152515 3.53677664 0 0 Z " fill="#325674" transform="translate(612,555)"/>
<path d="M0 0 C0.66 0.33 1.32 0.66 2 1 C2 1.66 2 2.32 2 3 C7.01535052 2.67039784 7.01535052 2.67039784 11 0 C11.33 0.99 11.66 1.98 12 3 C10.9375 4.5 10.9375 4.5 9 6 C5.5 6.4375 5.5 6.4375 2 6 C0.0625 4 0.0625 4 -1 2 C-0.67 1.34 -0.34 0.68 0 0 Z " fill="#446481" transform="translate(696,559)"/>
<path d="M0 0 C2 1 2 1 2.8125 2.875 C2.874375 3.57625 2.93625 4.2775 3 5 C2.02351983 6.02297922 1.01868662 7.01904252 0 8 C-1.20049407 11.10007201 -1.20049407 11.10007201 -2 14 C-2.99 13.67 -3.98 13.34 -5 13 C-4.54554036 11.58208592 -4.08625056 10.16571954 -3.625 8.75 C-3.24214844 7.56664062 -3.24214844 7.56664062 -2.8515625 6.359375 C-2.04826333 4.13372042 -1.10288338 2.09068328 0 0 Z " fill="#3C5C77" transform="translate(728,543)"/>
<path d="M0 0 C0 0.66 0 1.32 0 2 C-1.98 2.66 -3.96 3.32 -6 4 C-6.33 6.31 -6.66 8.62 -7 11 C-7.99 11 -8.98 11 -10 11 C-10.48275862 4.72413793 -10.48275862 4.72413793 -8.375 1.5625 C-5.397402 -0.39644605 -3.49644963 -0.31785906 0 0 Z " fill="#2D4D6C" transform="translate(528,549)"/>
<path d="M0 0 C0.99 0.33 1.98 0.66 3 1 C0.69 4.63 -1.62 8.26 -4 12 C-5.32 11.67 -6.64 11.34 -8 11 C-6.67927266 8.35854531 -4.85672698 6.29360392 -3 4 C-1.99426222 2.67098936 -0.99204592 1.33926199 0 0 Z " fill="#345675" transform="translate(432,543)"/>
<path d="M0 0 C2.33094534 0.3496418 4.66404762 0.68554487 7 1 C7 1.33 7 1.66 7 2 C2.05 2.33 -2.9 2.66 -8 3 C-8 2.34 -8 1.68 -8 1 C-9.32 0.67 -10.64 0.34 -12 0 C-3.80887372 -1.22866894 -3.80887372 -1.22866894 0 0 Z " fill="#F4D8C9" transform="translate(261,551)"/>
<path d="M0 0 C3.96 0 7.92 0 12 0 C12.33 0.66 12.66 1.32 13 2 C10.23547967 3.38226016 7.9538637 3.09525387 4.875 3.0625 C3.77929688 3.05347656 2.68359375 3.04445313 1.5546875 3.03515625 C0.29011719 3.01775391 0.29011719 3.01775391 -1 3 C-0.67 2.01 -0.34 1.02 0 0 Z " fill="#F6E9E2" transform="translate(296,545)"/>
<path d="M0 0 C0.99 0 1.98 0 3 0 C3 2.31 3 4.62 3 7 C1.8553125 7.1546875 1.8553125 7.1546875 0.6875 7.3125 C-2.17059424 8.04364039 -3.15742885 8.76951913 -5 11 C-5.99 10.34 -6.98 9.68 -8 9 C-6.68 9 -5.36 9 -4 9 C-4 8.01 -4 7.02 -4 6 C-3.01 5.67 -2.02 5.34 -1 5 C-0.67 3.35 -0.34 1.7 0 0 Z " fill="#F6B490" transform="translate(234,525)"/>
<path d="M0 0 C0.99 0.99 1.98 1.98 3 3 C2.01 5.64 1.02 8.28 0 11 C-0.66 11 -1.32 11 -2 11 C-2 10.34 -2 9.68 -2 9 C-3.32 8.67 -4.64 8.34 -6 8 C-4.68 8 -3.36 8 -2 8 C-1.7834375 6.576875 -1.7834375 6.576875 -1.5625 5.125 C-1 2 -1 2 0 0 Z " fill="#EED8CB" transform="translate(340,532)"/>
<path d="M0 0 C0.66 0 1.32 0 2 0 C3.28317892 3.84953676 3.06643637 6.94738135 3 11 C2.01 11 1.02 11 0 11 C-0.19491452 9.54263913 -0.38069358 8.08405407 -0.5625 6.625 C-0.66691406 5.81289063 -0.77132813 5.00078125 -0.87890625 4.1640625 C-1 2 -1 2 0 0 Z " fill="#F1DCCE" transform="translate(342,480)"/>
<path d="M0 0 C2.31 0 4.62 0 7 0 C7.66 1.32 8.32 2.64 9 4 C8 5 8 5 5.625 5.25 C3 5 3 5 1.1875 3.625 C0 2 0 2 0 0 Z " fill="#E7EAED" transform="translate(647,558)"/>
<path d="M0 0 C0.91007813 0.00902344 1.82015625 0.01804687 2.7578125 0.02734375 C3.45648438 0.03894531 4.15515625 0.05054688 4.875 0.0625 C4.875 0.7225 4.875 1.3825 4.875 2.0625 C1.56429162 3.06359515 -1.42584769 3.16606134 -4.875 3.125 C-5.85984375 3.11597656 -6.8446875 3.10695313 -7.859375 3.09765625 C-8.60703125 3.08605469 -9.3546875 3.07445312 -10.125 3.0625 C-6.25266576 0.48094384 -4.58963981 -0.05884154 0 0 Z " fill="#F8F3F0" transform="translate(248.125,551.9375)"/>
<path d="M0 0 C1.32 0.33 2.64 0.66 4 1 C3.67 2.32 3.34 3.64 3 5 C2.34 4.67 1.68 4.34 1 4 C1 9.28 1 14.56 1 20 C0.67 20 0.34 20 0 20 C0 13.4 0 6.8 0 0 Z " fill="#193D5C" transform="translate(493,544)"/>
<path d="M0 0 C0.66 0.33 1.32 0.66 2 1 C1.67 1.53625 1.34 2.0725 1 2.625 C-0.22699204 5.5391061 -0.14233286 7.86867708 0 11 C-0.99 11.33 -1.98 11.66 -3 12 C-3.75 9.375 -3.75 9.375 -4 6 C-2.0625 2.625 -2.0625 2.625 0 0 Z " fill="#43637E" transform="translate(437,549)"/>
<path d="M0 0 C0.90105469 0.00902344 1.80210937 0.01804687 2.73046875 0.02734375 C3.41753906 0.03894531 4.10460937 0.05054688 4.8125 0.0625 C4.8125 0.7225 4.8125 1.3825 4.8125 2.0625 C0.14048795 3.26818053 -4.40246292 3.15632426 -9.1875 3.0625 C-7.31499103 -0.68251794 -3.72136574 -0.04832943 0 0 Z " fill="#F8F7F6" transform="translate(304.1875,471.9375)"/>
<path d="M0 0 C2.31 0 4.62 0 7 0 C7.66 1.32 8.32 2.64 9 4 C6.75 4.6875 6.75 4.6875 4 5 C1.6875 3.6875 1.6875 3.6875 0 2 C0 1.34 0 0.68 0 0 Z " fill="#E9EEEF" transform="translate(853,558)"/>
<path d="M0 0 C0.94875 0.04125 1.8975 0.0825 2.875 0.125 C2.545 1.115 2.215 2.105 1.875 3.125 C3.195 3.455 4.515 3.785 5.875 4.125 C-0.065 4.62 -0.065 4.62 -6.125 5.125 C-4.7964923 1.13947691 -4.27916485 0.17116659 0 0 Z " fill="#EF834C" transform="translate(221.125,534.875)"/>
<path d="M0 0 C0.33 0 0.66 0 1 0 C1.33 3.96 1.66 7.92 2 12 C1.34 12 0.68 12 0 12 C0 13.98 0 15.96 0 18 C-0.33 18 -0.66 18 -1 18 C-1.33 14.04 -1.66 10.08 -2 6 C-1.67 6 -1.34 6 -1 6 C-0.67 4.02 -0.34 2.04 0 0 Z " fill="#F7D6C3" transform="translate(204,510)"/>
<path d="M0 0 C0 0.66 0 1.32 0 2 C-1.2065625 2.433125 -1.2065625 2.433125 -2.4375 2.875 C-5.1326468 3.73262568 -5.1326468 3.73262568 -6 6 C-6.22467831 7.53668865 -6.40796805 9.07968054 -6.5625 10.625 C-6.64628906 11.44226563 -6.73007812 12.25953125 -6.81640625 13.1015625 C-6.87699219 13.72804688 -6.93757813 14.35453125 -7 15 C-7.33 15 -7.66 15 -8 15 C-8 10.38 -8 5.76 -8 1 C-4 0 -4 0 0 0 Z " fill="#1D4264" transform="translate(481,549)"/>
<path d="M0 0 C0.33 0.99 0.66 1.98 1 3 C-2.3 3 -5.6 3 -9 3 C-8.67 2.01 -8.34 1.02 -8 0 C-5.13822943 -1.43088528 -3.06624227 -0.59991697 0 0 Z " fill="#F1F2F4" transform="translate(572,552)"/>
<path d="M0 0 C0.99 0 1.98 0 3 0 C1.68938409 4.23429756 0.05643741 8.07407404 -2 12 C-2.33 12 -2.66 12 -3 12 C-2.49202991 7.6822542 -1.80317221 3.96697886 0 0 Z " fill="#335572" transform="translate(772,549)"/>
<path d="M0 0 C1.32 0.33 2.64 0.66 4 1 C3.34 1.66 2.68 2.32 2 3 C1.63047951 5.12860662 1.63047951 5.12860662 1.5859375 7.5703125 C1.54726563 8.46621094 1.50859375 9.36210937 1.46875 10.28515625 C1.4378125 11.22230469 1.406875 12.15945313 1.375 13.125 C1.33632813 14.06988281 1.29765625 15.01476562 1.2578125 15.98828125 C1.16338654 18.32532375 1.07781606 20.66235501 1 23 C0.67 23 0.34 23 0 23 C0 15.41 0 7.82 0 0 Z " fill="#133961" transform="translate(633,491)"/>
<path d="M0 0 C0.61488281 0.08378906 1.22976563 0.16757812 1.86328125 0.25390625 C3.07564453 0.40666016 3.07564453 0.40666016 4.3125 0.5625 C5.11300781 0.66691406 5.91351562 0.77132812 6.73828125 0.87890625 C9.16817116 1.14755178 9.16817116 1.14755178 12 0 C11 3 11 3 9 4 C4.94857881 4.25860135 3.45662331 4.30441554 0 2 C0 1.34 0 0.68 0 0 Z " fill="#305472" transform="translate(646,561)"/>
<path d="M0 0 C0.99 0 1.98 0 3 0 C4.99785435 4.1205746 5.17835515 7.45194365 5 12 C2.23776722 9.23776722 2.42143709 6.79293383 2 3 C1.34 3 0.68 3 0 3 C0 2.01 0 1.02 0 0 Z " fill="#2B4E6D" transform="translate(787,549)"/>
<path d="M0 0 C5.36842105 -0.35789474 5.36842105 -0.35789474 7.875 1.0625 C9.58196395 4.00227124 9.18799766 6.67870803 9 10 C8.67 10 8.34 10 8 10 C7.814375 9.05125 7.62875 8.1025 7.4375 7.125 C6.26599195 3.61628301 6.26599195 3.61628301 2.375 2.625 C1.26125 2.41875 0.1475 2.2125 -1 2 C-0.67 1.34 -0.34 0.68 0 0 Z " fill="#24486C" transform="translate(439,549)"/>
<path d="M0 0 C2.31 0 4.62 0 7 0 C7 2.31 7 4.62 7 7 C6.01 6.67 5.02 6.34 4 6 C4 5.01 4 4.02 4 3 C3.34 3 2.68 3 2 3 C2 2.34 2 1.68 2 1 C1.34 0.67 0.68 0.34 0 0 Z " fill="#F2E7DF" transform="translate(307,471)"/>
<path d="M0 0 C2.34601486 2.13274079 3.86264449 4.02537789 5 7 C5.125 9.75 5.125 9.75 5 12 C2.52140092 9.7991151 1.38789634 7.93627031 0.3125 4.8125 C0.06113281 4.09707031 -0.19023438 3.38164063 -0.44921875 2.64453125 C-0.63097656 2.10183594 -0.81273437 1.55914063 -1 1 C-0.67 0.67 -0.34 0.34 0 0 Z " fill="#294B6C" transform="translate(730,543)"/>
<path d="M0 0 C0.99 0.33 1.98 0.66 3 1 C3 1.66 3 2.32 3 3 C2.360625 3.391875 1.72125 3.78375 1.0625 4.1875 C-1.88949151 6.78167435 -1.71330891 9.2013431 -2 13 C-2.33 13 -2.66 13 -3 13 C-3.08121924 11.39667209 -3.13929134 9.79215974 -3.1875 8.1875 C-3.22230469 7.29417969 -3.25710938 6.40085937 -3.29296875 5.48046875 C-2.95081002 2.58352485 -2.24606427 1.77444972 0 0 Z " fill="#CED5DC" transform="translate(557,512)"/>
<path d="M0 0 C3.41021743 0.78697325 6.68885166 1.87119943 10 3 C10 3.66 10 4.32 10 5 C3.51707705 5.3669579 3.51707705 5.3669579 1.0625 3.625 C0 2 0 2 0 0 Z " fill="#3F5E7A" transform="translate(519,560)"/>
<path d="M0 0 C0.66 0 1.32 0 2 0 C1.39301257 4.12751449 -0.03810791 7.3321148 -2 11 C-2.99 10.67 -3.98 10.34 -5 10 C-5 9.34 -5 8.68 -5 8 C-4.01 8 -3.02 8 -2 8 C-1.7834375 6.576875 -1.7834375 6.576875 -1.5625 5.125 C-1 2 -1 2 0 0 Z " fill="#214A6E" transform="translate(506,551)"/>
<path d="M0 0 C0 0.33 0 0.66 0 1 C-1.546875 1.12375 -1.546875 1.12375 -3.125 1.25 C-7.32099563 2.06212819 -9.51797639 3.62589299 -13 6 C-13.99 5.67 -14.98 5.34 -16 5 C-10.47759424 0.88757018 -6.90703976 -0.61669998 0 0 Z " fill="#F7915C" transform="translate(770,489)"/>
<path d="M0 0 C0.33 0 0.66 0 1 0 C1 5.28 1 10.56 1 16 C0.67 16 0.34 16 0 16 C-0.33 13.03 -0.66 10.06 -1 7 C-1.99 7.495 -1.99 7.495 -3 8 C-1.125 2.25 -1.125 2.25 0 0 Z " fill="#D5DAE0" transform="translate(510,548)"/>
<path d="M0 0 C0.66 0 1.32 0 2 0 C3.80230168 3.82989106 4.19622241 6.78121808 4 11 C2 10 2 10 0.875 7.1875 C0 4 0 4 0 0 Z " fill="#325370" transform="translate(777,549)"/>
<path d="M0 0 C1.32 0 2.64 0 4 0 C4 0.66 4 1.32 4 2 C4.99 2.33 5.98 2.66 7 3 C7 3.66 7 4.32 7 5 C4.03 4.505 4.03 4.505 1 4 C0.67 2.68 0.34 1.36 0 0 Z " fill="#E1E5E9" transform="translate(824,558)"/>
<path d="M0 0 C0.66 0 1.32 0 2 0 C1.01 3.3 0.02 6.6 -1 10 C-1.66 10 -2.32 10 -3 10 C-2.25 3.375 -2.25 3.375 0 0 Z " fill="#2F516F" transform="translate(548,549)"/>
<path d="M0 0 C3.63 0 7.26 0 11 0 C9.68 0.33 8.36 0.66 7 1 C7.99 2.32 8.98 3.64 10 5 C9.67 5.66 9.34 6.32 9 7 C7.2925002 5.71937515 5.62626404 4.38232443 4 3 C4 2.34 4 1.68 4 1 C2.68 0.67 1.36 0.34 0 0 Z " fill="#EFF6F9" transform="translate(771,511)"/>
<path d="M0 0 C0.99 0 1.98 0 3 0 C3 2.64 3 5.28 3 8 C2.01 7.67 1.02 7.34 0 7 C0 4.69 0 2.38 0 0 Z " fill="#F7D8C6" transform="translate(314,493)"/>
<path d="M0 0 C2.97 0 5.94 0 9 0 C9 0.66 9 1.32 9 2 C4.545 2.495 4.545 2.495 0 3 C0 2.01 0 1.02 0 0 Z " fill="#F7ECE3" transform="translate(321,497)"/>
<path d="M0 0 C3.3 0 6.6 0 10 0 C10 0.66 10 1.32 10 2 C7.36 2.33 4.72 2.66 2 3 C2 2.34 2 1.68 2 1 C1.34 0.67 0.68 0.34 0 0 Z " fill="#F5EBE6" transform="translate(328,541)"/>
<path d="M0 0 C0.66 0 1.32 0 2 0 C2.33 2.97 2.66 5.94 3 9 C2.01 8.67 1.02 8.34 0 8 C0 5.36 0 2.72 0 0 Z " fill="#F3F0EC" transform="translate(346,515)"/>
<path d="M0 0 C1.32 0.66 2.64 1.32 4 2 C3.625 3.9375 3.625 3.9375 3 6 C2.01 6.495 2.01 6.495 1 7 C0.34 6.67 -0.32 6.34 -1 6 C-0.67 4.02 -0.34 2.04 0 0 Z " fill="#EF793F" transform="translate(354,504)"/>
<path d="M0 0 C0.66 0 1.32 0 2 0 C1.34 1.32 0.68 2.64 0 4 C-2.31 4 -4.62 4 -7 4 C-7.33 3.34 -7.66 2.68 -8 2 C-6.865625 1.855625 -5.73125 1.71125 -4.5625 1.5625 C-1.19222799 1.38828522 -1.19222799 1.38828522 0 0 Z " fill="#315777" transform="translate(572,561)"/>
<path d="M0 0 C-0.66 1.32 -1.32 2.64 -2 4 C-4.31 4 -6.62 4 -9 4 C-9 3.34 -9 2.68 -9 2 C-2.25 0 -2.25 0 0 0 Z " fill="#32597B" transform="translate(864,561)"/>
<path d="M0 0 C0.33 0.66 0.66 1.32 1 2 C1.99 2.33 2.98 2.66 4 3 C3.34 3.66 2.68 4.32 2 5 C1.53837573 7.43252661 1.53837573 7.43252661 1.375 10.125 C1.30023437 11.03507813 1.22546875 11.94515625 1.1484375 12.8828125 C1.09945312 13.58148437 1.05046875 14.28015625 1 15 C0.67 15 0.34 15 0 15 C0 10.05 0 5.1 0 0 Z " fill="#193E5F" transform="translate(744,549)"/>
<path d="M0 0 C5.66153846 2.46153846 5.66153846 2.46153846 7.375 5.1875 C7.58125 5.785625 7.7875 6.38375 8 7 C4.66272214 5.82744291 2.22562513 4.81131596 0 2 C0 1.34 0 0.68 0 0 Z " fill="#EE783F" transform="translate(209,548)"/>
<path d="M0 0 C1.98 0 3.96 0 6 0 C5.34 1.32 4.68 2.64 4 4 C2.35 4 0.7 4 -1 4 C-0.67 2.68 -0.34 1.36 0 0 Z " fill="#F9E3D5" transform="translate(214,532)"/>
<path d="M0 0 C0.99 0 1.98 0 3 0 C3.93423645 3.01031744 4.04449911 3.86650268 3 7 C2.01 7 1.02 7 0 7 C-0.93423645 3.98968256 -1.04449911 3.13349732 0 0 Z " fill="#3D6381" transform="translate(792,558)"/>
<path d="M0 0 C0.99 0 1.98 0 3 0 C3.66 0.99 4.32 1.98 5 3 C7.05003955 4.19232613 7.05003955 4.19232613 9 5 C6.69 5 4.38 5 2 5 C1.34 3.35 0.68 1.7 0 0 Z " fill="#18436A" transform="translate(564,520)"/>
<path d="M0 0 C0.99 0 1.98 0 3 0 C3 2.31 3 4.62 3 7 C2.01 6.67 1.02 6.34 0 6 C0 4.02 0 2.04 0 0 Z " fill="#F8D9C7" transform="translate(317,516)"/>
<path d="M0 0 C2.31 0 4.62 0 7 0 C6.67 0.99 6.34 1.98 6 3 C4.02 3 2.04 3 0 3 C0 2.01 0 1.02 0 0 Z " fill="#F9EAE0" transform="translate(323,508)"/>
<path d="M0 0 C0.99 0 1.98 0 3 0 C3 2.31 3 4.62 3 7 C2.01 6.67 1.02 6.34 0 6 C0 4.02 0 2.04 0 0 Z " fill="#F8DACB" transform="translate(231,503)"/>
<path d="M0 0 C2.31 0 4.62 0 7 0 C7 0.99 7 1.98 7 3 C5.1875 3.625 5.1875 3.625 3 4 C2.01 3.34 1.02 2.68 0 2 C0 1.34 0 0.68 0 0 Z " fill="#EFF2F4" transform="translate(828,558)"/>
<path d="M0 0 C0.99 0.33 1.98 0.66 3 1 C3 3.64 3 6.28 3 9 C2.34 9 1.68 9 1 9 C0.67 6.03 0.34 3.06 0 0 Z " fill="#284E6F" transform="translate(706,552)"/>
<path d="M0 0 C0.99 0.33 1.98 0.66 3 1 C3.33 3.31 3.66 5.62 4 8 C1.10067643 5.60490662 0.49831724 3.68754757 0 0 Z " fill="#2F5473" transform="translate(760,549)"/>
<path d="M0 0 C1.98 0 3.96 0 6 0 C5.67 0.99 5.34 1.98 5 3 C3.02 3 1.04 3 -1 3 C-0.67 2.01 -0.34 1.02 0 0 Z " fill="#F9EEE6" transform="translate(241,480)"/>
<path d="M0 0 C1.98 0 3.96 0 6 0 C5.67 0.99 5.34 1.98 5 3 C3.35 3 1.7 3 0 3 C0 2.01 0 1.02 0 0 Z " fill="#456981" transform="translate(686,562)"/>
<path d="M0 0 C0.66 0 1.32 0 2 0 C2.33 2.31 2.66 4.62 3 7 C2.01 7 1.02 7 0 7 C0 4.69 0 2.38 0 0 Z " fill="#FADFD0" transform="translate(236,537)"/>
<path d="M0 0 C0.66 0 1.32 0 2 0 C2.33 2.31 2.66 4.62 3 7 C2.01 7 1.02 7 0 7 C0 4.69 0 2.38 0 0 Z " fill="#F9E5D8" transform="translate(233,514)"/>
<path d="M0 0 C0.99 0 1.98 0 3 0 C3.33 2.31 3.66 4.62 4 7 C3.01 7 2.02 7 1 7 C0.67 4.69 0.34 2.38 0 0 Z " fill="#FAE9DF" transform="translate(312,482)"/>
<path d="M0 0 C0.99 0 1.98 0 3 0 C2 3 2 3 0 4 C-1.99960012 4.039992 -4.00047242 4.04346799 -6 4 C-5.38125 3.71125 -4.7625 3.4225 -4.125 3.125 C-1.86674235 2.06279958 -1.86674235 2.06279958 0 0 Z " fill="#426483" transform="translate(832,561)"/>
<path d="M0 0 C0.99 0 1.98 0 3 0 C2.67 1.98 2.34 3.96 2 6 C1.01 6 0.02 6 -1 6 C-0.67 4.02 -0.34 2.04 0 0 Z " fill="#264E73" transform="translate(766,562)"/>
<path d="M0 0 C0.66 0 1.32 0 2 0 C1.6875 1.875 1.6875 1.875 1 4 C0.01 4.66 -0.98 5.32 -2 6 C-2 2 -2 2 0 0 Z " fill="#EFF0ED" transform="translate(344,528)"/>
<path d="M0 0 C0.99 0.33 1.98 0.66 3 1 C2.34 1.66 1.68 2.32 1 3 C0.53993654 5.20250992 0.53993654 5.20250992 0.375 7.625 C0.30023438 8.44226563 0.22546875 9.25953125 0.1484375 10.1015625 C0.07496094 11.04128906 0.07496094 11.04128906 0 12 C-0.33 12 -0.66 12 -1 12 C-1.02687279 10.18757948 -1.04633715 8.37504767 -1.0625 6.5625 C-1.07410156 5.55316406 -1.08570313 4.54382813 -1.09765625 3.50390625 C-1 1 -1 1 0 0 Z " fill="#F2D1C0" transform="translate(260,495)"/>
<path d="M0 0 C0.66 0.33 1.32 0.66 2 1 C0.95125002 3.62187494 0.35068687 4.79371361 -2.125 6.25 C-2.74375 6.4975 -3.3625 6.745 -4 7 C-3.43628586 3.73045798 -2.50037734 2.17424117 0 0 Z " fill="#2C5173" transform="translate(467,492)"/>
<path d="M0 0 C1.65 0 3.3 0 5 0 C5.33 0.99 5.66 1.98 6 3 C4.02 3 2.04 3 0 3 C0 2.01 0 1.02 0 0 Z " fill="#F5ECE6" transform="translate(329,485)"/>
</svg>
