<svg version="1.1" id="Layer_1" xmlns="http://www.w3.org/2000/svg" xmlns:xlink="http://www.w3.org/1999/xlink" x="0px" y="0px"
	 width="100%" viewBox="0 0 296 258" enable-background="new 0 0 296 258" xml:space="preserve">
<path fill="#FDFDFD" opacity="1.000000" stroke="none" 
	d="
M176.000000,259.000000 
	C117.333344,259.000000 59.166679,259.000000 1.000016,259.000000 
	C1.000010,173.000015 1.000010,87.000038 1.000005,1.000039 
	C99.666634,1.000026 198.333267,1.000026 296.999939,1.000013 
	C296.999939,86.999962 296.999939,172.999924 296.999969,258.999939 
	C256.833344,259.000000 216.666672,259.000000 176.000000,259.000000 
M17.311045,57.008190 
	C17.239313,57.340244 17.167580,57.672295 16.937538,58.825356 
	C16.690174,61.295155 16.230585,63.764717 16.227877,66.234787 
	C16.196690,94.678467 16.213881,123.122276 16.265163,151.565964 
	C16.284643,162.370071 16.424953,173.173950 16.330248,184.501694 
	C16.391939,184.675690 16.453630,184.849670 16.311300,185.839508 
	C16.493490,188.245026 16.675680,190.650528 16.778097,193.814346 
	C18.377783,201.133865 23.291605,205.140350 30.190853,207.037659 
	C38.367325,209.286224 46.671619,211.114166 54.751728,213.660110 
	C73.766487,219.651459 92.680916,225.961227 112.166527,232.662994 
	C117.380173,234.807892 122.593826,236.952774 128.203568,239.649933 
	C129.854507,241.015213 131.949585,242.085510 133.084183,243.793732 
	C140.322525,254.691666 155.315140,255.933441 164.309357,244.467743 
	C165.479553,242.976013 166.835938,241.630356 168.321106,239.977783 
	C164.994049,239.977783 161.918076,239.977783 158.037277,239.977783 
	C158.037277,231.500168 158.037277,223.251236 158.261719,214.349060 
	C158.378342,213.907974 158.494965,213.466888 159.236801,213.034195 
	C160.897430,213.702744 162.558060,214.371307 164.530243,215.917023 
	C164.593872,221.955353 164.657501,227.993683 164.449448,234.142883 
	C164.614365,234.210602 164.779297,234.278305 165.857376,234.456955 
	C171.349655,234.507263 176.852539,234.759827 182.327103,234.472397 
	C183.782349,234.395996 185.900253,232.966614 186.438644,231.640625 
	C190.297867,222.136063 196.848907,216.935242 205.663025,216.882919 
	C214.970001,216.827667 221.488770,221.804352 225.254272,231.677582 
	C225.668747,232.764313 226.691101,234.422516 227.468231,234.443329 
	C235.203156,234.650467 242.945816,234.568909 250.475922,234.568909 
	C250.475922,184.941467 250.475922,136.209381 250.475922,87.381653 
	C242.012817,87.381653 233.964371,87.381653 226.038193,87.381653 
	C222.376404,98.595505 215.558746,104.263084 205.646545,104.591919 
	C196.552582,104.893600 190.216888,99.476013 185.282333,87.033371 
	C179.397446,87.033371 173.418762,86.946297 167.447906,87.122993 
	C166.502762,87.150963 165.592834,88.368797 164.269989,89.508408 
	C164.412003,90.662399 164.554031,91.816391 164.812057,93.903877 
	C164.731689,110.859299 164.651321,127.814720 164.090714,145.473541 
	C164.254074,150.061722 164.417419,154.649887 164.550171,160.143494 
	C164.428024,171.081894 164.305893,182.020294 163.558701,192.989136 
	C161.916214,193.316574 160.273727,193.644012 158.360580,193.336975 
	C158.259644,192.890472 158.158691,192.443970 158.264618,191.079819 
	C158.201141,180.054550 158.137665,169.029297 158.288803,157.324707 
	C158.333710,156.614227 158.378616,155.903748 158.926910,155.155914 
	C158.760315,154.704956 158.593719,154.253983 158.378464,152.893417 
	C158.469025,144.031174 158.559570,135.168930 158.932938,125.659698 
	C158.650940,125.227531 158.368942,124.795364 158.086945,124.363190 
	C157.774734,124.948524 157.462524,125.533852 157.023666,126.125557 
	C157.023666,126.125557 156.990738,126.003113 156.079163,125.999687 
	C154.866013,125.941078 153.652847,125.882462 152.580032,125.053474 
	C154.101547,120.381508 155.623062,115.709534 157.631042,110.602791 
	C157.819061,109.761803 158.007080,108.920807 158.566925,107.717659 
	C158.045761,107.221283 157.524612,106.724907 156.418121,105.868843 
	C154.532028,103.913307 152.645950,101.957779 150.562912,99.283775 
	C150.385574,98.338928 150.025818,97.385925 150.067657,96.450882 
	C150.164459,94.287308 151.133331,91.493095 147.840500,91.267044 
	C145.822815,91.128532 143.207489,91.767578 141.739761,93.057701 
	C137.607788,96.689674 133.168381,97.703125 127.421349,95.882126 
	C125.013138,93.121063 122.604927,90.359993 120.216133,86.870438 
	C120.190857,85.907913 120.165581,84.945381 120.613297,83.539688 
	C120.745171,82.693123 120.877045,81.846565 121.623497,80.728561 
	C123.415405,78.856262 125.207306,76.983955 127.690193,75.156181 
	C133.681656,78.686234 138.212692,84.438370 145.587509,85.964172 
	C149.868347,86.849854 153.869019,89.089706 158.236084,90.815140 
	C160.604080,82.953957 165.130676,78.142525 171.599670,75.224915 
	C176.439224,73.042198 181.290009,70.764587 186.342529,69.194550 
	C208.520401,62.302864 230.773468,55.653191 253.835953,48.972019 
	C256.096039,48.595142 258.356110,48.218269 260.924255,47.790020 
	C261.114044,50.737549 261.282623,53.355690 261.242767,56.874260 
	C261.308624,60.258450 261.374481,63.642635 261.244415,67.941025 
	C261.293335,75.957542 261.342255,83.974068 261.196747,92.903000 
	C261.267090,97.272354 261.337433,101.641708 261.218262,106.929245 
	C261.273804,126.949501 261.329315,146.969757 261.190735,167.732269 
	C261.253937,168.491104 261.317139,169.249924 261.195160,170.908798 
	C260.700745,174.966461 261.439789,179.836624 259.426117,182.893524 
	C256.317505,187.612671 256.710022,192.125473 256.845276,197.911011 
	C256.845276,201.852921 256.845276,205.794846 256.845276,210.086594 
	C261.772156,208.828217 266.186768,207.961487 270.424591,206.560043 
	C277.606262,204.185028 281.691071,199.049866 282.293457,191.469666 
	C282.542145,188.339706 282.220917,185.164474 282.371429,181.106812 
	C282.298492,177.401535 282.225555,173.696243 282.387695,169.086655 
	C282.320404,158.728973 282.253113,148.371292 282.408539,137.226181 
	C282.332703,136.146118 282.256836,135.066055 282.422852,133.076065 
	C282.350769,113.388008 282.278687,93.699944 282.439087,73.098488 
	C282.094635,66.510620 284.081024,59.508366 278.804260,53.138721 
	C275.877197,51.409950 272.950165,49.681175 269.329834,47.503899 
	C266.892853,47.305294 264.455841,47.106689 261.846588,46.894051 
	C261.617096,42.456059 261.396790,38.195015 261.417786,33.145226 
	C261.327545,31.783617 261.237305,30.422009 261.414795,28.565012 
	C260.944305,27.812717 260.473785,27.060423 259.240936,26.263927 
	C257.489532,26.652752 255.738113,27.041576 253.224426,27.412964 
	C249.810089,28.256355 246.395767,29.099747 242.166550,29.899208 
	C223.540329,35.381458 204.775467,40.440742 186.333801,46.485973 
	C172.714355,50.950470 158.682159,55.204311 150.107773,66.349220 
	C143.969864,62.080906 138.690460,56.904972 132.354492,54.259682 
	C102.243866,41.688374 71.142433,32.164818 38.318142,26.042734 
	C38.070316,27.032907 37.822491,28.023079 37.339031,29.915571 
	C37.548672,35.960190 37.758316,42.004807 38.022133,48.012386 
	C38.022133,48.012386 38.068420,47.965866 37.181801,47.823681 
	C34.065781,48.012070 30.949762,48.200459 27.101685,48.482483 
	C24.677837,50.214725 22.253990,51.946968 19.251875,54.007683 
	C18.766506,54.947235 18.281137,55.886791 17.961618,56.983837 
	C17.961618,56.983837 17.820698,56.803722 17.311045,57.008190 
M227.522736,76.545715 
	C228.471512,76.098419 229.420288,75.651123 230.719101,75.525261 
	C231.138885,75.348007 231.558670,75.170753 232.771835,75.042007 
	C237.783890,73.566002 242.795944,72.089996 247.699158,70.646049 
	C247.699158,68.432655 247.699158,66.662521 247.699158,64.046326 
	C242.182877,65.822807 237.094162,67.461594 231.225433,68.941689 
	C226.483475,70.369164 221.741531,71.796646 216.252457,73.240822 
	C209.686661,75.370621 203.120865,77.500420 196.241531,79.731926 
	C197.164154,82.110825 197.852509,83.885635 198.662125,85.973137 
	C206.674637,83.233795 214.333237,80.615448 222.651642,78.030922 
	C224.061020,77.554932 225.470413,77.078941 227.522736,76.545715 
z"/>
<path fill="#F48524" opacity="1.000000" stroke="none" 
	d="
M164.721146,234.032013 
	C164.657501,227.993683 164.593872,221.955353 164.524200,215.028320 
	C164.406693,207.079315 164.295227,200.019012 164.183746,192.958694 
	C164.305893,182.020294 164.428024,171.081894 164.924622,159.421570 
	C165.056351,154.056473 164.813644,149.413300 164.570953,144.770142 
	C164.651321,127.814720 164.731689,110.859299 164.859955,93.051300 
	C164.827454,91.144653 164.747040,90.090576 164.666626,89.036514 
	C165.592834,88.368797 166.502762,87.150963 167.447906,87.122993 
	C173.418762,86.946297 179.397446,87.033371 185.282333,87.033371 
	C190.216888,99.476013 196.552582,104.893600 205.646545,104.591919 
	C215.558746,104.263084 222.376404,98.595505 226.038193,87.381653 
	C233.964371,87.381653 242.012817,87.381653 250.475922,87.381653 
	C250.475922,136.209381 250.475922,184.941467 250.475922,234.568909 
	C242.945816,234.568909 235.203156,234.650467 227.468231,234.443329 
	C226.691101,234.422516 225.668747,232.764313 225.254272,231.677582 
	C221.488770,221.804352 214.970001,216.827667 205.663025,216.882919 
	C196.848907,216.935242 190.297867,222.136063 186.438644,231.640625 
	C185.900253,232.966614 183.782349,234.395996 182.327103,234.472397 
	C176.852539,234.759827 171.349655,234.507263 165.416504,234.272217 
	C164.975632,234.087463 164.721146,234.032013 164.721146,234.032013 
M186.951080,171.479431 
	C186.952560,174.142883 186.934784,176.806534 186.959305,179.469772 
	C187.021683,186.246353 189.824554,187.982788 195.650726,184.604172 
	C206.010605,178.596466 216.312302,172.485962 226.565475,166.297729 
	C232.620651,162.643173 232.662964,160.422989 226.724487,156.766586 
	C216.102402,150.226440 205.415131,143.790436 194.693176,137.415009 
	C189.592636,134.382156 186.923615,135.986786 186.897324,142.020111 
	C186.855957,151.508286 186.925201,160.996933 186.951080,171.479431 
z"/>
<path fill="#FCFCFB" opacity="1.000000" stroke="none" 
	d="
M152.439697,125.823853 
	C153.652847,125.882462 154.866013,125.941078 156.547638,126.389740 
	C154.415909,134.852478 151.815674,142.925171 149.042328,151.329071 
	C147.751923,155.001205 146.634644,158.342102 145.303772,162.033020 
	C135.748199,180.794632 135.083221,200.680649 136.483810,221.268509 
	C131.572296,218.690918 127.919266,216.773773 124.016876,214.593201 
	C99.666260,206.539764 75.605240,198.621338 51.436043,191.048111 
	C45.224979,189.101929 40.105400,186.460556 37.824287,179.526276 
	C37.791412,152.821594 37.778904,126.585152 37.689201,100.348961 
	C37.647793,88.237900 37.455551,76.127350 37.471672,63.586586 
	C37.482857,59.741722 37.354057,56.326839 37.311901,52.677963 
	C37.398540,52.443974 37.210915,51.981556 37.331284,51.655937 
	C37.657242,50.208836 37.862831,49.087353 38.068420,47.965866 
	C38.068420,47.965866 38.022133,48.012386 38.400841,48.027916 
	C54.202297,51.938885 69.801193,55.257462 84.996552,59.897541 
	C99.219780,64.240768 113.015396,69.984352 126.999207,75.111649 
	C125.207306,76.983955 123.415405,78.856262 120.996216,80.883385 
	C120.156578,81.061554 119.944221,81.084900 119.530243,81.105949 
	C119.328621,81.103653 119.005234,80.862694 118.962509,80.571503 
	C118.258606,80.244499 117.597435,80.208679 116.525665,80.148575 
	C114.910225,80.221588 112.945122,79.895241 112.618301,80.481781 
	C109.394585,86.267159 104.125252,86.719177 98.498924,85.894737 
	C97.369514,88.942238 96.341255,91.554520 95.428398,94.206520 
	C89.829460,110.472389 84.256630,126.747253 78.447739,143.271149 
	C77.402077,145.974838 76.583778,148.426514 75.468735,151.097015 
	C73.071281,157.911301 70.970573,164.506714 68.795563,171.335434 
	C76.086769,173.472488 78.592262,178.411270 77.193687,185.417007 
	C79.753494,186.223953 81.938347,186.912689 84.185722,187.621140 
	C88.281944,181.278290 93.811119,179.024643 101.135880,181.389221 
	C102.175034,182.163910 103.044800,182.684280 104.056412,183.522095 
	C105.815315,187.805862 107.432381,191.772202 109.339836,196.450806 
	C110.347664,196.776779 112.355522,197.426178 114.690826,198.181488 
	C116.644638,192.875778 120.476555,190.459579 126.321243,190.916351 
	C131.886169,192.675613 130.057526,188.083893 131.230789,185.752701 
	C131.641098,184.799301 131.907364,184.100159 132.425110,183.114212 
	C134.876221,175.880325 137.075851,168.933243 139.447327,161.865204 
	C139.823776,161.538681 139.951416,161.293091 140.089111,160.761444 
	C140.176147,160.341385 140.176147,160.167374 140.425323,159.735977 
	C142.115540,154.985855 143.556610,150.493149 145.221863,145.723236 
	C145.707809,144.294159 145.969543,143.142273 146.410553,141.866852 
	C146.806396,141.534134 146.941299,141.281372 147.133698,140.646698 
	C148.995148,135.480240 150.717422,130.652039 152.439697,125.823853 
M82.901123,110.274536 
	C81.542953,110.048386 80.184776,109.822227 78.040321,109.473686 
	C69.169952,106.915344 60.299583,104.357002 51.441639,101.802238 
	C49.977428,106.619957 51.356373,108.932564 56.262112,109.991547 
	C62.560715,111.351204 68.641075,113.701538 74.851326,115.501312 
	C77.181198,116.176529 79.611649,116.504662 82.003571,117.707558 
	C82.269821,118.329941 82.536064,118.952316 82.802307,119.574699 
	C82.487297,116.596474 87.096077,113.703140 83.013481,111.007881 
	C83.013481,111.007881 83.020302,110.956299 82.901123,110.274536 
M74.572731,89.815346 
	C74.394402,89.820442 74.216080,89.825539 73.511116,89.362129 
	C71.685410,88.903549 69.859695,88.444977 67.817131,87.700638 
	C67.599106,87.521904 67.377464,87.517235 66.409912,87.222466 
	C61.465485,85.798203 56.521057,84.373932 51.313877,82.873978 
	C51.313877,85.339638 51.313877,87.538948 51.313877,89.863579 
	C55.714241,90.951637 59.857376,91.976082 64.203957,93.262573 
	C64.203957,93.262573 64.513809,93.376793 64.513809,93.376793 
	C64.513809,93.376793 64.813530,93.238350 65.427734,93.703728 
	C66.633583,94.130493 67.839439,94.557251 69.111458,95.521347 
	C69.412857,95.560738 69.714249,95.600128 70.824150,95.689720 
	C76.174423,97.276802 81.524704,98.863884 87.333931,100.587112 
	C88.018906,98.368019 88.618126,96.426743 89.374130,93.977547 
	C84.563278,92.775497 80.262512,91.700897 75.738693,90.325211 
	C75.551971,90.149124 75.333389,90.033035 74.572731,89.815346 
M76.640541,78.243355 
	C82.102669,80.087486 87.564789,81.931610 93.408638,83.904617 
	C94.147232,81.743668 94.808899,79.807785 95.729965,77.112968 
	C88.730339,75.350029 82.363609,73.746498 75.346466,71.820152 
	C67.452888,69.207497 59.559307,66.594833 51.176994,63.820415 
	C51.176994,66.854080 51.176994,68.795212 51.176994,71.080940 
	C59.474846,73.350861 67.737335,75.611107 76.640541,78.243355 
M72.140083,133.245468 
	C77.737076,135.813721 76.329453,130.889801 77.793945,128.138031 
	C68.760162,125.354408 60.126190,122.693977 51.404724,120.006584 
	C50.190430,124.770561 50.954647,127.477631 56.130993,128.446686 
	C61.313328,129.416855 66.293480,131.467026 72.140083,133.245468 
z"/>
<path fill="#20467D" opacity="1.000000" stroke="none" 
	d="
M127.344696,75.133911 
	C113.015396,69.984352 99.219780,64.240768 84.996552,59.897541 
	C69.801193,55.257462 54.202297,51.938885 38.373756,48.046432 
	C37.758316,42.004807 37.548672,35.960190 37.733322,29.373829 
	C38.420528,27.958229 38.713444,27.084368 39.006355,26.210508 
	C71.142433,32.164818 102.243866,41.688374 132.354492,54.259682 
	C138.690460,56.904972 143.969864,62.080906 150.107773,66.349220 
	C158.682159,55.204311 172.714355,50.950470 186.333801,46.485973 
	C204.775467,40.440742 223.540329,35.381458 242.612640,30.283030 
	C243.997910,32.198250 244.621262,34.662941 245.928940,35.105450 
	C252.976059,37.490200 252.554733,43.357517 252.999268,48.915764 
	C230.773468,55.653191 208.520401,62.302864 186.342529,69.194550 
	C181.290009,70.764587 176.439224,73.042198 171.599670,75.224915 
	C165.130676,78.142525 160.604080,82.953957 158.236084,90.815140 
	C153.869019,89.089706 149.868347,86.849854 145.587509,85.964172 
	C138.212692,84.438370 133.681656,78.686234 127.344696,75.133911 
z"/>
<path fill="#1E4278" opacity="1.000000" stroke="none" 
	d="
M37.331696,64.016571 
	C37.455551,76.127350 37.647793,88.237900 37.689201,100.348961 
	C37.778904,126.585152 37.791412,152.821594 37.482025,179.570312 
	C34.374016,182.813248 31.337219,185.318527 28.934219,188.329636 
	C25.713419,192.365463 22.489294,195.552795 16.857868,193.056046 
	C16.675680,190.650528 16.493490,188.245026 16.609512,185.406097 
	C16.775213,184.641098 16.642706,184.309509 16.510195,183.977936 
	C16.424953,173.173950 16.284643,162.370071 16.265163,151.565964 
	C16.213881,123.122276 16.196690,94.678467 16.227877,66.234787 
	C16.230585,63.764717 16.690174,61.295155 17.202997,58.256756 
	C17.719618,57.446621 17.837032,57.151810 17.820698,56.803722 
	C17.820698,56.803722 17.961618,56.983837 18.250601,56.873741 
	C18.969770,55.735504 19.399958,54.707359 19.830145,53.679214 
	C22.253990,51.946968 24.677837,50.214725 27.624523,48.801636 
	C31.168545,50.074375 34.189728,51.027966 37.210915,51.981560 
	C37.210915,51.981556 37.398540,52.443974 36.987000,52.940849 
	C36.827538,56.964005 37.079617,60.490288 37.331696,64.016571 
z"/>
<path fill="#23477E" opacity="1.000000" stroke="none" 
	d="
M261.407776,106.011063 
	C261.337433,101.641708 261.267090,97.272354 261.610077,92.389542 
	C265.884949,87.489876 270.513947,83.548027 273.385437,78.588577 
	C276.088104,73.920715 276.672516,72.682549 282.206604,74.011887 
	C282.278687,93.699944 282.350769,113.388008 281.935913,133.585556 
	C279.169983,135.875961 279.237854,137.215561 282.185791,138.013611 
	C282.253113,148.371292 282.320404,158.728973 281.862549,169.538574 
	C280.392365,169.806076 279.454437,169.531082 278.500824,169.456558 
	C276.671570,169.313599 274.833374,169.284393 272.998901,169.207993 
	C273.044128,171.660339 272.108276,174.998993 273.348450,176.371811 
	C275.603027,178.867493 279.150787,180.194885 282.158905,182.009827 
	C282.220917,185.164474 282.542145,188.339706 282.293457,191.469666 
	C281.691071,199.049866 277.606262,204.185028 270.424591,206.560043 
	C266.186768,207.961487 261.772156,208.828217 256.845276,210.086594 
	C256.845276,205.794846 256.845276,201.852921 257.299561,197.416656 
	C265.359558,195.571320 265.774719,195.139206 264.938995,187.401260 
	C264.514526,183.470886 263.747040,179.571411 262.993500,175.685318 
	C262.620422,173.761200 261.928192,171.898987 261.380341,170.008759 
	C261.317139,169.249924 261.253937,168.491104 261.648224,167.226410 
	C262.404144,165.325485 262.951813,163.932114 262.961334,162.535065 
	C263.034058,151.883057 262.719177,141.219040 263.143219,130.583420 
	C263.309387,126.415054 262.015594,121.305359 267.810242,118.755844 
	C269.928558,117.823830 269.787140,115.343445 266.960327,113.953728 
	C265.642212,113.305702 264.630127,111.829941 263.754791,110.542130 
	C262.805359,109.145355 262.176453,107.530701 261.407776,106.011063 
z"/>
<path fill="#254A7F" opacity="1.000000" stroke="none" 
	d="
M16.817982,193.435196 
	C22.489294,195.552795 25.713419,192.365463 28.934219,188.329636 
	C31.337219,185.318527 34.374016,182.813248 37.470825,180.038666 
	C40.105400,186.460556 45.224979,189.101929 51.436043,191.048111 
	C75.605240,198.621338 99.666260,206.539764 123.715332,214.808350 
	C119.654076,220.905319 115.645012,226.523727 111.635948,232.142136 
	C92.680916,225.961227 73.766487,219.651459 54.751728,213.660110 
	C46.671619,211.114166 38.367325,209.286224 30.190853,207.037659 
	C23.291605,205.140350 18.377783,201.133865 16.817982,193.435196 
z"/>
<path fill="#1C4379" opacity="1.000000" stroke="none" 
	d="
M111.901237,232.402557 
	C115.645012,226.523727 119.654076,220.905319 123.964691,215.071777 
	C127.919266,216.773773 131.572296,218.690918 136.483810,221.268509 
	C135.083221,200.680649 135.748199,180.794632 145.413574,162.546997 
	C147.498230,168.385101 147.057571,173.688797 143.772949,178.854126 
	C143.083633,179.938110 143.497253,182.640274 144.428253,183.664810 
	C147.152267,186.662552 150.255112,189.377548 153.515350,191.790009 
	C154.526825,192.538467 156.516129,191.965469 158.057755,191.997467 
	C158.158691,192.443970 158.259644,192.890472 158.364655,194.107910 
	C158.449692,200.927841 158.530640,206.976822 158.611572,213.025803 
	C158.494965,213.466888 158.378342,213.907974 157.730301,214.675262 
	C153.990601,216.309692 150.443954,217.126678 147.656830,219.046371 
	C143.890884,221.640244 141.059647,225.661163 137.184357,228.008102 
	C132.640381,230.760025 128.973419,233.728806 127.807472,239.097672 
	C122.593826,236.952774 117.380173,234.807892 111.901237,232.402557 
z"/>
<path fill="#1F467D" opacity="1.000000" stroke="none" 
	d="
M128.005524,239.373810 
	C128.973419,233.728806 132.640381,230.760025 137.184357,228.008102 
	C141.059647,225.661163 143.890884,221.640244 147.656830,219.046371 
	C150.443954,217.126678 153.990601,216.309692 157.618073,215.001892 
	C158.037277,223.251236 158.037277,231.500168 158.037277,239.977783 
	C161.918076,239.977783 164.994049,239.977783 168.321106,239.977783 
	C166.835938,241.630356 165.479553,242.976013 164.309357,244.467743 
	C155.315140,255.933441 140.322525,254.691666 133.084183,243.793732 
	C131.949585,242.085510 129.854507,241.015213 128.005524,239.373810 
z"/>
<path fill="#234579" opacity="1.000000" stroke="none" 
	d="
M119.005234,80.862694 
	C119.005234,80.862694 119.328621,81.103653 119.597847,81.463837 
	C119.958153,82.543625 120.049225,83.263245 120.140305,83.982857 
	C120.165581,84.945381 120.190857,85.907913 120.042488,87.577316 
	C118.821098,91.058449 117.773354,93.832687 116.442978,96.367760 
	C115.196304,94.638458 114.232262,93.148338 113.224716,91.590981 
	C111.998238,92.256439 111.029999,92.917480 109.964371,93.321938 
	C108.892395,93.728813 107.736107,93.974869 106.594841,94.126778 
	C102.648003,94.652092 101.292854,96.806564 102.139160,100.748016 
	C102.401276,101.968735 102.152817,103.538475 101.568878,104.649147 
	C100.516289,106.651245 98.633148,108.266830 97.807045,110.328415 
	C95.343712,116.475739 93.224800,122.761093 90.601303,128.952301 
	C88.233040,128.275162 85.776283,127.027397 85.222458,130.318512 
	C84.617302,133.914719 87.792953,132.682999 89.501495,133.521347 
	C88.009880,137.751053 86.605545,141.593506 84.999146,145.091797 
	C82.756424,144.171463 80.715767,143.595291 78.675110,143.019119 
	C84.256630,126.747253 89.829460,110.472389 95.428398,94.206520 
	C96.341255,91.554520 97.369514,88.942238 98.498924,85.894737 
	C104.125252,86.719177 109.394585,86.267159 112.618301,80.481781 
	C112.945122,79.895241 114.910225,80.221588 116.716721,80.365959 
	C117.880669,80.692642 118.442947,80.777664 119.005234,80.862694 
z"/>
<path fill="#1E467D" opacity="1.000000" stroke="none" 
	d="
M158.161194,191.538635 
	C156.516129,191.965469 154.526825,192.538467 153.515350,191.790009 
	C150.255112,189.377548 147.152267,186.662552 144.428253,183.664810 
	C143.497253,182.640274 143.083633,179.938110 143.772949,178.854126 
	C147.057571,173.688797 147.498230,168.385101 145.627167,162.196991 
	C146.634644,158.342102 147.751923,155.001205 149.384979,151.378998 
	C150.943985,152.270721 152.473495,153.282440 152.927444,154.650940 
	C153.823761,157.352997 155.402237,158.350128 158.074188,158.004028 
	C158.137665,169.029297 158.201141,180.054550 158.161194,191.538635 
z"/>
<path fill="#1E4278" opacity="1.000000" stroke="none" 
	d="
M282.322815,73.555191 
	C276.672516,72.682549 276.088104,73.920715 273.385437,78.588577 
	C270.513947,83.548027 265.884949,87.489876 261.707275,91.933334 
	C261.342255,83.974068 261.293335,75.957542 261.656433,67.577255 
	C263.211914,68.435944 264.355377,69.658417 265.498871,70.880875 
	C266.716461,69.473473 268.646820,68.232330 269.020996,66.628189 
	C270.252228,61.350040 272.754608,57.975258 279.001495,58.897808 
	C279.001495,56.674332 279.001495,55.218315 279.001495,53.762299 
	C284.081024,59.508366 282.094635,66.510620 282.322815,73.555191 
z"/>
<path fill="#1E4278" opacity="1.000000" stroke="none" 
	d="
M253.417603,48.943893 
	C252.554733,43.357517 252.976059,37.490200 245.928940,35.105450 
	C244.621262,34.662941 243.997910,32.198250 243.020081,30.304995 
	C246.395767,29.099747 249.810089,28.256355 253.608551,27.781593 
	C254.267197,32.711369 257.380768,33.746273 261.176453,33.933971 
	C261.396790,38.195015 261.617096,42.456059 261.846588,46.894051 
	C264.455841,47.106689 266.892853,47.305294 269.535431,48.052486 
	C266.977753,51.058662 264.214478,53.516247 261.451172,55.973831 
	C261.282623,53.355690 261.114044,50.737549 260.924255,47.790020 
	C258.356110,48.218269 256.096039,48.595142 253.417603,48.943893 
z"/>
<path fill="#234579" opacity="1.000000" stroke="none" 
	d="
M146.231277,141.990387 
	C145.969543,143.142273 145.707809,144.294159 144.868774,145.664459 
	C142.920456,143.065735 140.605469,143.462601 138.275940,143.680908 
	C140.569580,136.513535 142.807236,129.764832 145.289291,122.840530 
	C145.067825,121.994469 144.601974,121.324005 144.099869,120.289337 
	C145.049026,118.529053 146.034424,117.132980 147.256973,115.799469 
	C147.834549,115.667046 147.940781,115.384125 148.003143,114.699860 
	C148.643066,113.254822 149.092667,112.123192 149.879501,111.013962 
	C153.843536,112.347977 150.936691,114.012596 150.502655,115.587761 
	C150.244431,116.524864 150.234222,117.530304 150.000717,119.400352 
	C152.980408,115.912254 155.062485,113.474907 157.144577,111.037567 
	C155.623062,115.709534 154.101547,120.381508 152.509857,125.438660 
	C150.717422,130.652039 148.995148,135.480240 146.870483,140.694458 
	C146.389145,141.383789 146.310211,141.687088 146.231277,141.990387 
z"/>
<path fill="#26487C" opacity="1.000000" stroke="none" 
	d="
M128.003052,96.264107 
	C133.168381,97.703125 137.607788,96.689674 141.739761,93.057701 
	C143.207489,91.767578 145.822815,91.128532 147.840500,91.267044 
	C151.133331,91.493095 150.164459,94.287308 150.067657,96.450882 
	C150.025818,97.385925 150.385574,98.338928 150.321381,99.693771 
	C146.422485,101.606880 146.641708,104.864952 146.238312,107.762024 
	C145.017105,106.018860 144.077072,104.482132 143.069153,102.658112 
	C142.559998,102.536156 142.118729,102.701492 141.313690,102.927383 
	C135.982468,104.828369 131.005737,105.799713 126.022530,102.781540 
	C126.704086,100.365318 127.353569,98.314713 128.003052,96.264107 
z"/>
<path fill="#23477E" opacity="1.000000" stroke="none" 
	d="
M261.346985,56.424046 
	C264.214478,53.516247 266.977753,51.058662 269.882080,48.276741 
	C272.950165,49.681175 275.877197,51.409950 278.902893,53.450508 
	C279.001495,55.218315 279.001495,56.674332 279.001495,58.897808 
	C272.754608,57.975258 270.252228,61.350040 269.020996,66.628189 
	C268.646820,68.232330 266.716461,69.473473 265.498871,70.880875 
	C264.355377,69.658417 263.211914,68.435944 261.754395,67.120148 
	C261.374481,63.642635 261.308624,60.258450 261.346985,56.424046 
z"/>
<path fill="#1E4278" opacity="1.000000" stroke="none" 
	d="
M261.313019,106.470154 
	C262.176453,107.530701 262.805359,109.145355 263.754791,110.542130 
	C264.630127,111.829941 265.642212,113.305702 266.960327,113.953728 
	C269.787140,115.343445 269.928558,117.823830 267.810242,118.755844 
	C262.015594,121.305359 263.309387,126.415054 263.143219,130.583420 
	C262.719177,141.219040 263.034058,151.883057 262.961334,162.535065 
	C262.951813,163.932114 262.404144,165.325485 261.745270,166.855286 
	C261.329315,146.969757 261.273804,126.949501 261.313019,106.470154 
z"/>
<path fill="#1D4276" opacity="1.000000" stroke="none" 
	d="
M158.181488,157.664368 
	C155.402237,158.350128 153.823761,157.352997 152.927444,154.650940 
	C152.473495,153.282440 150.943985,152.270721 149.558090,151.047791 
	C151.815674,142.925171 154.415909,134.852478 157.003433,126.391449 
	C156.990738,126.003113 157.023666,126.125557 157.339417,126.138863 
	C157.986816,126.203674 158.318466,126.255180 158.650131,126.306686 
	C158.559570,135.168930 158.469025,144.031174 158.297302,153.695526 
	C158.285263,154.729523 158.354385,154.961395 158.423523,155.193268 
	C158.378616,155.903748 158.333710,156.614227 158.181488,157.664368 
z"/>
<path fill="#274B7E" opacity="1.000000" stroke="none" 
	d="
M221.991837,77.997101 
	C214.333237,80.615448 206.674637,83.233795 198.662125,85.973137 
	C197.852509,83.885635 197.164154,82.110825 196.241531,79.731926 
	C203.120865,77.500420 209.686661,75.370621 216.627426,73.603882 
	C216.780167,77.644478 219.823608,77.279015 221.991837,77.997101 
z"/>
<path fill="#FAFAFA" opacity="1.000000" stroke="none" 
	d="
M158.924194,213.029999 
	C158.530640,206.976822 158.449692,200.927841 158.500000,194.425171 
	C160.273727,193.644012 161.916214,193.316574 163.871216,192.973907 
	C164.295227,200.019012 164.406693,207.079315 164.368423,214.589752 
	C162.558060,214.371307 160.897430,213.702744 158.924194,213.029999 
z"/>
<path fill="#1E4278" opacity="1.000000" stroke="none" 
	d="
M261.287750,170.458771 
	C261.928192,171.898987 262.620422,173.761200 262.993500,175.685318 
	C263.747040,179.571411 264.514526,183.470886 264.938995,187.401260 
	C265.774719,195.139206 265.359558,195.571320 257.396027,196.960510 
	C256.710022,192.125473 256.317505,187.612671 259.426117,182.893524 
	C261.439789,179.836624 260.700745,174.966461 261.287750,170.458771 
z"/>
<path fill="#20467D" opacity="1.000000" stroke="none" 
	d="
M230.369064,75.203827 
	C229.420288,75.651123 228.471512,76.098419 227.263580,76.175667 
	C228.767441,74.574516 230.530457,73.343422 232.553040,71.931076 
	C232.427414,71.281647 232.216415,70.191017 232.005432,69.100388 
	C237.094162,67.461594 242.182877,65.822807 247.699158,64.046326 
	C247.699158,66.662521 247.699158,68.432655 247.699158,70.646049 
	C242.795944,72.089996 237.783890,73.566002 231.969727,75.046638 
	C230.901428,75.102119 230.635254,75.152977 230.369064,75.203827 
z"/>
<path fill="#26497D" opacity="1.000000" stroke="none" 
	d="
M146.519455,107.968445 
	C146.641708,104.864952 146.422485,101.606880 150.419861,100.053001 
	C152.645950,101.957779 154.532028,103.913307 156.750092,106.341736 
	C157.453079,107.236351 157.824097,107.658081 158.195099,108.079811 
	C158.007080,108.920807 157.819061,109.761803 157.387817,110.820175 
	C155.062485,113.474907 152.980408,115.912254 150.000717,119.400352 
	C150.234222,117.530304 150.244431,116.524864 150.502655,115.587761 
	C150.936691,114.012596 153.843536,112.347977 149.664398,110.788010 
	C148.247849,109.682587 147.383652,108.825516 146.519455,107.968445 
z"/>
<path fill="#1E4278" opacity="1.000000" stroke="none" 
	d="
M282.265167,181.558319 
	C279.150787,180.194885 275.603027,178.867493 273.348450,176.371811 
	C272.108276,174.998993 273.044128,171.660339 272.998901,169.207993 
	C274.833374,169.284393 276.671570,169.313599 278.500824,169.456558 
	C279.454437,169.531082 280.392365,169.806076 281.744995,169.990738 
	C282.225555,173.696243 282.298492,177.401535 282.265167,181.558319 
z"/>
<path fill="#294D82" opacity="1.000000" stroke="none" 
	d="
M127.712204,96.073120 
	C127.353569,98.314713 126.704086,100.365318 125.662262,102.756645 
	C122.421814,100.933891 119.573708,98.770409 116.725609,96.606934 
	C117.773354,93.832687 118.821098,91.058449 120.032784,87.941559 
	C122.604927,90.359993 125.013138,93.121063 127.712204,96.073120 
z"/>
<path fill="#284D84" opacity="1.000000" stroke="none" 
	d="
M231.615433,69.021034 
	C232.216415,70.191017 232.427414,71.281647 232.553040,71.931076 
	C230.530457,73.343422 228.767441,74.574516 226.942108,76.204285 
	C225.470413,77.078941 224.061020,77.554932 222.321747,78.014008 
	C219.823608,77.279015 216.780167,77.644478 217.000977,73.595535 
	C221.741531,71.796646 226.483475,70.369164 231.615433,69.021034 
z"/>
<path fill="#20467D" opacity="1.000000" stroke="none" 
	d="
M261.297119,33.539597 
	C257.380768,33.746273 254.267197,32.711369 253.989685,27.790312 
	C255.738113,27.041576 257.489532,26.652752 259.627991,26.608711 
	C260.392426,27.655794 260.769745,28.358095 261.147095,29.060398 
	C261.237305,30.422009 261.327545,31.783617 261.297119,33.539597 
z"/>
<path fill="#254A7F" opacity="1.000000" stroke="none" 
	d="
M37.331284,51.655941 
	C34.189728,51.027966 31.168545,50.074375 27.990553,48.754814 
	C30.949762,48.200459 34.065781,48.012070 37.625111,47.894775 
	C37.862831,49.087353 37.657242,50.208836 37.331284,51.655941 
z"/>
<path fill="#F27B17" opacity="1.000000" stroke="none" 
	d="
M164.330826,145.121841 
	C164.813644,149.413300 165.056351,154.056473 164.939911,158.968842 
	C164.417419,154.649887 164.254074,150.061722 164.330826,145.121841 
z"/>
<path fill="#1E4278" opacity="1.000000" stroke="none" 
	d="
M282.297180,137.619904 
	C279.237854,137.215561 279.169983,135.875961 281.814941,134.040527 
	C282.256836,135.066055 282.332703,136.146118 282.297180,137.619904 
z"/>
<path fill="#254A7F" opacity="1.000000" stroke="none" 
	d="
M38.662247,26.126621 
	C38.713444,27.084368 38.420528,27.958229 37.851143,28.922668 
	C37.822491,28.023079 38.070316,27.032907 38.662247,26.126621 
z"/>
<path fill="#1E4278" opacity="1.000000" stroke="none" 
	d="
M261.280945,28.812704 
	C260.769745,28.358095 260.392426,27.655794 260.009186,26.630810 
	C260.473785,27.060423 260.944305,27.812717 261.280945,28.812704 
z"/>
<path fill="#3C5C89" opacity="1.000000" stroke="none" 
	d="
M19.541012,53.843449 
	C19.399958,54.707359 18.969770,55.735504 18.167677,56.794998 
	C18.281137,55.886791 18.766506,54.947235 19.541012,53.843449 
z"/>
<path fill="#234579" opacity="1.000000" stroke="none" 
	d="
M158.381012,107.898735 
	C157.824097,107.658081 157.453079,107.236351 157.042755,106.521576 
	C157.524612,106.724907 158.045761,107.221283 158.381012,107.898735 
z"/>
<path fill="#F6ECE0" opacity="1.000000" stroke="none" 
	d="
M164.468307,89.272461 
	C164.747040,90.090576 164.827454,91.144653 164.801956,92.584549 
	C164.554031,91.816391 164.412003,90.662399 164.468307,89.272461 
z"/>
<path fill="#A2B5C6" opacity="1.000000" stroke="none" 
	d="
M158.791534,125.983192 
	C158.318466,126.255180 157.986816,126.203674 157.402725,126.135674 
	C157.462524,125.533852 157.774734,124.948524 158.086945,124.363190 
	C158.368942,124.795364 158.650940,125.227531 158.791534,125.983192 
z"/>
<path fill="#F6F7F6" opacity="1.000000" stroke="none" 
	d="
M120.376801,83.761276 
	C120.049225,83.263245 119.958153,82.543625 119.799469,81.466125 
	C119.944221,81.084900 120.156578,81.061554 120.688927,81.019104 
	C120.877045,81.846565 120.745171,82.693123 120.376801,83.761276 
z"/>
<path fill="#A2B5C6" opacity="1.000000" stroke="none" 
	d="
M158.675217,155.174591 
	C158.354385,154.961395 158.285263,154.729523 158.321625,154.150330 
	C158.593719,154.253983 158.760315,154.704956 158.675217,155.174591 
z"/>
<path fill="#254A7F" opacity="1.000000" stroke="none" 
	d="
M16.420223,184.239807 
	C16.642706,184.309509 16.775213,184.641098 16.711521,184.998169 
	C16.453630,184.849670 16.391939,184.675690 16.420223,184.239807 
z"/>
<path fill="#F4CAA8" opacity="1.000000" stroke="none" 
	d="
M164.959930,234.216736 
	C164.779297,234.278305 164.614365,234.210602 164.585297,234.087448 
	C164.721146,234.032013 164.975632,234.087463 164.959930,234.216736 
z"/>
<path fill="#3C5C89" opacity="1.000000" stroke="none" 
	d="
M17.565872,56.905956 
	C17.837032,57.151810 17.719618,57.446621 17.282150,57.846252 
	C17.167580,57.672295 17.239313,57.340244 17.565872,56.905956 
z"/>
<path fill="#284D84" opacity="1.000000" stroke="none" 
	d="
M230.544083,75.364548 
	C230.635254,75.152977 230.901428,75.102119 231.573029,75.022385 
	C231.558670,75.170753 231.138885,75.348007 230.544083,75.364548 
z"/>
<path fill="#FEFDFB" opacity="1.000000" stroke="none" 
	d="
M186.949341,170.982407 
	C186.925201,160.996933 186.855957,151.508286 186.897324,142.020111 
	C186.923615,135.986786 189.592636,134.382156 194.693176,137.415009 
	C205.415131,143.790436 216.102402,150.226440 226.724487,156.766586 
	C232.662964,160.422989 232.620651,162.643173 226.565475,166.297729 
	C216.312302,172.485962 206.010605,178.596466 195.650726,184.604172 
	C189.824554,187.982788 187.021683,186.246353 186.959305,179.469772 
	C186.934784,176.806534 186.952560,174.142883 186.949341,170.982407 
z"/>
<path fill="#24477D" opacity="1.000000" stroke="none" 
	d="
M100.966492,181.134933 
	C93.811119,179.024643 88.281944,181.278290 84.185722,187.621140 
	C81.938347,186.912689 79.753494,186.223953 77.193687,185.417007 
	C78.592262,178.411270 76.086769,173.472488 68.795563,171.335434 
	C70.970573,164.506714 73.071281,157.911301 75.779053,151.319092 
	C78.293175,152.213470 80.200233,153.104660 82.084274,154.409134 
	C82.444115,157.788589 85.141434,161.302490 79.788162,162.919907 
	C79.250114,163.082474 79.181725,166.860703 79.880096,168.555099 
	C80.847252,170.901657 82.748299,172.863281 84.270401,175.258270 
	C84.742882,175.444916 85.194405,175.363037 86.001381,175.181427 
	C88.568138,174.656876 90.779434,174.232040 93.405441,173.871246 
	C95.215981,173.901917 96.611816,173.868546 98.409775,173.861176 
	C100.310196,174.222351 101.808495,174.557541 102.978401,175.088074 
	C102.088837,177.233917 101.527664,179.184433 100.966492,181.134933 
z"/>
<path fill="#24477D" opacity="1.000000" stroke="none" 
	d="
M125.993309,190.782745 
	C120.476555,190.459579 116.644638,192.875778 114.690826,198.181488 
	C112.355522,197.426178 110.347664,196.776779 109.339836,196.450806 
	C107.432381,191.772202 105.815315,187.805862 104.130157,183.151855 
	C106.076080,181.630630 108.090103,180.797058 110.399033,180.120880 
	C111.844864,182.036621 112.995781,183.794998 114.050835,185.406906 
	C117.046364,184.633041 120.001907,184.006729 122.851364,183.060822 
	C123.884499,182.717850 124.663979,181.610779 125.973221,180.894760 
	C128.316040,181.758438 130.244827,182.579727 132.173630,183.401001 
	C131.907364,184.100159 131.641098,184.799301 130.896454,185.709381 
	C128.591370,185.562668 126.764679,185.205048 124.267273,184.716125 
	C125.124451,187.728912 125.558876,189.255829 125.993309,190.782745 
M121.363983,186.116516 
	C121.058586,186.422729 120.753189,186.728928 120.447784,187.035141 
	C120.809593,187.214325 121.171410,187.393494 121.533218,187.572678 
	C121.654755,187.102158 121.776283,186.631653 121.363983,186.116516 
z"/>
<path fill="#26497D" opacity="1.000000" stroke="none" 
	d="
M81.996246,116.991035 
	C79.611649,116.504662 77.181198,116.176529 74.851326,115.501312 
	C68.641075,113.701538 62.560715,111.351204 56.262112,109.991547 
	C51.356373,108.932564 49.977428,106.619957 51.441639,101.802238 
	C60.299583,104.357002 69.169952,106.915344 78.703232,109.698547 
	C80.584190,110.267700 81.802246,110.612000 83.020302,110.956299 
	C83.020302,110.956299 83.013481,111.007881 83.110916,111.374420 
	C82.804314,113.490990 82.400284,115.241013 81.996246,116.991035 
z"/>
<path fill="#24467B" opacity="1.000000" stroke="none" 
	d="
M132.425110,183.114227 
	C130.244827,182.579727 128.316040,181.758438 126.070969,180.520737 
	C125.469254,178.957657 124.933685,177.804871 124.961708,176.665924 
	C124.996704,175.243820 125.164093,173.631790 125.872536,172.464981 
	C126.918892,170.741653 128.853882,169.523422 129.758286,167.756317 
	C131.175766,164.986710 132.048798,161.938461 133.544708,159.015625 
	C136.016708,159.346466 138.096436,159.669922 140.176147,159.993378 
	C140.176147,160.167374 140.176147,160.341385 139.826126,160.800705 
	C139.409225,161.386063 139.342361,161.686096 139.275482,161.986145 
	C137.075851,168.933243 134.876221,175.880325 132.425110,183.114227 
z"/>
<path fill="#2A4E80" opacity="1.000000" stroke="none" 
	d="
M71.751175,133.144623 
	C66.293480,131.467026 61.313328,129.416855 56.130993,128.446686 
	C50.954647,127.477631 50.190430,124.770561 51.404724,120.006584 
	C60.126190,122.693977 68.760162,125.354408 77.793945,128.138031 
	C76.329453,130.889801 77.737076,135.813721 71.751175,133.144623 
z"/>
<path fill="#274B7E" opacity="1.000000" stroke="none" 
	d="
M75.999832,77.871353 
	C67.737335,75.611107 59.474846,73.350861 51.176994,71.080940 
	C51.176994,68.795212 51.176994,66.854080 51.176994,63.820415 
	C59.559307,66.594833 67.452888,69.207497 75.673401,72.390579 
	C76.000168,74.597786 76.000000,76.234566 75.999832,77.871353 
z"/>
<path fill="#254A7F" opacity="1.000000" stroke="none" 
	d="
M69.045288,94.984009 
	C67.839439,94.557251 66.633583,94.130493 64.997391,93.396828 
	C64.386009,93.010719 64.197159,92.980919 64.000511,93.000534 
	C59.857376,91.976082 55.714241,90.951637 51.313877,89.863579 
	C51.313877,87.538948 51.313877,85.339638 51.313877,82.873978 
	C56.521057,84.373932 61.465485,85.798203 66.910339,87.547119 
	C67.607506,87.969673 67.815247,88.007881 68.033989,87.986397 
	C69.859695,88.444977 71.685410,88.903549 73.645615,89.924950 
	C72.529411,92.001808 71.278709,93.515839 69.782562,95.013428 
	C69.537117,94.996979 69.045288,94.984009 69.045288,94.984009 
z"/>
<path fill="#294D82" opacity="1.000000" stroke="none" 
	d="
M76.320190,78.057358 
	C76.000000,76.234566 76.000168,74.597786 75.998611,72.551987 
	C82.363609,73.746498 88.730339,75.350029 95.729965,77.112968 
	C94.808899,79.807785 94.147232,81.743668 93.408638,83.904617 
	C87.564789,81.931610 82.102669,80.087486 76.320190,78.057358 
z"/>
<path fill="#294D82" opacity="1.000000" stroke="none" 
	d="
M140.425323,159.735977 
	C138.096436,159.669922 136.016708,159.346466 133.545624,158.640594 
	C134.842819,153.538651 136.531387,148.819122 138.219955,144.099594 
	C140.605469,143.462601 142.920456,143.065735 144.644562,145.941650 
	C143.556610,150.493149 142.115540,154.985855 140.425323,159.735977 
z"/>
<path fill="#2B4B7C" opacity="1.000000" stroke="none" 
	d="
M70.028015,95.029877 
	C71.278709,93.515839 72.529411,92.001808 73.908936,90.159195 
	C74.216080,89.825539 74.394402,89.820442 74.848953,90.148682 
	C75.404030,90.530121 75.682884,90.578217 75.961746,90.626305 
	C80.262512,91.700897 84.563278,92.775497 89.374130,93.977547 
	C88.618126,96.426743 88.018906,98.368019 87.333931,100.587112 
	C81.524704,98.863884 76.174423,97.276802 70.421249,95.512344 
	C70.018349,95.334969 70.028015,95.029877 70.028015,95.029877 
z"/>
<path fill="#284D84" opacity="1.000000" stroke="none" 
	d="
M82.107300,153.995834 
	C80.200233,153.104660 78.293175,152.213470 76.075798,151.100235 
	C76.583778,148.426514 77.402077,145.974838 78.447739,143.271149 
	C80.715767,143.595291 82.756424,144.171463 85.029030,145.255463 
	C85.260979,145.763275 85.022232,145.995316 84.684471,145.999176 
	C83.692047,146.308395 83.037384,146.613770 82.382729,146.919144 
	C82.915482,147.612106 83.448235,148.305069 83.984627,149.339996 
	C83.361282,151.119919 82.734291,152.557877 82.107300,153.995834 
z"/>
<path fill="#284D84" opacity="1.000000" stroke="none" 
	d="
M110.104118,179.963486 
	C108.090103,180.797058 106.076080,181.630630 103.988312,182.834442 
	C103.044800,182.684280 102.175034,182.163910 101.135880,181.389221 
	C101.527664,179.184433 102.088837,177.233917 103.309967,175.120163 
	C106.014664,176.625763 108.059395,178.294632 110.104118,179.963486 
z"/>
<path fill="#284D84" opacity="1.000000" stroke="none" 
	d="
M126.321243,190.916351 
	C125.558876,189.255829 125.124451,187.728912 124.267273,184.716125 
	C126.764679,185.205048 128.591370,185.562668 130.752380,185.963623 
	C130.057526,188.083893 131.886169,192.675613 126.321243,190.916351 
z"/>
<path fill="#254A7F" opacity="1.000000" stroke="none" 
	d="
M37.471672,63.586586 
	C37.079617,60.490288 36.827538,56.964005 36.900360,53.174839 
	C37.354057,56.326839 37.482857,59.741722 37.471672,63.586586 
z"/>
<path fill="#F6F7F6" opacity="1.000000" stroke="none" 
	d="
M81.999908,117.349297 
	C82.400284,115.241013 82.804314,113.490990 83.130905,111.357758 
	C87.096077,113.703140 82.487297,116.596474 82.802307,119.574699 
	C82.536064,118.952316 82.269821,118.329941 81.999908,117.349297 
z"/>
<path fill="#F6F7F6" opacity="1.000000" stroke="none" 
	d="
M82.960709,110.615417 
	C81.802246,110.612000 80.584190,110.267700 79.096375,109.759735 
	C80.184776,109.822227 81.542953,110.048386 82.960709,110.615417 
z"/>
<path fill="#F6F7F6" opacity="1.000000" stroke="none" 
	d="
M118.962509,80.571503 
	C118.442947,80.777664 117.880669,80.692642 117.127319,80.390236 
	C117.597435,80.208679 118.258606,80.244499 118.962509,80.571503 
z"/>
<path fill="#EEF1F2" opacity="1.000000" stroke="none" 
	d="
M146.410553,141.866852 
	C146.310211,141.687088 146.389145,141.383789 146.731293,141.032745 
	C146.941299,141.281372 146.806396,141.534134 146.410553,141.866852 
z"/>
<path fill="#2E5287" opacity="1.000000" stroke="none" 
	d="
M67.925560,87.843521 
	C67.815247,88.007881 67.607506,87.969673 67.281479,87.779205 
	C67.377464,87.517235 67.599106,87.521904 67.925560,87.843521 
z"/>
<path fill="#F6F7F6" opacity="1.000000" stroke="none" 
	d="
M75.850220,90.475761 
	C75.682884,90.578217 75.404030,90.530121 75.104050,90.229477 
	C75.333389,90.033035 75.551971,90.149124 75.850220,90.475761 
z"/>
<path fill="#2E5287" opacity="1.000000" stroke="none" 
	d="
M64.102234,93.131554 
	C64.197159,92.980919 64.386009,93.010719 64.690292,93.164139 
	C64.813530,93.238350 64.513809,93.376793 64.513809,93.376793 
	C64.513809,93.376793 64.203957,93.262573 64.102234,93.131554 
z"/>
<path fill="#2E5287" opacity="1.000000" stroke="none" 
	d="
M69.782562,95.013428 
	C70.028015,95.029877 70.018349,95.334969 70.016998,95.487244 
	C69.714249,95.600128 69.412857,95.560738 69.078369,95.252678 
	C69.045288,94.984009 69.537117,94.996979 69.782562,95.013428 
z"/>
<path fill="#EEF1F2" opacity="1.000000" stroke="none" 
	d="
M139.447327,161.865204 
	C139.342361,161.686096 139.409225,161.386063 139.739075,161.046753 
	C139.951416,161.293091 139.823776,161.538681 139.447327,161.865204 
z"/>
<path fill="#FAFAFA" opacity="1.000000" stroke="none" 
	d="
M110.399033,180.120880 
	C108.059395,178.294632 106.014664,176.625763 103.638367,174.924820 
	C101.808495,174.557541 100.310196,174.222351 98.328690,173.518646 
	C95.952888,171.342133 94.273582,171.110092 92.990738,173.807220 
	C90.779434,174.232040 88.568138,174.656876 85.655838,175.088196 
	C84.719719,175.059708 84.484581,175.024719 84.249451,174.989746 
	C82.748299,172.863281 80.847252,170.901657 79.880096,168.555099 
	C79.181725,166.860703 79.250114,163.082474 79.788162,162.919907 
	C85.141434,161.302490 82.444115,157.788589 82.084274,154.409134 
	C82.734291,152.557877 83.361282,151.119919 84.179092,149.081482 
	C84.587349,147.652435 84.804787,146.823883 85.022232,145.995316 
	C85.022232,145.995316 85.260979,145.763275 85.231094,145.599609 
	C86.605545,141.593506 88.009880,137.751053 89.675034,133.259766 
	C90.281013,131.404800 90.626175,130.198654 90.971344,128.992523 
	C93.224800,122.761093 95.343712,116.475739 97.807045,110.328415 
	C98.633148,108.266830 100.516289,106.651245 101.568878,104.649147 
	C102.152817,103.538475 102.401276,101.968735 102.139160,100.748016 
	C101.292854,96.806564 102.648003,94.652092 106.594841,94.126778 
	C107.736107,93.974869 108.892395,93.728813 109.964371,93.321938 
	C111.029999,92.917480 111.998238,92.256439 113.224716,91.590981 
	C114.232262,93.148338 115.196304,94.638458 116.442978,96.367760 
	C119.573708,98.770409 122.421814,100.933891 125.630180,103.122269 
	C131.005737,105.799713 135.982468,104.828369 141.677795,102.970993 
	C142.649460,102.951164 142.893250,102.948280 143.137024,102.945396 
	C144.077072,104.482132 145.017105,106.018860 146.238312,107.762024 
	C147.383652,108.825516 148.247849,109.682587 149.327148,110.765610 
	C149.092667,112.123192 148.643066,113.254822 147.835388,114.777466 
	C147.263779,115.308846 147.111282,115.498322 147.019821,115.736908 
	C146.034424,117.132980 145.049026,118.529053 144.078705,120.630058 
	C144.410797,121.895378 144.727844,122.455757 145.044891,123.016136 
	C142.807236,129.764832 140.569580,136.513535 138.275940,143.680908 
	C136.531387,148.819122 134.842819,153.538651 133.153351,158.633209 
	C132.048798,161.938461 131.175766,164.986710 129.758286,167.756317 
	C128.853882,169.523422 126.918892,170.741653 125.872536,172.464981 
	C125.164093,173.631790 124.996704,175.243820 124.961708,176.665924 
	C124.933685,177.804871 125.469254,178.957657 125.656944,180.478333 
	C124.663979,181.610779 123.884499,182.717850 122.851364,183.060822 
	C120.001907,184.006729 117.046364,184.633041 114.050835,185.406906 
	C112.995781,183.794998 111.844864,182.036621 110.399033,180.120880 
M134.995026,114.840874 
	C136.182236,116.002022 137.369461,117.163170 138.556671,118.324318 
	C139.322983,117.390236 140.089294,116.456161 140.855606,115.522087 
	C139.228378,114.656845 137.601135,113.791603 135.644608,112.502983 
	C135.246994,112.538925 134.849396,112.574860 134.451782,112.610794 
	C134.664932,113.085144 134.878067,113.559494 134.995026,114.840874 
M120.876991,144.962082 
	C123.839516,143.745712 126.802040,142.529343 129.764557,141.312973 
	C129.949524,140.932526 130.134476,140.552063 130.319427,140.171616 
	C121.771744,138.366257 118.168457,133.144272 119.518547,124.499420 
	C119.019417,124.482864 118.520287,124.466301 118.021156,124.449745 
	C115.971031,126.878677 113.920906,129.307602 111.096413,131.925812 
	C107.548210,131.215424 104.000008,130.505035 100.451805,129.794662 
	C106.241119,136.836090 104.119385,143.021927 99.370216,149.678619 
	C107.553413,146.414825 113.504913,148.491837 118.049049,157.137924 
	C118.976669,151.832886 119.567856,148.451920 120.876991,144.962082 
M121.429329,109.885506 
	C122.219933,106.808098 120.351036,105.830956 117.938499,106.208763 
	C117.039001,106.349632 115.537903,108.626503 115.819153,109.262329 
	C116.863091,111.622284 118.740524,112.770660 121.429329,109.885506 
M130.395721,110.082397 
	C128.841278,110.319557 127.242142,110.426781 125.779236,110.930023 
	C125.552391,111.008041 125.583908,113.482368 126.134651,113.826569 
	C127.217178,114.503120 129.327560,115.113297 129.952972,114.557823 
	C130.803207,113.802650 130.660370,111.929405 130.395721,110.082397 
M111.606094,169.983078 
	C112.266167,166.593140 110.118263,165.813385 107.580429,166.244553 
	C106.847084,166.369156 106.448105,168.461807 105.895836,169.652206 
	C107.665833,169.971115 109.435822,170.290009 111.606094,169.983078 
M86.898178,161.884171 
	C86.762199,164.974625 88.792900,165.664795 91.024002,164.852112 
	C91.833199,164.557373 92.691788,161.767258 92.185898,160.996384 
	C90.782509,158.857849 88.742920,158.710220 86.898178,161.884171 
M119.043602,169.496933 
	C117.724968,170.056885 116.406326,170.616821 115.087700,171.176773 
	C115.611053,172.226898 115.883553,173.755707 116.725876,174.197159 
	C117.630470,174.671204 119.070374,174.123795 120.276680,174.022125 
	C120.096634,172.623215 119.916580,171.224304 119.043602,169.496933 
M111.706390,107.219177 
	C112.846718,104.429749 111.573624,102.923286 108.905334,103.045303 
	C107.934013,103.089729 107.039070,104.804131 106.109276,105.756615 
	C107.782204,106.443199 109.455132,107.129776 111.706390,107.219177 
M100.295280,163.081955 
	C98.927582,163.637375 97.559883,164.192780 96.192192,164.748215 
	C96.608276,165.748230 96.768936,167.254181 97.502823,167.624710 
	C98.498871,168.127579 99.933701,167.761322 101.180328,167.767853 
	C101.127190,166.342041 101.074059,164.916229 100.295280,163.081955 
z"/>
<path fill="#26487C" opacity="1.000000" stroke="none" 
	d="
M90.601303,128.952301 
	C90.626175,130.198654 90.281013,131.404800 89.762314,132.872498 
	C87.792953,132.682999 84.617302,133.914719 85.222458,130.318512 
	C85.776283,127.027397 88.233040,128.275162 90.601303,128.952301 
z"/>
<path fill="#F2F4F5" opacity="1.000000" stroke="none" 
	d="
M145.289291,122.840530 
	C144.727844,122.455757 144.410797,121.895378 144.114929,120.994278 
	C144.601974,121.324005 145.067825,121.994469 145.289291,122.840530 
z"/>
<path fill="#F2F4F5" opacity="1.000000" stroke="none" 
	d="
M147.256973,115.799469 
	C147.111282,115.498322 147.263779,115.308846 147.645050,115.090881 
	C147.940781,115.384125 147.834549,115.667046 147.256973,115.799469 
z"/>
<path fill="#F2F4F5" opacity="1.000000" stroke="none" 
	d="
M143.069153,102.658112 
	C142.893250,102.948280 142.649460,102.951164 142.041550,102.910446 
	C142.118729,102.701492 142.559998,102.536156 143.069153,102.658112 
z"/>
<path fill="#F0F3F4" opacity="1.000000" stroke="none" 
	d="
M93.405441,173.871246 
	C94.273582,171.110092 95.952888,171.342133 97.926575,173.492661 
	C96.611816,173.868546 95.215981,173.901917 93.405441,173.871246 
z"/>
<path fill="#F0F3F4" opacity="1.000000" stroke="none" 
	d="
M84.270401,175.258270 
	C84.484581,175.024719 84.719719,175.059708 85.300385,175.187927 
	C85.194405,175.363037 84.742882,175.444916 84.270401,175.258270 
z"/>
<path fill="#284D84" opacity="1.000000" stroke="none" 
	d="
M121.630898,186.138824 
	C121.776283,186.631653 121.654755,187.102158 121.533218,187.572678 
	C121.171410,187.393494 120.809593,187.214325 120.447784,187.035141 
	C120.753189,186.728928 121.058586,186.422729 121.630898,186.138824 
z"/>
<path fill="#26487C" opacity="1.000000" stroke="none" 
	d="
M84.684471,145.999176 
	C84.804787,146.823883 84.587349,147.652435 84.175446,148.739517 
	C83.448235,148.305069 82.915482,147.612106 82.382729,146.919144 
	C83.037384,146.613770 83.692047,146.308395 84.684471,145.999176 
z"/>
<path fill="#24487E" opacity="1.000000" stroke="none" 
	d="
M120.159042,145.070969 
	C119.567856,148.451920 118.976669,151.832886 118.049049,157.137924 
	C113.504913,148.491837 107.553413,146.414825 99.370216,149.678619 
	C104.119385,143.021927 106.241119,136.836090 100.451805,129.794662 
	C104.000008,130.505035 107.548210,131.215424 111.671089,132.138977 
	C113.619843,134.120682 115.163948,135.785263 116.324883,137.684128 
	C117.768433,140.045227 118.895363,142.599899 120.159042,145.070969 
z"/>
<path fill="#284D84" opacity="1.000000" stroke="none" 
	d="
M120.518021,145.016525 
	C118.895363,142.599899 117.768433,140.045227 116.324883,137.684128 
	C115.163948,135.785263 113.619843,134.120682 112.058273,132.044342 
	C113.920906,129.307602 115.971031,126.878677 118.021156,124.449745 
	C118.520287,124.466301 119.019417,124.482864 119.518547,124.499420 
	C118.168457,133.144272 121.771744,138.366257 130.319427,140.171616 
	C130.134476,140.552063 129.949524,140.932526 129.764557,141.312973 
	C126.802040,142.529343 123.839516,143.745712 120.518021,145.016525 
z"/>
<path fill="#2E5287" opacity="1.000000" stroke="none" 
	d="
M121.289124,110.212097 
	C118.740524,112.770660 116.863091,111.622284 115.819153,109.262329 
	C115.537903,108.626503 117.039001,106.349632 117.938499,106.208763 
	C120.351036,105.830956 122.219933,106.808098 121.289124,110.212097 
z"/>
<path fill="#2E5287" opacity="1.000000" stroke="none" 
	d="
M130.669556,110.309021 
	C130.660370,111.929405 130.803207,113.802650 129.952972,114.557823 
	C129.327560,115.113297 127.217178,114.503120 126.134651,113.826569 
	C125.583908,113.482368 125.552391,111.008041 125.779236,110.930023 
	C127.242142,110.426781 128.841278,110.319557 130.669556,110.309021 
z"/>
<path fill="#2E5287" opacity="1.000000" stroke="none" 
	d="
M111.405960,170.295990 
	C109.435822,170.290009 107.665833,169.971115 105.895836,169.652206 
	C106.448105,168.461807 106.847084,166.369156 107.580429,166.244553 
	C110.118263,165.813385 112.266167,166.593140 111.405960,170.295990 
z"/>
<path fill="#284D84" opacity="1.000000" stroke="none" 
	d="
M87.002762,161.510406 
	C88.742920,158.710220 90.782509,158.857849 92.185898,160.996384 
	C92.691788,161.767258 91.833199,164.557373 91.024002,164.852112 
	C88.792900,165.664795 86.762199,164.974625 87.002762,161.510406 
z"/>
<path fill="#3C5C89" opacity="1.000000" stroke="none" 
	d="
M119.390068,169.661163 
	C119.916580,171.224304 120.096634,172.623215 120.276680,174.022125 
	C119.070374,174.123795 117.630470,174.671204 116.725876,174.197159 
	C115.883553,173.755707 115.611053,172.226898 115.087692,171.176773 
	C116.406326,170.616821 117.724968,170.056885 119.390068,169.661163 
z"/>
<path fill="#2E5287" opacity="1.000000" stroke="none" 
	d="
M111.417221,107.517761 
	C109.455132,107.129776 107.782204,106.443199 106.109276,105.756615 
	C107.039070,104.804131 107.934013,103.089729 108.905334,103.045303 
	C111.573624,102.923286 112.846718,104.429749 111.417221,107.517761 
z"/>
<path fill="#2E5287" opacity="1.000000" stroke="none" 
	d="
M100.658096,163.286194 
	C101.074059,164.916229 101.127190,166.342041 101.180328,167.767853 
	C99.933701,167.761322 98.498871,168.127579 97.502823,167.624710 
	C96.768936,167.254181 96.608276,165.748230 96.192184,164.748199 
	C97.559883,164.192780 98.927582,163.637375 100.658096,163.286194 
z"/>
<path fill="#2B4B7C" opacity="1.000000" stroke="none" 
	d="
M135.973907,112.926361 
	C137.601135,113.791603 139.228378,114.656845 140.855606,115.522087 
	C140.089294,116.456161 139.322983,117.390236 138.556671,118.324318 
	C137.369461,117.163170 136.182236,116.002022 135.272339,114.332947 
	C135.691071,113.525475 135.832489,113.225914 135.973907,112.926361 
z"/>
<path fill="#F2F4F5" opacity="1.000000" stroke="none" 
	d="
M135.809265,112.714676 
	C135.832489,113.225914 135.691071,113.525475 135.320435,113.929443 
	C134.878067,113.559494 134.664932,113.085144 134.451782,112.610794 
	C134.849396,112.574860 135.246994,112.538925 135.809265,112.714676 
z"/>
</svg>